<?xml version="1.0" standalone="no"?>
<!DOCTYPE svg
  PUBLIC '-//W3C//DTD SVG 1.1//EN'
  'http://www.w3.org/Graphics/SVG/1.1/DTD/svg11.dtd'><svg version="1.1" xmlns="http://www.w3.org/2000/svg"><defs><font horiz-adv-x="0" id="font"><font-face ascent="728" bbox="-180 -222 1390 960" cap-height="698" descent="-216" font-family="Politi" font-stretch="normal" font-style="normal" font-weight="698" units-per-em="1000" x-height="523" /><missing-glyph d="" horiz-adv-x="1000" /><glyph d="" glyph-name="NULL" horiz-adv-x="0" unicode="" /><glyph d="" glyph-name="nonmarkingreturn" horiz-adv-x="200" unicode="" /><glyph d="" glyph-name="space" horiz-adv-x="200" unicode=" " /><glyph d="M80 698 236 698V595H439Q491 595 533 583.5Q575 572 604 545Q633 518 649 474.5Q665 431 665 367Q665 299 644 253Q623 207 587 178.5Q551 150 502.5 137.5Q454 125 399 125H236V0H80ZM406 248Q454 248 480 278Q506 308 506 367Q506 399 500.5 420Q495 441 482 453Q469 465 447.5 470Q426 475 394 475H236V248Z" glyph-name="Thorn" horiz-adv-x="707" unicode="Þ" /><glyph d="M68 728 218 728V469H219Q240 495 280 516.5Q320 538 389 538Q498 538 551.5 472.5Q605 407 605 271Q605 208 592.5 156Q580 104 551 66Q522 28 475 7Q428 -14 358 -14Q329 -14 308 -10.5Q287 -7 271 -1Q255 5 243 12.5Q231 20 220 29H218V-216H68ZM336 106Q365 106 386.5 114Q408 122 422.5 141Q437 160 444 191.5Q451 223 451 271Q451 305 446.5 333Q442 361 429.5 380Q417 399 394.5 409.5Q372 420 337 420Q301 420 277.5 409.5Q254 399 240 379Q226 359 220.5 330Q215 301 215 264Q215 182 242.5 144Q270 106 336 106Z" glyph-name="thorn" horiz-adv-x="654" unicode="þ" /><glyph d="M60 366 167 366V592L60 537V633L184 698H284V366H383V277H60ZM655 710 767 710L419 -12H306ZM673 54Q673 85 685 108Q697 131 716 149Q735 167 759.5 180Q784 193 808 205Q853 226 879 242.5Q905 259 905 289Q905 309 892 322Q879 335 851 335Q817 335 798.5 318Q780 301 767 278L671 324Q699 374 744.5 400.5Q790 427 862 427Q894 427 923.5 421Q953 415 976 400Q999 385 1013 360.5Q1027 336 1027 299Q1027 266 1015.5 241.5Q1004 217 984.5 198Q965 179 938 164Q911 149 880 134Q851 120 833.5 111Q816 102 807 89H1025V0H673Z" glyph-name="onehalf" horiz-adv-x="1072" unicode="½" /><glyph d="M60 366 167 366V592L60 537V633L184 698H284V366H383V277H60ZM636 178 769 427H895L768 188H854V283H972V188H1017V100H972V0H854V100H636ZM657 710 769 710L421 -12H308Z" glyph-name="onequarter" horiz-adv-x="1044" unicode="¼" /><glyph d="M108 412Q128 380 148 370Q168 360 197 360Q232 360 250 371.5Q268 383 268 409Q268 428 255 442.5Q242 457 203 457H134V543H193Q234 543 246.5 552Q259 561 259 577Q259 598 244 605.5Q229 613 199 613Q175 613 156.5 605.5Q138 598 119 570L18 628Q49 667 92 685.5Q135 704 201 704Q239 704 271.5 697.5Q304 691 327.5 677.5Q351 664 364.5 643Q378 622 378 592Q378 535 328 504Q361 485 375.5 460Q390 435 390 403Q390 368 374.5 343Q359 318 332 301.5Q305 285 267.5 277Q230 269 187 269Q151 269 125 274.5Q99 280 78.5 290.5Q58 301 42 317Q26 333 10 354ZM626 178 759 427H885L758 188H844V283H962V188H1007V100H962V0H844V100H626ZM627 710 739 710L391 -12H278Z" glyph-name="threequarters" horiz-adv-x="1044" unicode="¾" /><glyph d="M110 710 220 710V352H110ZM110 169 220 169V-215H110Z" glyph-name="brokenbar" horiz-adv-x="330" unicode="¦" /><glyph d="M10 416 284 516V400L10 300ZM70 728 220 728V0H70Z" glyph-name="lslash" horiz-adv-x="290" unicode="ł" /><glyph d="M56 698 233 698L196 218H93ZM64 160 224 160V0H64Z" glyph-name="exclam" horiz-adv-x="288" unicode="!" /><glyph d="M288 698 426 698L405 425H309ZM288 698 426 698L405 425H309Z" glyph-name="quotedbl" horiz-adv-x="494" unicode="&quot;" /><glyph d="M149 210 33 210L50 296H166L186 402H70L87 488H203L244 698H337L296 488H406L447 698H540L499 488H615L598 402H482L462 296H578L561 210H445L404 0H311L352 210H242L201 0H108ZM369 296 389 402H279L259 296Z" glyph-name="numbersign" horiz-adv-x="650" unicode="#" /><glyph d="M153 212Q166 191 179.5 174Q193 157 209 144.5Q225 132 245 124Q265 116 292 113V303Q236 310 192 322.5Q148 335 117 357Q86 379 70 413Q54 447 54 496Q54 590 110 645Q166 700 292 708V784H372V709Q437 704 490.5 680.5Q544 657 596 601L472 522Q444 550 421 563Q398 576 372 581V426Q503 412 563 363.5Q623 315 623 222Q623 166 604.5 124Q586 82 553 53.5Q520 25 473.5 9Q427 -7 372 -12V-113H292V-13Q248 -11 211.5 -2Q175 7 143.5 23Q112 39 84.5 62.5Q57 86 32 118ZM372 113Q393 116 412 122.5Q431 129 445.5 140Q460 151 468.5 168Q477 185 477 208Q477 230 467.5 245.5Q458 261 442.5 270.5Q427 280 408.5 285Q390 290 372 292ZM292 583Q246 579 222.5 561Q199 543 199 508Q199 482 220 463Q241 444 292 436Z" glyph-name="dollar" horiz-adv-x="674" unicode="$" /><glyph d="M661 710 774 710L425 -12H313ZM50 499Q50 563 67 602.5Q84 642 112.5 663.5Q141 685 179 692Q217 699 258 699Q299 699 337 692Q375 685 403.5 663.5Q432 642 449 602.5Q466 563 466 499Q466 434 449 395Q432 356 403.5 335Q375 314 337 307Q299 300 258 300Q217 300 179 307Q141 314 112.5 335Q84 356 67 395Q50 434 50 499ZM258 389Q280 389 295.5 394Q311 399 321 411.5Q331 424 335.5 445.5Q340 467 340 499Q340 564 321 586.5Q302 609 258 609Q236 609 220.5 604Q205 599 195 586.5Q185 574 180.5 553Q176 532 176 499Q176 467 180.5 445.5Q185 424 195 411.5Q205 399 220.5 394Q236 389 258 389ZM614 185Q614 249 631 288.5Q648 328 676.5 349.5Q705 371 743 378Q781 385 822 385Q863 385 901 378Q939 371 967.5 349.5Q996 328 1013 288.5Q1030 249 1030 185Q1030 120 1013 81Q996 42 967.5 21Q939 0 901 -7Q863 -14 822 -14Q781 -14 743 -7Q705 0 676.5 21Q648 42 631 81Q614 120 614 185ZM822 75Q844 75 859.5 80Q875 85 885 97.5Q895 110 899.5 131.5Q904 153 904 185Q904 250 885 272.5Q866 295 822 295Q800 295 784.5 290Q769 285 759 272.5Q749 260 744.5 239Q740 218 740 185Q740 153 744.5 131.5Q749 110 759 97.5Q769 85 784.5 80Q800 75 822 75Z" glyph-name="percent" horiz-adv-x="1080" unicode="%" /><glyph d="M647 0Q627 0 614.5 1.5Q602 3 592.5 6.5Q583 10 574.5 16.5Q566 23 553 33Q502 8 449 -3Q396 -14 333 -14Q265 -14 212 -2Q159 10 123 36.5Q87 63 68.5 105.5Q50 148 50 209Q50 294 87 348Q124 402 200 413Q187 432 177 447Q167 462 160.5 476Q154 490 151 506Q148 522 148 543Q148 592 165 624.5Q182 657 212.5 676Q243 695 285 703Q327 711 377 711Q486 711 541 672Q596 633 596 547Q596 506 581.5 477Q567 448 543 428.5Q519 409 487.5 397.5Q456 386 422 380L571 222Q587 253 600 293Q613 333 615 387H757Q754 302 729.5 238.5Q705 175 667 127Q679 121 694 119Q709 117 721 117H783V0ZM358 445Q400 457 426.5 479Q453 501 453 543Q453 575 435 587.5Q417 600 379 600Q341 600 321.5 588Q302 576 302 545Q302 517 317 495Q332 473 358 445ZM461 125Q441 146 418.5 171Q396 196 372 222Q348 248 324 274.5Q300 301 278 325Q254 322 240 313.5Q226 305 218.5 290.5Q211 276 208.5 257Q206 238 206 214Q206 187 212.5 167Q219 147 235 133.5Q251 120 278 113.5Q305 107 347 107Q378 107 406 111Q434 115 461 125Z" glyph-name="ampersand" horiz-adv-x="813" unicode="&amp;" /><glyph d="M288 698 426 698L405 425H309Z" glyph-name="quotesingle" horiz-adv-x="274" unicode="'" /><glyph d="M269 -222Q181 -113 133 12.5Q85 138 85 272Q85 405 132 530.5Q179 656 267 765L371 691Q336 640 309 592Q282 544 262.5 494Q243 444 233 389.5Q223 335 223 271Q223 207 233 152.5Q243 98 262.5 48Q282 -2 309 -50Q336 -98 371 -149Z" glyph-name="parenleft" horiz-adv-x="390" unicode="(" /><glyph d="M20 -149Q54 -98 81.5 -50Q109 -2 128.5 48Q148 98 158 152.5Q168 207 168 271Q168 335 158 389.5Q148 444 128.5 494Q109 544 81.5 592Q54 640 20 691L124 765Q212 656 259 530.5Q306 405 306 272Q306 138 258 12.5Q210 -113 122 -222Z" glyph-name="parenright" horiz-adv-x="390" unicode=")" /><glyph d="M197 503 59 523L95 627L218 563L194 698H307L283 563L403 628L437 523L302 503L401 409L307 347L249 465L189 347L96 409Z" glyph-name="asterisk" horiz-adv-x="496" unicode="*" /><glyph d="M251 246 66 246V362H251V568H369V362H554V246H369V40H251Z" glyph-name="plus" horiz-adv-x="620" unicode="+" /><glyph d="M72 160 232 160L132 -153H12Z" glyph-name="comma" horiz-adv-x="274" unicode="," /><glyph d="M35 329 343 329V215H35Z" glyph-name="hyphen" horiz-adv-x="378" unicode="-" /><glyph d="M57 160 217 160V0H57Z" glyph-name="period" horiz-adv-x="274" unicode="." /><glyph d="M349 710 461 710L113 -12H0Z" glyph-name="slash" horiz-adv-x="461" unicode="/" /><glyph d="M310 -14Q221 -14 167.5 14Q114 42 85 90Q56 138 47 202.5Q38 267 38 341Q38 415 47 480Q56 545 84.5 593.5Q113 642 167 670Q221 698 310 698Q399 698 453 670Q507 642 535.5 593.5Q564 545 573 480Q582 415 582 341Q582 267 573 202.5Q564 138 535 90Q506 42 452.5 14Q399 -14 310 -14ZM310 109Q349 109 372.5 123Q396 137 408.5 165.5Q421 194 425 238Q429 282 429 341Q429 401 425 445Q421 489 408.5 518Q396 547 372.5 561Q349 575 310 575Q271 575 247.5 561Q224 547 211.5 518Q199 489 195 445Q191 401 191 341Q191 282 195 238Q199 194 211.5 165.5Q224 137 247.5 123Q271 109 310 109Z" glyph-name="zero" horiz-adv-x="620" unicode="0" /><glyph d="M92 120 261 120V535H256L92 443V585L275 688H411V120H567V0H92Z" glyph-name="one" horiz-adv-x="620" unicode="1" /><glyph d="M47 77Q47 139 74 181.5Q101 224 142 254.5Q183 285 230.5 308.5Q278 332 319 357Q360 382 387 413.5Q414 445 414 491Q414 532 389 553.5Q364 575 307 575Q278 575 257 567.5Q236 560 219.5 547.5Q203 535 191.5 519Q180 503 171 485L43 564Q110 698 319 698Q371 698 417 688Q463 678 497.5 654.5Q532 631 551.5 591Q571 551 571 491Q571 431 547.5 388Q524 345 488 313.5Q452 282 409 258.5Q366 235 326 214Q286 193 255 171Q224 149 213 120H567V0H47Z" glyph-name="two" horiz-adv-x="620" unicode="2" /><glyph d="M144 206Q159 181 174 163Q189 145 206.5 133Q224 121 246 115Q268 109 298 109Q357 109 390 133.5Q423 158 423 209Q423 228 418 246.5Q413 265 399.5 278.5Q386 292 362 300.5Q338 309 301 309H211V423H284Q322 423 346 428Q370 433 383.5 443Q397 453 402 467Q407 481 407 498Q407 542 380 559.5Q353 577 299 577Q250 577 220 557.5Q190 538 162 493L33 574Q75 630 137.5 664Q200 698 298 698Q354 698 402 688.5Q450 679 485 657.5Q520 636 540 600Q560 564 560 511Q560 493 553 472Q546 451 533 431.5Q520 412 501 396.5Q482 381 459 373V371Q515 351 547 308.5Q579 266 579 209Q579 150 556 107.5Q533 65 494.5 38Q456 11 405 -1.5Q354 -14 297 -14Q237 -14 196 -5Q155 4 124.5 21.5Q94 39 70 66Q46 93 21 129Z" glyph-name="three" horiz-adv-x="620" unicode="3" /><glyph d="M32 285 268 698H426L195 288H378V486H527V288H598V171H527V0H378V171H32Z" glyph-name="four" horiz-adv-x="620" unicode="4" /><glyph d="M168 199Q188 151 220 127Q252 103 301 103Q332 103 354.5 113Q377 123 391.5 139.5Q406 156 413 178.5Q420 201 420 227Q420 248 414.5 269Q409 290 396 306.5Q383 323 361.5 333Q340 343 307 343Q279 343 258 336.5Q237 330 222 320Q207 310 197.5 299.5Q188 289 183 280L62 312V688H529V568H209V423Q230 444 267.5 455Q305 466 352 466Q411 466 453.5 448.5Q496 431 523 400Q550 369 563 326.5Q576 284 576 235Q576 182 561 137Q546 92 512.5 58Q479 24 426 5Q373 -14 297 -14Q244 -14 202.5 -5Q161 4 129.5 21.5Q98 39 74.5 63.5Q51 88 34 118Z" glyph-name="five" horiz-adv-x="620" unicode="5" /><glyph d="M448 514Q431 545 402.5 563.5Q374 582 329 582Q262 582 228.5 535.5Q195 489 185 395Q221 430 260.5 438.5Q300 447 332 447Q457 447 516.5 391Q576 335 576 227Q576 112 509.5 49Q443 -14 309 -14Q235 -14 184.5 6.5Q134 27 103 69Q72 111 58.5 174Q45 237 45 321Q45 437 67.5 510.5Q90 584 129 625.5Q168 667 220.5 682.5Q273 698 333 698Q377 698 411.5 691Q446 684 472.5 670Q499 656 519.5 634Q540 612 557 582ZM312 108Q375 108 400.5 135Q426 162 426 226Q426 255 421 274.5Q416 294 403.5 306Q391 318 370 323.5Q349 329 318 329Q250 329 225 303.5Q200 278 200 220Q200 160 225 134Q250 108 312 108Z" glyph-name="six" horiz-adv-x="620" unicode="6" /><glyph d="M413 565 44 565V688H560V562L307 0H137Z" glyph-name="seven" horiz-adv-x="620" unicode="7" /><glyph d="M159 374Q112 391 84.5 426.5Q57 462 57 516Q57 564 75 598.5Q93 633 126 655Q159 677 205.5 687.5Q252 698 310 698Q368 698 414.5 687.5Q461 677 494 655Q527 633 545 598Q563 563 563 515Q563 460 535.5 425.5Q508 391 460 374V371Q486 362 509.5 346.5Q533 331 551 309.5Q569 288 580 261Q591 234 591 201Q591 143 570.5 102Q550 61 513.5 35.5Q477 10 425 -2Q373 -14 310 -14Q247 -14 195 -2Q143 10 106.5 35.5Q70 61 49.5 102Q29 143 29 201Q29 234 39.5 261Q50 288 68 309Q86 330 109.5 345.5Q133 361 159 371ZM188 207Q188 178 198 158.5Q208 139 224.5 128Q241 117 263.5 112.5Q286 108 310 108Q334 108 356.5 112.5Q379 117 395.5 128Q412 139 422 158.5Q432 178 432 207Q432 235 423 253.5Q414 272 397.5 283.5Q381 295 359 300Q337 305 310 305Q283 305 261 300Q239 295 222.5 283.5Q206 272 197 253.5Q188 235 188 207ZM210 499Q210 450 233 433Q256 416 310 416Q364 416 387 433Q410 450 410 499Q410 517 406 531.5Q402 546 391 556Q380 566 360.5 571.5Q341 577 310 577Q279 577 259.5 571.5Q240 566 229 556Q218 546 214 531.5Q210 517 210 499Z" glyph-name="eight" horiz-adv-x="620" unicode="8" /><glyph d="M168 184Q181 160 194 144Q207 128 222 119Q237 110 255.5 106Q274 102 300 102Q351 102 386 148Q421 194 429 285H426Q409 270 391 260.5Q373 251 355 245.5Q337 240 321 238.5Q305 237 292 237Q160 237 100 291.5Q40 346 40 459Q40 573 107.5 635.5Q175 698 299 698Q375 698 427 678Q479 658 511 616.5Q543 575 556.5 511.5Q570 448 570 360Q570 251 549 179Q528 107 490.5 64Q453 21 401.5 3.5Q350 -14 289 -14Q241 -14 204 -7Q167 0 138 14.5Q109 29 85.5 51.5Q62 74 40 106ZM189 463Q189 432 194 411.5Q199 391 211.5 378.5Q224 366 245.5 360.5Q267 355 300 355Q364 355 389.5 379.5Q415 404 415 460Q415 493 409 515Q403 537 389.5 550.5Q376 564 354 570Q332 576 299 576Q239 576 214 548Q189 520 189 463Z" glyph-name="nine" horiz-adv-x="620" unicode="9" /><glyph d="M57 160 217 160V0H57ZM57 523 217 523V363H57Z" glyph-name="colon" horiz-adv-x="274" unicode=":" /><glyph d="M72 150 232 150L132 -153H12ZM57 523 217 523V363H57Z" glyph-name="semicolon" horiz-adv-x="274" unicode=";" /><glyph d="M66 368 554 571V438L198 304L554 166V34L66 240Z" glyph-name="less" horiz-adv-x="620" unicode="&lt;" /><glyph d="M66 472 554 472V356H66ZM66 252 554 252V136H66Z" glyph-name="equal" horiz-adv-x="620" unicode="=" /><glyph d="M66 166 422 304L66 438V571L554 368V240L66 34Z" glyph-name="greater" horiz-adv-x="620" unicode="&gt;" /><glyph d="M186 226Q186 274 199.5 307.5Q213 341 233 365Q253 389 276 406.5Q299 424 319 440Q339 456 352.5 474.5Q366 493 366 519Q366 556 338.5 571.5Q311 587 274 587Q233 587 200 570Q167 553 145 518L20 579Q34 606 55.5 629.5Q77 653 108 671Q139 689 182 699.5Q225 710 283 710Q331 710 375 701Q419 692 452.5 671Q486 650 505.5 614.5Q525 579 525 525Q525 479 511 447Q497 415 476 392Q455 369 431 352Q407 335 386 318.5Q365 302 351 283.5Q337 265 337 238V215H186ZM180 160 340 160V0H180Z" glyph-name="question" horiz-adv-x="573" unicode="?" /><glyph d="M675 -58Q654 -66 632.5 -72.5Q611 -79 587 -83.5Q563 -88 535 -90.5Q507 -93 473 -93Q387 -93 310.5 -75.5Q234 -58 177 -13.5Q120 31 87 106.5Q54 182 54 298Q54 417 88.5 494.5Q123 572 180.5 617Q238 662 312.5 680Q387 698 467 698Q553 698 627.5 679Q702 660 756.5 618Q811 576 842 509Q873 442 873 346Q873 272 854.5 222.5Q836 173 805.5 143Q775 113 736 100.5Q697 88 657 88Q607 88 581.5 105Q556 122 545 154Q523 128 484.5 109.5Q446 91 390 91Q302 91 269.5 149.5Q237 208 257 310Q269 368 290.5 407.5Q312 447 341 471Q370 495 404.5 505Q439 515 477 515Q490 515 507 513.5Q524 512 540 507Q556 502 569 493Q582 484 588 470H589L600 507H694L643 245Q640 229 639 215Q638 201 640.5 190.5Q643 180 650.5 173.5Q658 167 672 167Q685 167 701.5 174.5Q718 182 732 200.5Q746 219 755.5 252Q765 285 765 336Q765 482 688.5 551Q612 620 464 620Q309 620 239 542.5Q169 465 169 305Q169 218 188 158Q207 98 244.5 60Q282 22 338 5Q394 -12 468 -12Q526 -12 570.5 -3.5Q615 5 641 19ZM430 177Q457 177 475.5 184.5Q494 192 506.5 207.5Q519 223 527.5 247.5Q536 272 543 307Q550 342 551.5 366Q553 390 547 404.5Q541 419 526 425.5Q511 432 484 432Q456 432 437 425Q418 418 405.5 402Q393 386 384.5 361.5Q376 337 369 301Q363 269 361.5 245.5Q360 222 366 207Q372 192 387.5 184.5Q403 177 430 177Z" glyph-name="at" horiz-adv-x="927" unicode="@" /><glyph d="M281 698 487 698L758 0H591L537 158H226L171 0H6ZM492 288 385 601H383L272 288Z" glyph-name="A" horiz-adv-x="764" unicode="A" /><glyph d="M80 698 412 698Q535 698 590 652.5Q645 607 645 523Q645 466 620.5 430Q596 394 554 374V371Q579 365 601 351.5Q623 338 639.5 318Q656 298 666 272Q676 246 676 215Q676 154 658 112.5Q640 71 605 46Q570 21 517 10.5Q464 0 394 0H80ZM402 120Q436 120 458.5 126.5Q481 133 494 145.5Q507 158 512 176Q517 194 517 217Q517 240 513 257Q509 274 496 285Q483 296 458.5 301.5Q434 307 394 307H236V120ZM390 421Q422 421 442 426.5Q462 432 473.5 442.5Q485 453 489 468Q493 483 493 501Q493 519 489 533Q485 547 474 557Q463 567 444.5 572.5Q426 578 397 578H236V421Z" glyph-name="B" horiz-adv-x="715" unicode="B" /><glyph d="M676 107Q647 72 619.5 49Q592 26 558.5 12Q525 -2 483 -8Q441 -14 385 -14Q289 -14 225 3.5Q161 21 123 61.5Q85 102 69.5 168Q54 234 54 331Q54 443 71.5 516.5Q89 590 128.5 633Q168 676 231 693Q294 710 386 710Q451 710 497 702.5Q543 695 575.5 680Q608 665 630 643Q652 621 670 592L543 512Q531 531 520.5 544.5Q510 558 493 567Q476 576 449.5 580Q423 584 379 584Q329 584 297 576.5Q265 569 246 544.5Q227 520 219.5 472.5Q212 425 212 346Q212 270 220 224Q228 178 247 153Q266 128 297.5 120Q329 112 375 112Q411 112 436.5 116Q462 120 481.5 129Q501 138 516 152Q531 166 548 187Z" glyph-name="C" horiz-adv-x="691" unicode="C" /><glyph d="M80 698 316 698Q435 698 509 674Q583 650 624.5 605Q666 560 680.5 495Q695 430 695 349Q695 268 680.5 203Q666 138 624.5 93Q583 48 509 24Q435 0 316 0H80ZM316 126Q388 126 431.5 138.5Q475 151 498.5 178Q522 205 529.5 247.5Q537 290 537 349Q537 414 528.5 457Q520 500 495.5 525.5Q471 551 428 561.5Q385 572 316 572H239V126Z" glyph-name="D" horiz-adv-x="749" unicode="D" /><glyph d="M80 698 619 698V578H236V416H539V296H236V120H619V0H80Z" glyph-name="E" horiz-adv-x="651" unicode="E" /><glyph d="M80 698 619 698V578H236V416H549V296H236V0H80Z" glyph-name="F" horiz-adv-x="639" unicode="F" /><glyph d="M388 404 702 404V349Q702 253 690.5 184Q679 115 644.5 71Q610 27 547.5 6.5Q485 -14 382 -14Q284 -14 221 6Q158 26 120.5 70Q83 114 68.5 182.5Q54 251 54 349Q54 444 68.5 512.5Q83 581 120.5 625Q158 669 221 689.5Q284 710 382 710Q452 710 500 704.5Q548 699 582 685.5Q616 672 640.5 649Q665 626 689 592L562 512Q546 532 533 546Q520 560 502 568.5Q484 577 456 581Q428 585 382 585Q329 585 296 575.5Q263 566 244.5 540Q226 514 219 468Q212 422 212 349Q212 276 219.5 229.5Q227 183 246.5 157Q266 131 299 121Q332 111 382 111Q428 111 459.5 118.5Q491 126 510 145.5Q529 165 537.5 198Q546 231 547 282H388Z" glyph-name="G" horiz-adv-x="760" unicode="G" /><glyph d="M80 698 239 698V416H540V698H699V0H540V296H239V0H80Z" glyph-name="H" horiz-adv-x="779" unicode="H" /><glyph d="M82 698 238 698V0H82Z" glyph-name="I" horiz-adv-x="320" unicode="I" /><glyph d="M137 205Q147 187 158 171Q169 155 184 142.5Q199 130 219 122.5Q239 115 265 115Q294 115 316 120.5Q338 126 353 140.5Q368 155 376 179.5Q384 204 384 242V698H542V264Q542 191 528.5 138.5Q515 86 483 52Q451 18 398.5 2Q346 -14 268 -14Q214 -14 173 -4Q132 6 101 24Q70 42 47.5 67.5Q25 93 10 125Z" glyph-name="J" horiz-adv-x="622" unicode="J" /><glyph d="M80 698 236 698V406H241L511 698H705L428 418L735 0H539L323 311L236 219V0H80Z" glyph-name="K" horiz-adv-x="715" unicode="K" /><glyph d="M80 698 236 698V120H539V0H80Z" glyph-name="L" horiz-adv-x="553" unicode="L" /><glyph d="M80 698 320 698L485 232H489L641 698H882V0H730V544H728L535 0H425L228 544H226V0H80Z" glyph-name="M" horiz-adv-x="962" unicode="M" /><glyph d="M80 698 275 698L569 193H570V698H719V0H525L230 506H229V0H80Z" glyph-name="N" horiz-adv-x="799" unicode="N" /><glyph d="M382 -14Q286 -14 222.5 6.5Q159 27 121.5 71Q84 115 69 184Q54 253 54 349Q54 445 69 513.5Q84 582 121.5 625.5Q159 669 222.5 689.5Q286 710 382 710Q478 710 541.5 689.5Q605 669 642.5 625.5Q680 582 695 513.5Q710 445 710 349Q710 253 695 184Q680 115 642.5 71Q605 27 541.5 6.5Q478 -14 382 -14ZM382 111Q430 111 462.5 119Q495 127 515 152.5Q535 178 543.5 225Q552 272 552 349Q552 428 543.5 474.5Q535 521 515.5 545.5Q496 570 463 577.5Q430 585 382 585Q334 585 301 577.5Q268 570 248.5 545.5Q229 521 220.5 474.5Q212 428 212 349Q212 272 220.5 225Q229 178 249 152.5Q269 127 301.5 119Q334 111 382 111Z" glyph-name="O" horiz-adv-x="764" unicode="O" /><glyph d="M80 698 439 698Q491 698 533 686.5Q575 675 604 648Q633 621 649 577.5Q665 534 665 470Q665 402 644 356Q623 310 587 281.5Q551 253 502.5 240.5Q454 228 399 228H236V0H80ZM406 351Q454 351 480 381Q506 411 506 470Q506 502 500.5 523Q495 544 482 556Q469 568 447.5 573Q426 578 394 578H236V351Z" glyph-name="P" horiz-adv-x="707" unicode="P" /><glyph d="M538 11Q506 -1 467.5 -7.5Q429 -14 382 -14Q286 -14 222.5 6.5Q159 27 121.5 71Q84 115 69 184Q54 253 54 349Q54 445 69 513.5Q84 582 121.5 625.5Q159 669 222.5 689.5Q286 710 382 710Q478 710 541.5 689.5Q605 669 642.5 625.5Q680 582 695 513.5Q710 445 710 349Q710 255 690.5 185.5Q671 116 627 70L704 -14H562ZM348 220 490 220L529 177Q541 204 546.5 245.5Q552 287 552 349Q552 428 543.5 474.5Q535 521 515.5 545.5Q496 570 463 577.5Q430 585 382 585Q334 585 301 577.5Q268 570 248.5 545.5Q229 521 220.5 474.5Q212 428 212 349Q212 272 220.5 225Q229 178 249 152.5Q269 127 301.5 119Q334 111 382 111Q399 111 414.5 112Q430 113 444 115Z" glyph-name="Q" horiz-adv-x="764" unicode="Q" /><glyph d="M80 698 430 698Q495 698 540 686Q585 674 612.5 648.5Q640 623 652.5 582.5Q665 542 665 485Q665 438 652 404.5Q639 371 617 348Q595 325 566.5 310.5Q538 296 507 287L688 0H498L342 265H236V0H80ZM378 384Q449 384 476 409Q503 434 503 485Q503 537 481.5 557.5Q460 578 404 578H236V384Z" glyph-name="R" horiz-adv-x="722" unicode="R" /><glyph d="M143 212Q159 188 176.5 169Q194 150 215.5 137Q237 124 265 117.5Q293 111 330 111Q355 111 381.5 115.5Q408 120 429 131Q450 142 463.5 160.5Q477 179 477 208Q477 232 467.5 247.5Q458 263 443 272Q428 281 409 285Q390 289 371 291L256 304Q210 309 171 321.5Q132 334 103.5 356.5Q75 379 59 413Q43 447 43 496Q43 597 113.5 653.5Q184 710 331 710Q411 710 479.5 688Q548 666 607 601L482 522Q443 561 407 573Q371 585 324 585Q262 585 230.5 567.5Q199 550 199 508Q199 480 218.5 461.5Q238 443 298 437L417 425Q523 414 578.5 365Q634 316 634 222Q634 159 609.5 114.5Q585 70 542.5 41.5Q500 13 443 -0.5Q386 -14 320 -14Q219 -14 147.5 18Q76 50 21 118Z" glyph-name="S" horiz-adv-x="654" unicode="S" /><glyph d="M227 578 14 578V698H596V578H383V0H227Z" glyph-name="T" horiz-adv-x="610" unicode="T" /><glyph d="M80 698 238 698V271Q238 225 244.5 195Q251 165 267.5 147Q284 129 312.5 122Q341 115 384 115Q427 115 455.5 122Q484 129 500.5 147Q517 165 523.5 195Q530 225 530 271V698H688V263Q688 186 668.5 133Q649 80 610.5 47.5Q572 15 515.5 0.5Q459 -14 384 -14Q309 -14 252.5 0.5Q196 15 157.5 47.5Q119 80 99.5 133Q80 186 80 263Z" glyph-name="U" horiz-adv-x="774" unicode="U" /><glyph d="M6 698 184 698L355 171H357L536 698H709L442 0H267Z" glyph-name="V" horiz-adv-x="715" unicode="V" /><glyph d="M16 698 185 698L315 172H317L450 698H619L745 173H747L885 698H1049L832 0H657L532 514H530L402 0H227Z" glyph-name="W" horiz-adv-x="1065" unicode="W" /><glyph d="M280 355 12 698H196L371 470L545 698H730L463 355L740 0H555L371 240L186 0H2Z" glyph-name="X" horiz-adv-x="742" unicode="X" /><glyph d="M240 265 2 698H170L321 405L468 698H636L398 265V0H240Z" glyph-name="Y" horiz-adv-x="638" unicode="Y" /><glyph d="M36 95 388 578H46V698H590V603L238 120H596V0H36Z" glyph-name="Z" horiz-adv-x="632" unicode="Z" /><glyph d="M103 772 360 772V687H233V-119H360V-204H103Z" glyph-name="bracketleft" horiz-adv-x="390" unicode="[" /><glyph d="M0 710 112 710L461 -12H348Z" glyph-name="backslash" horiz-adv-x="461" unicode="\" /><glyph d="M30 -119 157 -119V687H30V772H287V-204H30Z" glyph-name="bracketright" horiz-adv-x="390" unicode="]" /><glyph d="M144 728 313 728L466 498H339L228 658L118 498H-10Z" glyph-name="asciicircum" horiz-adv-x="456" unicode="^" /><glyph d="M0 -63 468 -63V-179H0Z" glyph-name="underscore" horiz-adv-x="468" unicode="_" /><glyph d="M27 710 203 710L267 590H116Z" glyph-name="grave" horiz-adv-x="360" unicode="`" /><glyph d="M407 37Q390 24 374.5 14.5Q359 5 340.5 -1.5Q322 -8 299 -11Q276 -14 245 -14Q198 -14 160 -6.5Q122 1 94 19.5Q66 38 51 69.5Q36 101 36 148Q36 197 52.5 230.5Q69 264 100 284Q131 304 175.5 312.5Q220 321 275 321H368V350Q368 364 364.5 377Q361 390 352 400Q343 410 326 416Q309 422 282 422Q244 422 214.5 408.5Q185 395 157 367L54 443Q73 464 95 481.5Q117 499 146.5 511.5Q176 524 213.5 531Q251 538 300 538Q364 538 406.5 525Q449 512 474 487Q499 462 509.5 426Q520 390 520 344V177Q520 152 526 131.5Q532 111 558 103L515 -12Q470 -8 446.5 5.5Q423 19 409 37ZM368 222 269 222Q224 222 207.5 204Q191 186 191 156Q191 115 214 103Q237 91 279 91Q324 91 346 105Q368 119 368 151Z" glyph-name="a" horiz-adv-x="586" unicode="a" /><glyph d="M68 728 218 728V473H220Q230 484 243.5 495.5Q257 507 275.5 516.5Q294 526 318.5 532Q343 538 376 538Q424 538 465.5 523.5Q507 509 537.5 476Q568 443 585.5 390.5Q603 338 603 262Q603 125 542 55.5Q481 -14 371 -14Q254 -14 205 61H203L194 0H68ZM334 108Q365 108 387.5 114.5Q410 121 424.5 138Q439 155 446 185Q453 215 453 262Q453 347 425.5 381Q398 415 333 415Q267 415 240 378Q213 341 213 263Q213 185 239 146.5Q265 108 334 108Z" glyph-name="b" horiz-adv-x="652" unicode="b" /><glyph d="M560 94Q537 61 511 40Q485 19 454.5 7Q424 -5 388 -9.5Q352 -14 307 -14Q240 -14 191.5 5.5Q143 25 111.5 61.5Q80 98 64.5 149.5Q49 201 49 264Q49 398 120.5 468Q192 538 325 538Q420 538 472 511.5Q524 485 548 440L434 358Q415 389 390 404Q365 419 319 419Q254 419 229 382.5Q204 346 204 264Q204 183 231.5 146Q259 109 326 109Q350 109 368 113.5Q386 118 399 126.5Q412 135 421.5 145.5Q431 156 439 168Z" glyph-name="c" horiz-adv-x="569" unicode="c" /><glyph d="M439 61 438 61Q424 39 408.5 24.5Q393 10 374 1.5Q355 -7 332.5 -10.5Q310 -14 282 -14Q220 -14 175.5 1.5Q131 17 103 50Q75 83 62 134Q49 185 49 255Q49 320 61 372.5Q73 425 100 461.5Q127 498 171 518Q215 538 280 538Q317 538 342.5 532Q368 526 385 516.5Q402 507 413 495.5Q424 484 432 473H434V728H584V0H439ZM313 106Q349 106 373.5 115.5Q398 125 412.5 144.5Q427 164 433 192.5Q439 221 439 259Q439 340 411.5 378.5Q384 417 315 417Q251 417 225 381.5Q199 346 199 262Q199 216 206 186Q213 156 227 138Q241 120 262.5 113Q284 106 313 106Z" glyph-name="d" horiz-adv-x="652" unicode="d" /><glyph d="M555 91Q524 45 469.5 16Q415 -13 319 -13Q240 -13 188 7.5Q136 28 105 64Q74 100 61.5 149.5Q49 199 49 256Q49 389 115.5 463.5Q182 538 319 538Q387 538 435 518.5Q483 499 513 464Q543 429 557 379.5Q571 330 571 269V216H204Q205 191 211.5 170.5Q218 150 232 135Q246 120 268.5 112Q291 104 325 104Q367 104 393 117Q419 130 445 162ZM416 322Q416 425 314 425Q264 425 236.5 399Q209 373 207 322Z" glyph-name="e" horiz-adv-x="620" unicode="e" /><glyph d="M94 416 14 416V523H94V572Q94 619 107.5 650.5Q121 682 145.5 701.5Q170 721 205.5 729.5Q241 738 286 738Q310 738 329.5 735.5Q349 733 363 729V629Q351 633 331.5 635.5Q312 638 299 638Q272 638 256 625.5Q240 613 240 581V523H351V416H244V0H94Z" glyph-name="f" horiz-adv-x="361" unicode="f" /><glyph d="M367 115Q411 115 449 108.5Q487 102 515 85Q543 68 559 39.5Q575 11 575 -32Q575 -92 548.5 -128.5Q522 -165 480.5 -184.5Q439 -204 388 -210Q337 -216 289 -216Q268 -216 240.5 -215Q213 -214 184.5 -210Q156 -206 128.5 -197.5Q101 -189 79 -173.5Q57 -158 44 -134.5Q31 -111 31 -76Q31 -34 52.5 -6.5Q74 21 110 39Q90 51 73 71.5Q56 92 56 131Q56 163 71.5 189Q87 215 111 227Q87 246 71 275.5Q55 305 55 350Q55 406 75.5 442.5Q96 479 129.5 500Q163 521 205 529.5Q247 538 291 538Q335 538 357.5 533.5Q380 529 400 524Q411 572 441.5 595Q472 618 528 618H587L566 514H528Q511 514 502 506.5Q493 499 489 488Q515 469 525 437.5Q535 406 535 358Q535 300 515 265Q495 230 462 211.5Q429 193 385.5 186.5Q342 180 295 180H236Q198 180 184 172Q170 164 170 146Q170 131 179.5 123Q189 115 221 115ZM198 355Q198 339 202 325Q206 311 216.5 300.5Q227 290 246 284Q265 278 295 278Q325 278 344 284Q363 290 373.5 300.5Q384 311 388 325Q392 339 392 355Q392 370 388 384.5Q384 399 373.5 410Q363 421 344 427.5Q325 434 295 434Q265 434 246 427.5Q227 421 216.5 410Q206 399 202 384.5Q198 370 198 355ZM266 -8Q212 -8 189 -22.5Q166 -37 166 -64Q166 -93 193 -106Q220 -119 288 -119Q354 -119 395.5 -106Q437 -93 437 -60Q437 -37 415 -22.5Q393 -8 349 -8Z" glyph-name="g" horiz-adv-x="592" unicode="g" /><glyph d="M68 728 219 728V598Q219 561 218.5 526Q218 491 216 460H218Q222 480 236.5 494.5Q251 509 272 519Q293 529 319.5 533.5Q346 538 375 538Q426 538 460.5 525.5Q495 513 516.5 491.5Q538 470 547 441Q556 412 556 380V0H405V298Q405 327 403 349.5Q401 372 392.5 387Q384 402 366.5 410Q349 418 318 418Q288 418 269 412Q250 406 238.5 393Q227 380 223 359Q219 338 219 307V0H68Z" glyph-name="h" horiz-adv-x="620" unicode="h" /><glyph d="M70 720 220 720V590H70ZM70 523 220 523V0H70Z" glyph-name="i" horiz-adv-x="290" unicode="i" /><glyph d="M70 720 220 720V590H70ZM-22 -89Q-13 -92 -3 -94Q7 -96 18 -96Q46 -96 58 -89Q70 -82 70 -55V523H220V-32Q220 -79 211.5 -113.5Q203 -148 183.5 -170.5Q164 -193 132.5 -204.5Q101 -216 54 -216Q40 -216 17.5 -215Q-5 -214 -22 -209Z" glyph-name="j" horiz-adv-x="288" unicode="j" /><glyph d="M68 728 216 728V310L392 523H558L380 322L592 0H420L280 223L216 149V0H68Z" glyph-name="k" horiz-adv-x="576" unicode="k" /><glyph d="M70 728 220 728V0H70Z" glyph-name="l" horiz-adv-x="290" unicode="l" /><glyph d="M68 523 216 523V460H218Q222 480 236 494.5Q250 509 271 519Q292 529 318 533.5Q344 538 373 538Q443 538 482.5 515.5Q522 493 539 456Q546 476 562.5 491Q579 506 602 516.5Q625 527 653 532.5Q681 538 710 538Q761 538 796 525.5Q831 513 852 491.5Q873 470 882.5 441Q892 412 892 380V0H742V298Q742 327 740.5 349.5Q739 372 731 387Q723 402 705 410Q687 418 654 418Q622 418 602.5 412.5Q583 407 572.5 397Q562 387 558.5 373.5Q555 360 555 344V0H405V298Q405 327 403.5 349.5Q402 372 394 387Q386 402 368 410Q350 418 317 418Q285 418 265.5 412.5Q246 407 235.5 394.5Q225 382 221.5 360.5Q218 339 218 307V0H68Z" glyph-name="m" horiz-adv-x="956" unicode="m" /><glyph d="M68 523 216 523V460H218Q222 480 236.5 494.5Q251 509 273 519Q295 529 322 533.5Q349 538 378 538Q429 538 463 525.5Q497 513 518 491.5Q539 470 547.5 441Q556 412 556 380V0H405V298Q405 335 401 358.5Q397 382 387.5 395.5Q378 409 360.5 413.5Q343 418 316 418Q286 418 267 412.5Q248 407 237.5 394.5Q227 382 223 360.5Q219 339 219 307V0H68Z" glyph-name="n" horiz-adv-x="620" unicode="n" /><glyph d="M323 -14Q249 -14 197 5.5Q145 25 112 61Q79 97 64 148Q49 199 49 263Q49 328 64.5 379Q80 430 113 465.5Q146 501 198 519.5Q250 538 323 538Q396 538 448 519.5Q500 501 533 465.5Q566 430 581.5 379Q597 328 597 263Q597 199 581.5 148Q566 97 533 61Q500 25 448 5.5Q396 -14 323 -14ZM323 107Q390 107 416.5 143Q443 179 443 263Q443 345 417 382Q391 419 323 419Q255 419 229 382Q203 345 203 263Q203 221 209 191.5Q215 162 229 143Q243 124 266 115.5Q289 107 323 107Z" glyph-name="o" horiz-adv-x="646" unicode="o" /><glyph d="M68 523 218 523V469H219Q240 495 280 516.5Q320 538 389 538Q498 538 551.5 472.5Q605 407 605 271Q605 208 592.5 156Q580 104 551 66Q522 28 475 7Q428 -14 358 -14Q329 -14 308 -10.5Q287 -7 271 -1Q255 5 243 12.5Q231 20 220 29H218V-216H68ZM336 106Q365 106 386.5 114Q408 122 422.5 141Q437 160 444 191.5Q451 223 451 271Q451 305 446.5 333Q442 361 429.5 380Q417 399 394.5 409.5Q372 420 337 420Q301 420 277.5 409.5Q254 399 240 379Q226 359 220.5 330Q215 301 215 264Q215 182 242.5 144Q270 106 336 106Z" glyph-name="p" horiz-adv-x="654" unicode="p" /><glyph d="M439 57 438 57Q416 25 374 5.5Q332 -14 271 -14Q205 -14 162 6Q119 26 94 62Q69 98 59 149Q49 200 49 262Q49 322 60.5 373Q72 424 98 460.5Q124 497 167.5 517.5Q211 538 276 538Q309 538 332 534.5Q355 531 374 523.5Q393 516 408.5 502.5Q424 489 442 470H444V523H589V-202H439ZM318 106Q356 106 379.5 117.5Q403 129 416.5 149.5Q430 170 434.5 199Q439 228 439 263Q439 297 433.5 325.5Q428 354 414.5 374Q401 394 377 405.5Q353 417 317 417Q279 417 255.5 406.5Q232 396 219.5 375.5Q207 355 203 326.5Q199 298 199 262Q199 224 203 195Q207 166 219.5 146Q232 126 255.5 116Q279 106 318 106Z" glyph-name="q" horiz-adv-x="655" unicode="q" /><glyph d="M68 523 215 523V430H216Q226 452 239 471.5Q252 491 273 505Q294 519 325.5 527Q357 535 403 535V387Q392 389 378.5 391Q365 393 349 393Q297 393 265 367Q233 341 218 306V0H68Z" glyph-name="r" horiz-adv-x="420" unicode="r" /><glyph d="M141 171Q153 156 165.5 143.5Q178 131 194.5 122Q211 113 233.5 108Q256 103 288 103Q334 103 353 116Q372 129 372 153Q372 165 367 173Q362 181 349.5 187Q337 193 316 198Q295 203 263 208Q213 215 172.5 224Q132 233 103 249.5Q74 266 58 293Q42 320 42 364Q42 448 101 493Q160 538 274 538Q343 538 397 517.5Q451 497 499 443L384 368Q370 391 339.5 408Q309 425 270 425Q238 425 215 413Q192 401 192 378Q192 363 203 353.5Q214 344 232 338Q250 332 273 328.5Q296 325 320 322Q361 317 398 309.5Q435 302 462.5 287Q490 272 506 245Q522 218 522 174Q522 122 500 86Q478 50 442.5 28Q407 6 361 -4Q315 -14 267 -14Q105 -14 18 95Z" glyph-name="s" horiz-adv-x="544" unicode="s" /><glyph d="M94 416 14 416V523H94V672H244V523H353V416H244V150Q244 118 257.5 107.5Q271 97 302 97Q319 97 332.5 99Q346 101 357 103V0Q345 -4 313.5 -8Q282 -12 248 -12Q203 -12 173.5 -2.5Q144 7 126.5 25Q109 43 101.5 69.5Q94 96 94 130Z" glyph-name="t" horiz-adv-x="371" unicode="t" /><glyph d="M64 523 215 523V224Q215 182 220 158Q225 134 236.5 122Q248 110 265.5 107Q283 104 307 104Q333 104 351 108Q369 112 380 124Q391 136 396 158Q401 180 401 215V523H552V0H404V63H402Q398 43 383 28.5Q368 14 346.5 4.5Q325 -5 298 -9.5Q271 -14 242 -14Q191 -14 157 -1.5Q123 11 102 33Q81 55 72.5 84Q64 113 64 145Z" glyph-name="u" horiz-adv-x="620" unicode="u" /><glyph d="M6 523 172 523L288 146H294L409 523H566L378 0H200Z" glyph-name="v" horiz-adv-x="572" unicode="v" /><glyph d="M20 523 178 523L259 177H260L363 523H489L595 176H597L673 523H823L665 0H526L424 339H422L322 0H184Z" glyph-name="w" horiz-adv-x="843" unicode="w" /><glyph d="M207 268 12 523H186L294 382L402 523H576L381 268L586 0H412L294 154L176 0H2Z" glyph-name="x" horiz-adv-x="588" unicode="x" /><glyph d="M219 21 10 523H174L295 186L417 523H571L358 1L274 -216H113Z" glyph-name="y" horiz-adv-x="580" unicode="y" /><glyph d="M28 84 293 416H38V523H492V439L227 108H498V0H28Z" glyph-name="z" horiz-adv-x="526" unicode="z" /><glyph d="M135 129Q135 158 129.5 176.5Q124 195 115 206Q106 217 93.5 221Q81 225 66 225H47V353H66Q81 353 93.5 357Q106 361 115 372Q124 383 129.5 401.5Q135 420 135 449V570Q135 627 145 666Q155 705 176.5 728.5Q198 752 233.5 762Q269 772 320 772H360V687H350Q308 687 287.5 664Q267 641 267 602V441Q267 382 241.5 345Q216 308 168 291V287Q216 270 241.5 233Q267 196 267 137V-34Q267 -73 287.5 -96Q308 -119 350 -119H360V-204H320Q269 -204 233.5 -194Q198 -184 176.5 -160.5Q155 -137 145 -98Q135 -59 135 -2Z" glyph-name="braceleft" horiz-adv-x="390" unicode="{" /><glyph d="M110 710 220 710V-215H110Z" glyph-name="bar" horiz-adv-x="330" unicode="|" /><glyph d="M30 -119 40 -119Q82 -119 102.5 -96Q123 -73 123 -34V137Q123 196 148.5 233Q174 270 222 287V291Q174 308 148.5 345Q123 382 123 441V602Q123 641 102.5 664Q82 687 40 687H30V772H70Q121 772 156.5 762Q192 752 213.5 728.5Q235 705 245 666Q255 627 255 570V449Q255 420 260.5 401.5Q266 383 275 372Q284 361 296.5 357Q309 353 324 353H343V225H324Q309 225 296.5 221Q284 217 275 206Q266 195 260.5 176.5Q255 158 255 129V-2Q255 -59 245 -98Q235 -137 213.5 -160.5Q192 -184 156.5 -194Q121 -204 70 -204H30Z" glyph-name="braceright" horiz-adv-x="390" unicode="}" /><glyph d="M46 239Q48 273 64 301Q80 329 104 349.5Q128 370 158 381Q188 392 217 392Q247 392 272.5 381.5Q298 371 321.5 359Q345 347 367 336.5Q389 326 412 326Q437 326 449.5 339Q462 352 466 375H574Q572 338 557 309.5Q542 281 518.5 261.5Q495 242 466 231.5Q437 221 408 221Q375 221 349 232Q323 243 300 256Q277 269 255.5 280Q234 291 211 291Q185 291 171 276.5Q157 262 154 239Z" glyph-name="asciitilde" horiz-adv-x="620" unicode="~" /><glyph d="M263 652Q251 669 245 690Q239 711 239 734Q239 765 250.5 791.5Q262 818 282 838Q302 858 328.5 869.5Q355 881 386 881Q417 881 443.5 869.5Q470 858 490 838Q510 818 521.5 791.5Q533 765 533 734Q533 686 506 648L758 0H591L537 158H226L171 0H6ZM492 288 390 587H378L272 288ZM327 734Q327 709 344 692Q361 675 386 675Q411 675 428 692Q445 709 445 734Q445 759 428 776Q411 793 386 793Q361 793 344 776Q327 759 327 734Z" glyph-name="Aring" horiz-adv-x="764" unicode="Å" /><glyph d="M243 392 40 362V505L242 475L217 698H366L341 475L543 505V362L340 392L365 -204H218Z" glyph-name="dagger" horiz-adv-x="583" unicode="†" /><glyph d="M60 528Q60 577 73.5 610Q87 643 111 662.5Q135 682 167.5 690Q200 698 238 698Q277 698 309.5 690Q342 682 365.5 662.5Q389 643 402.5 610Q416 577 416 528Q416 478 402.5 445Q389 412 365.5 392.5Q342 373 309.5 365Q277 357 238 357Q200 357 167.5 365Q135 373 111 392.5Q87 412 73.5 445Q60 478 60 528ZM238 439Q280 439 297 458Q314 477 314 528Q314 579 297 597.5Q280 616 238 616Q196 616 179 597.5Q162 579 162 528Q162 477 179 458Q196 439 238 439Z" glyph-name="degree" horiz-adv-x="476" unicode="°" /><glyph d="M230 -2Q179 10 144 34.5Q109 59 87 93.5Q65 128 55.5 172Q46 216 46 266Q46 400 118.5 469Q191 538 331 538H342L361 629H434L414 534Q469 526 503.5 505Q538 484 565 440L441 351Q433 374 421 388.5Q409 403 389 411L326 109H343Q367 109 382 112Q397 115 408 121.5Q419 128 429.5 138.5Q440 149 456 164L577 90Q545 56 518.5 35.5Q492 15 463.5 4.5Q435 -6 402 -9Q369 -12 324 -12Q318 -12 312 -12Q306 -12 301 -11L275 -133H203ZM318 419Q258 416 229.5 380Q201 344 201 266Q201 211 213 176.5Q225 142 257 125Z" glyph-name="cent" horiz-adv-x="596" unicode="¢" /><glyph d="M39 120Q62 129 81.5 138Q101 147 115 160.5Q129 174 137 194Q145 214 145 245V300H39V412H145V491Q145 555 163 597Q181 639 212.5 664Q244 689 288 699.5Q332 710 383 710Q428 710 461.5 702.5Q495 695 519.5 681.5Q544 668 560.5 649.5Q577 631 589 608L472 542Q458 569 438 585Q418 601 381 601Q296 601 296 507V412H503V300H296V284Q296 245 293 219Q290 193 280.5 175Q271 157 253 144.5Q235 132 206 120H593V0H39Z" glyph-name="sterling" horiz-adv-x="620" unicode="£" /><glyph d="M152 -31Q161 -43 173.5 -55Q186 -67 204.5 -77Q223 -87 248 -93Q273 -99 305 -99Q351 -99 382 -85Q413 -71 413 -42Q413 -32 408 -23.5Q403 -15 389.5 -7Q376 1 353.5 10.5Q331 20 297 32L162 79Q132 89 104.5 103Q77 117 57 136Q37 155 25 180Q13 205 13 239Q13 299 49 341Q85 383 144 397Q108 418 81 451.5Q54 485 54 538Q54 613 118 661.5Q182 710 311 710Q342 710 373 706Q404 702 434 692Q464 682 493.5 664Q523 646 550 618L425 541Q410 564 377.5 581Q345 598 294 598Q253 598 228 585Q203 572 203 543Q203 529 209.5 519.5Q216 510 230 501.5Q244 493 266.5 484.5Q289 476 321 465L412 433Q447 421 480.5 405Q514 389 540.5 367.5Q567 346 583 317.5Q599 289 599 251Q599 194 565.5 155Q532 116 481 102Q512 81 537.5 46Q563 11 563 -41Q563 -82 545 -114Q527 -146 493.5 -169Q460 -192 412 -204Q364 -216 304 -216Q216 -216 146.5 -189.5Q77 -163 29 -107ZM381 146Q393 149 405 155Q417 161 427.5 170.5Q438 180 444.5 194Q451 208 451 227Q451 258 427 278Q403 298 342 317L228 352Q190 341 170 322Q150 303 150 276Q150 241 181.5 219.5Q213 198 261 183Z" glyph-name="section" horiz-adv-x="599" unicode="§" /><glyph d="M100 274Q100 311 114 344.5Q128 378 153 402.5Q178 427 211 441.5Q244 456 282 456Q319 456 352.5 441.5Q386 427 410.5 402.5Q435 378 449.5 344.5Q464 311 464 274Q464 236 449.5 203Q435 170 410.5 145Q386 120 352.5 106Q319 92 282 92Q244 92 211 106Q178 120 153 145Q128 170 114 203Q100 236 100 274Z" glyph-name="bullet" horiz-adv-x="563" unicode="•" /><glyph d="M256 357Q213 357 177 366Q141 375 115 395.5Q89 416 74.5 448Q60 480 60 527Q60 619 106.5 658.5Q153 698 256 698H508V-200H426V620H338V-200H256Z" glyph-name="paragraph" horiz-adv-x="588" unicode="¶" /><glyph d="M70 495Q70 551 81.5 594.5Q93 638 123 668Q153 698 205 713.5Q257 729 338 729Q417 729 471 714.5Q525 700 557 674.5Q589 649 603 614.5Q617 580 617 540Q617 430 523 398V396Q591 374 619 328.5Q647 283 647 208Q647 92 588.5 39Q530 -14 417 -14Q366 -14 330 -5Q294 4 266 18L318 135Q338 123 360 115Q382 107 410 107Q438 107 455 115.5Q472 124 481.5 139Q491 154 494.5 174.5Q498 195 498 219Q498 240 494.5 259.5Q491 279 478.5 294Q466 309 441.5 318Q417 327 375 327H314V437H371Q402 437 422.5 444Q443 451 454 462.5Q465 474 469.5 489Q474 504 474 521Q474 568 443.5 590.5Q413 613 342 613Q305 613 281.5 606.5Q258 600 244.5 587Q231 574 225.5 553Q220 532 220 504V0H70Z" glyph-name="germandbls" horiz-adv-x="689" unicode="ß" /><glyph d="M44 348Q44 423 71 488.5Q98 554 147.5 603Q197 652 266 680.5Q335 709 419 709Q502 709 571 680.5Q640 652 689.5 603Q739 554 766 488.5Q793 423 793 348Q793 273 766 207.5Q739 142 689.5 93Q640 44 571 15.5Q502 -13 419 -13Q335 -13 266 15.5Q197 44 147.5 93Q98 142 71 207.5Q44 273 44 348ZM419 66Q482 66 533.5 88.5Q585 111 621.5 149.5Q658 188 678 239.5Q698 291 698 348Q698 405 678 456.5Q658 508 621.5 547Q585 586 533.5 608.5Q482 631 419 631Q355 631 303 608.5Q251 586 214.5 547Q178 508 158 456.5Q138 405 138 348Q138 291 158 239.5Q178 188 214.5 149.5Q251 111 303 88.5Q355 66 419 66ZM271 523 466 523Q531 523 557.5 498.5Q584 474 584 417Q584 370 560 348.5Q536 327 505 318L595 174H490L412 307H360V174H271ZM430 367Q465 367 478.5 379.5Q492 392 492 417Q492 443 482 453.5Q472 464 443 464H360V367Z" glyph-name="registered" horiz-adv-x="839" unicode="®" /><glyph d="M44 348Q44 423 71 488.5Q98 554 147.5 603Q197 652 266 680.5Q335 709 419 709Q502 709 571 680.5Q640 652 689.5 603Q739 554 766 488.5Q793 423 793 348Q793 273 766 207.5Q739 142 689.5 93Q640 44 571 15.5Q502 -13 419 -13Q335 -13 266 15.5Q197 44 147.5 93Q98 142 71 207.5Q44 273 44 348ZM419 66Q482 66 533.5 88.5Q585 111 621.5 149.5Q658 188 678 239.5Q698 291 698 348Q698 405 678 456.5Q658 508 621.5 547Q585 586 533.5 608.5Q482 631 419 631Q355 631 303 608.5Q251 586 214.5 547Q178 508 158 456.5Q138 405 138 348Q138 291 158 239.5Q178 188 214.5 149.5Q251 111 303 88.5Q355 66 419 66ZM587 238Q575 221 561.5 208Q548 195 529.5 186.5Q511 178 486 173.5Q461 169 426 169Q377 169 343 177.5Q309 186 287.5 207Q266 228 256.5 262.5Q247 297 247 349Q247 400 256.5 434.5Q266 469 287.5 490Q309 511 343 520Q377 529 426 529Q461 529 486.5 524.5Q512 520 530 511Q548 502 561 489Q574 476 584 460L511 420Q505 431 499.5 439.5Q494 448 485.5 453.5Q477 459 463 462Q449 465 426 465Q400 465 384.5 461.5Q369 458 360 446Q351 434 348 411Q345 388 345 349Q345 311 348.5 288Q352 265 361.5 253Q371 241 387 237Q403 233 428 233Q468 233 485.5 245.5Q503 258 514 277Z" glyph-name="copyright" horiz-adv-x="839" unicode="©" /><glyph d="M447 698 571 698L670 474L762 698H883V321H785V552L692 321H642L540 568V321H447ZM167 619 30 619V698H404V619H267V321H167Z" glyph-name="trademark" horiz-adv-x="942" unicode="™" /><glyph d="M168 710 344 710L255 590H104Z" glyph-name="acute" horiz-adv-x="360" unicode="´" /><glyph d="M220 710 350 710V590H220ZM10 710 140 710V590H10Z" glyph-name="dieresis" horiz-adv-x="360" unicode="¨" /><glyph d="M150 136 66 136V252H218L279 356H66V472H347L411 581H534L470 472H554V356H402L341 252H554V136H273L209 26H86Z" glyph-name="notequal" horiz-adv-x="620" unicode="≠" /><glyph d="M346 698 937 698V578H634V428H857V308H634V120H937V0H478V156H236L161 0H-12ZM478 293 478 578H441L303 293Z" glyph-name="AE" horiz-adv-x="969" unicode="Æ" /><glyph d="M382 -14Q286 -14 222.5 6.5Q159 27 121.5 71Q84 115 69 184Q54 253 54 349Q54 445 69 513.5Q84 582 121.5 625.5Q159 669 222.5 689.5Q286 710 382 710Q478 710 541.5 689.5Q605 669 642.5 625.5Q680 582 695 513.5Q710 445 710 349Q710 253 695 184Q680 115 642.5 71Q605 27 541.5 6.5Q478 -14 382 -14ZM517 551Q497 575 464 582.5Q431 590 382 590Q332 590 299 582.5Q266 575 246 550Q226 525 217.5 477Q209 429 209 349Q209 320 210 296Q211 272 213 252ZM252 143Q272 120 304 113Q336 106 382 106Q431 106 464 114.5Q497 123 517 149Q537 175 546 222.5Q555 270 555 349Q555 376 554 399Q553 422 551 442Z" glyph-name="Oslash" horiz-adv-x="764" unicode="Ø" /><glyph d="M263 300Q249 316 230 330Q211 344 194 344Q177 344 167 329.5Q157 315 157 301Q157 287 166.5 272Q176 257 193 257Q210 257 229.5 271.5Q249 286 263 300ZM311 243Q287 217 256.5 197.5Q226 178 187 178Q161 178 139 187.5Q117 197 100.5 213.5Q84 230 75 252Q66 274 66 300Q66 325 75 347.5Q84 370 100 386.5Q116 403 139 412.5Q162 422 190 422Q232 422 260.5 402.5Q289 383 311 357Q333 383 361.5 402.5Q390 422 432 422Q460 422 483 412.5Q506 403 522 386.5Q538 370 547 347.5Q556 325 556 300Q556 274 547 252Q538 230 521.5 213.5Q505 197 483 187.5Q461 178 435 178Q396 178 365.5 197.5Q335 217 311 243ZM359 300Q373 286 392.5 271.5Q412 257 429 257Q446 257 455.5 272Q465 287 465 301Q465 315 455 329.5Q445 344 428 344Q411 344 392 330Q373 316 359 300Z" glyph-name="infinity" horiz-adv-x="620" unicode="∞" /><glyph d="M91 362 265 362V538H385V362H559V246H385V141H265V246H91ZM91 116 559 116V0H91Z" glyph-name="plusminus" horiz-adv-x="650" unicode="±" /><glyph d="M92 406 559 529V406L193 322L559 254V132L92 238ZM91 116 559 116V0H91Z" glyph-name="lessequal" horiz-adv-x="650" unicode="≤" /><glyph d="M91 254 457 322L91 406V529L559 406V238L91 132ZM91 116 559 116V0H91Z" glyph-name="greaterequal" horiz-adv-x="650" unicode="≥" /><glyph d="M67 186 231 186V262H67V378H186L33 698H191L312 425L429 698H587L433 378H553V262H389V186H553V70H389V0H231V70H67Z" glyph-name="yen" horiz-adv-x="620" unicode="¥" /><glyph d="M62 523 212 523V228Q212 199 214 176.5Q216 154 225 139Q234 124 252.5 116Q271 108 304 108Q337 108 357.5 113.5Q378 119 389 132Q400 145 404 166Q408 187 408 219V523H559V0H411V66H409Q405 46 390 31.5Q375 17 353.5 7Q332 -3 305 -7.5Q278 -12 249 -12Q239 -12 229.5 -11.5Q220 -11 212 -10V-216H62Z" glyph-name="mu" horiz-adv-x="620" unicode="µ" /><glyph d="M322 676Q373 636 423.5 591Q474 546 514 495Q554 444 579 385.5Q604 327 604 260Q604 203 589 153.5Q574 104 539.5 66.5Q505 29 448.5 7.5Q392 -14 309 -14Q178 -14 111 38.5Q44 91 44 207Q44 255 59.5 296Q75 337 105 366Q135 395 180.5 411.5Q226 428 286 428Q312 428 342.5 426.5Q373 425 404 421Q403 423 399 427.5Q395 432 390 436.5Q385 441 380.5 445Q376 449 375 451Q320 514 249.5 570Q179 626 99 676ZM449 311Q427 313 393.5 313.5Q360 314 317 314Q281 314 257 307.5Q233 301 218.5 288.5Q204 276 198.5 256.5Q193 237 193 212Q193 153 222.5 129Q252 105 327 105Q370 105 395 117.5Q420 130 433 152.5Q446 175 450 205Q454 235 454 271Q454 283 452.5 291.5Q451 300 449 311Z" glyph-name="partialdiff" horiz-adv-x="650" unicode="∂" /><glyph d="M42 -95 311 252L42 578V698H611V578H228L471 287V225L218 -95H611V-215H42Z" glyph-name="summation" horiz-adv-x="647" unicode="∑" /><glyph d="M80 698 699 698V-216H540V578H239V-216H80Z" glyph-name="product" horiz-adv-x="779" unicode="∏" /><glyph d="M94 416 14 416V523H673V416H564V150Q564 118 577.5 107.5Q591 97 622 97Q639 97 652.5 99Q666 101 677 103V0Q665 -4 633.5 -8Q602 -12 568 -12Q523 -12 493.5 -2.5Q464 7 446.5 25Q429 43 421.5 69.5Q414 96 414 130V416H244V0H94Z" glyph-name="pi" horiz-adv-x="691" unicode="π" /><glyph d="M-2 -89Q7 -92 17 -94Q27 -96 38 -96Q66 -96 78 -89Q90 -82 90 -55V562Q90 609 100 640.5Q110 672 131 691.5Q152 711 184 719.5Q216 728 261 728Q273 728 287 727.5Q301 727 314 726Q327 725 338.5 723.5Q350 722 357 720V615Q345 619 324.5 621Q304 623 291 623Q262 623 251 610.5Q240 598 240 566V-42Q240 -89 231.5 -122Q223 -155 203.5 -176Q184 -197 152.5 -206.5Q121 -216 74 -216Q60 -216 37.5 -215Q15 -214 -2 -209Z" glyph-name="integral" horiz-adv-x="357" unicode="∫" /><glyph d="M48 645Q67 668 106 683Q145 698 203 698Q245 698 273.5 692.5Q302 687 319 675Q336 663 343 643Q350 623 350 595V483Q350 473 353 457Q356 441 371 436L337 369Q313 372 301 377Q289 382 278 392Q257 377 228.5 372Q200 367 176 367Q110 367 75.5 390.5Q41 414 41 474Q41 502 53.5 520Q66 538 87 548Q108 558 136 561.5Q164 565 196 565H254V592Q254 599 253 605.5Q252 612 247 617Q242 622 231.5 625Q221 628 202 628Q185 628 173.5 626Q162 624 153 620.5Q144 617 135.5 610.5Q127 604 118 595ZM254 509 186 509Q159 509 149 498Q139 487 139 470Q139 453 149 440.5Q159 428 192 428Q223 428 238.5 435Q254 442 254 462Z" glyph-name="ordfeminine" horiz-adv-x="414" unicode="ª" /><glyph d="M36 533Q36 611 76.5 654.5Q117 698 205 698Q293 698 334 654.5Q375 611 375 533Q375 456 334.5 412Q294 368 205 368Q117 368 76.5 412Q36 456 36 533ZM205 439Q246 439 261.5 460.5Q277 482 277 533Q277 582 261.5 604Q246 626 205 626Q164 626 148.5 604Q133 582 133 533Q133 482 148.5 460.5Q164 439 205 439Z" glyph-name="ordmasculine" horiz-adv-x="410" unicode="º" /><glyph d="M69 110 176 110V118Q148 130 125.5 149Q103 168 87 198.5Q71 229 62 274Q53 319 53 384Q53 461 69 521.5Q85 582 122.5 624Q160 666 223 688Q286 710 381 710Q475 710 538.5 688Q602 666 639.5 624Q677 582 693 521.5Q709 461 709 384Q709 319 700 274Q691 229 675 198.5Q659 168 636.5 149Q614 130 586 118V110H693V0H447V113Q471 126 490.5 141.5Q510 157 523.5 183Q537 209 544 249Q551 289 551 349Q551 421 543 467Q535 513 515.5 539.5Q496 566 463 576Q430 586 381 586Q331 586 298.5 576Q266 566 246.5 539.5Q227 513 219 467Q211 421 211 349Q211 289 218 249Q225 209 238.5 183Q252 157 271.5 141.5Q291 126 315 113V0H69Z" glyph-name="Omega" horiz-adv-x="764" unicode="Ω" /><glyph d="M422 64Q411 52 396.5 38Q382 24 361.5 12.5Q341 1 312.5 -6.5Q284 -14 245 -14Q198 -14 160 -6.5Q122 1 94 19.5Q66 38 51 69.5Q36 101 36 148Q36 197 52.5 230.5Q69 264 100 284Q131 304 175.5 312.5Q220 321 275 321H370V350Q370 364 366.5 377Q363 390 353 400Q343 410 326 416Q309 422 282 422Q244 422 214.5 408.5Q185 395 157 367L54 443Q73 464 95 481.5Q117 499 146.5 511.5Q176 524 213.5 531Q251 538 300 538Q364 538 404 526.5Q444 515 467 492Q530 538 634 538Q702 538 750 518.5Q798 499 828 464Q858 429 872 379.5Q886 330 886 269V216H517Q518 191 525 170.5Q532 150 546 135Q560 120 583 112Q606 104 640 104Q682 104 708 117Q734 130 760 162L870 91Q839 45 784.5 16Q730 -13 634 -13Q555 -13 504.5 7.5Q454 28 425 64ZM370 222 269 222Q224 222 207.5 204Q191 186 191 156Q191 115 214 103Q237 91 279 91Q370 91 370 153ZM731 322Q731 425 629 425Q579 425 550.5 399Q522 373 520 322Z" glyph-name="ae" horiz-adv-x="935" unicode="æ" /><glyph d="M323 -14Q249 -14 197 5.5Q145 25 112 61Q79 97 64 148Q49 199 49 263Q49 328 64.5 379Q80 430 113 465.5Q146 501 198 519.5Q250 538 323 538Q396 538 448 519.5Q500 501 533 465.5Q566 430 581.5 379Q597 328 597 263Q597 199 581.5 148Q566 97 533 61Q500 25 448 5.5Q396 -14 323 -14ZM242 125Q269 105 323 105Q358 105 381.5 113.5Q405 122 419.5 141Q434 160 440.5 190Q447 220 447 263Q447 297 443 320ZM402 401Q373 421 323 421Q253 421 226 384Q199 347 199 263Q199 231 202 207Z" glyph-name="oslash" horiz-adv-x="646" unicode="ø" /><glyph d="M771 748Q771 796 784.5 829.5Q798 863 818 887Q838 911 861 928.5Q884 946 904 962Q924 978 937.5 996.5Q951 1015 951 1041Q951 1078 923.5 1093.5Q896 1109 859 1109Q818 1109 785 1092Q752 1075 730 1040L605 1101Q619 1128 640.5 1151.5Q662 1175 693 1193Q724 1211 767 1221.5Q810 1232 868 1232Q916 1232 960 1223Q1004 1214 1037.5 1193Q1071 1172 1090.5 1136.5Q1110 1101 1110 1047Q1110 1001 1096 969Q1082 937 1061 914Q1040 891 1016 874Q992 857 971 840.5Q950 824 936 805.5Q922 787 922 760V737H771ZM765 682 925 682V522H765Z" glyph-name="questiondown" horiz-adv-x="573" unicode="¿" /><glyph d="M56 1221 233 1221L196 741H93ZM64 683 224 683V523H64Z" glyph-name="exclamdown" horiz-adv-x="288" unicode="¡" /><glyph d="M66 362 554 362V40H436V246H66Z" glyph-name="logicalnot" horiz-adv-x="620" unicode="¬" /><glyph d="M10 523 176 523L296 152L475 698H633L372 0H214Z" glyph-name="radical" horiz-adv-x="632" unicode="√" /><glyph d="M-2 -89Q7 -92 17 -94Q27 -96 38 -96Q66 -96 78 -89Q90 -82 90 -55V431H10V523H90V562Q90 609 100 640.5Q110 672 131 691.5Q152 711 184 719.5Q216 728 261 728Q273 728 287 727.5Q301 727 314 726Q327 725 338.5 723.5Q350 722 357 720V615Q345 619 324.5 621Q304 623 291 623Q262 623 251 610.5Q240 598 240 566V523H347V431H240V-42Q240 -89 231.5 -122Q223 -155 203.5 -176Q184 -197 152.5 -206.5Q121 -216 74 -216Q60 -216 37.5 -215Q15 -214 -2 -209Z" glyph-name="florin" horiz-adv-x="357" unicode="ƒ" /><glyph d="M46 349Q48 383 64 411Q80 439 104 459.5Q128 480 158 491Q188 502 217 502Q247 502 272.5 491.5Q298 481 321.5 469Q345 457 367 446.5Q389 436 412 436Q437 436 449.5 449Q462 462 466 485H574Q572 448 557 419.5Q542 391 518.5 371.5Q495 352 466 341.5Q437 331 408 331Q375 331 349 342Q323 353 300 366Q277 379 255.5 390Q234 401 211 401Q185 401 171 386.5Q157 372 154 349ZM46 129Q48 163 64 191Q80 219 104 239.5Q128 260 158 271Q188 282 217 282Q247 282 272.5 271.5Q298 261 321.5 249Q345 237 367 226.5Q389 216 412 216Q437 216 449.5 229Q462 242 466 265H574Q572 228 557 199.5Q542 171 518.5 151.5Q495 132 466 121.5Q437 111 408 111Q375 111 349 122Q323 133 300 146Q277 159 255.5 170Q234 181 211 181Q185 181 171 166.5Q157 152 154 129Z" glyph-name="approxequal" horiz-adv-x="620" unicode="≈" /><glyph d="M281 698 487 698L758 0H6ZM546 130 385 601H383L217 130Z" glyph-name="Delta" horiz-adv-x="764" unicode="∆" /><glyph d="M248 279 337 449H454L373 279L454 109H337ZM46 279 134 449H252L170 279L252 109H134Z" glyph-name="guillemotleft" horiz-adv-x="499" unicode="«" /><glyph d="M330 279 248 449H365L454 279L365 109H248ZM127 279 46 449H163L252 279L163 109H46Z" glyph-name="guillemotright" horiz-adv-x="499" unicode="»" /><glyph d="" glyph-name="nonbreakingspace" horiz-adv-x="200" unicode=" " /><glyph d="M981 120 981 0H378Q273 0 208.5 17Q144 34 109 74.5Q74 115 62 182Q50 249 50 349Q50 449 62 516Q74 583 109 623.5Q144 664 208.5 681Q273 698 378 698H981V578H628V416H901V296H628V120ZM472 120 472 578H378Q319 578 285 571.5Q251 565 234 541.5Q217 518 212.5 472.5Q208 427 208 349Q208 273 212.5 227.5Q217 182 234 158Q251 134 285 127Q319 120 378 120Z" glyph-name="OE" horiz-adv-x="1017" unicode="Œ" /><glyph d="M942 91Q911 45 856.5 16Q802 -13 706 -13Q637 -13 590.5 2.5Q544 18 514 46Q482 17 435.5 1.5Q389 -14 323 -14Q249 -14 197 5.5Q145 25 112 61Q79 97 64 148Q49 199 49 263Q49 328 64.5 379Q80 430 113 465.5Q146 501 198 519.5Q250 538 323 538Q391 538 438.5 522Q486 506 518 475Q550 506 596.5 522Q643 538 706 538Q774 538 822 518.5Q870 499 900 464Q930 429 944 379.5Q958 330 958 269V216H591Q592 191 598.5 170.5Q605 150 619 135Q633 120 655.5 112Q678 104 712 104Q754 104 780 117Q806 130 832 162ZM323 107Q390 107 416.5 143Q443 179 443 263Q443 345 417 382Q391 419 323 419Q255 419 229 382Q203 345 203 263Q203 221 209 191.5Q215 162 229 143Q243 124 266 115.5Q289 107 323 107ZM803 322Q803 425 701 425Q651 425 623.5 399Q596 373 594 322Z" glyph-name="oe" horiz-adv-x="1007" unicode="œ" /><glyph d="M45 329 455 329V215H45Z" glyph-name="endash" horiz-adv-x="500" unicode="–" /><glyph d="M45 329 955 329V215H45Z" glyph-name="emdash" horiz-adv-x="1000" unicode="—" /><glyph d="M347 698 447 698L397 425H247ZM347 698 447 698L397 425H247Z" glyph-name="quotedblleft" horiz-adv-x="494" unicode="“" /><glyph d="M307 698 457 698L357 425H257ZM307 698 457 698L357 425H257Z" glyph-name="quotedblright" horiz-adv-x="494" unicode="”" /><glyph d="M347 698 447 698L397 425H247Z" glyph-name="quoteleft" horiz-adv-x="274" unicode="‘" /><glyph d="M307 698 457 698L357 425H257Z" glyph-name="quoteright" horiz-adv-x="274" unicode="’" /><glyph d="M239 568 379 568V428H239ZM67 362 553 362V246H67ZM239 181 379 181V41H239Z" glyph-name="divide" horiz-adv-x="620" unicode="÷" /><glyph d="M30 353 300 776L571 353L300 -81ZM406 352 299 530L190 352L299 167Z" glyph-name="lozenge" horiz-adv-x="600" unicode="◊" /><glyph d="M288 265 50 698H218L369 405L516 698H684L446 265V0H288ZM380 860 510 860V740H380ZM170 860 300 860V740H170Z" glyph-name="Ydieresis" horiz-adv-x="734" unicode="Ÿ" /><glyph d="M627 710 739 710L391 -12H278Z" glyph-name="fraction" horiz-adv-x="100" unicode="⁄" /><glyph d="M133 207Q110 235 96.5 269.5Q83 304 83 343Q83 380 95 413Q107 446 128 472L55 545L83 574L156 501Q183 524 218 537.5Q253 551 292 551Q330 551 365 537.5Q400 524 427 501L500 574L528 545L455 472Q476 446 488 413Q500 380 500 343Q500 304 486.5 269.5Q473 235 450 207L528 129L500 101L421 180Q365 135 292 135Q218 135 162 180L83 101L55 129ZM292 196Q322 196 348 207.5Q374 219 393.5 239.5Q413 260 424.5 286.5Q436 313 436 343Q436 373 424.5 399.5Q413 426 393.5 446.5Q374 467 348 478.5Q322 490 292 490Q262 490 235.5 478.5Q209 467 189.5 446.5Q170 426 158.5 399.5Q147 373 147 343Q147 313 158.5 286.5Q170 260 189.5 239.5Q209 219 235.5 207.5Q262 196 292 196Z" glyph-name="currency" horiz-adv-x="583" unicode="¤" /><glyph d="M60 279 148 449H266L184 279L266 109H148Z" glyph-name="guilsinglleft" horiz-adv-x="325" unicode="‹" /><glyph d="M141 279 60 449H177L266 279L177 109H60Z" glyph-name="guilsinglright" horiz-adv-x="325" unicode="›" /><glyph d="M242 19 40 -11V132L243 102V392L40 362V505L242 475L217 698H366L341 475L543 505V362L340 392V102L543 132V-11L341 19L366 -204H217Z" glyph-name="daggerdbl" horiz-adv-x="583" unicode="‡" /><glyph d="M57 347 217 347V187H57Z" glyph-name="periodcentered" horiz-adv-x="274" unicode="·" /><glyph d="M71 160 221 160L121 -113H21Z" glyph-name="quotesinglbase" horiz-adv-x="274" unicode="‚" /><glyph d="M291 160 441 160L341 -113H241ZM291 160 441 160L341 -113H241Z" glyph-name="quotedblbase" horiz-adv-x="494" unicode="„" /><glyph d="M621 710 734 710L385 -12H273ZM238 300Q197 300 162.5 307Q128 314 103 335Q78 356 64 395Q50 434 50 499Q50 563 64 602.5Q78 642 103 663.5Q128 685 162.5 692Q197 699 238 699Q279 699 313.5 692Q348 685 373 663.5Q398 642 412 602.5Q426 563 426 499Q426 434 412 395Q398 356 373 335Q348 314 313.5 307Q279 300 238 300ZM238 389Q255 389 266.5 393Q278 397 285.5 408.5Q293 420 296.5 441.5Q300 463 300 499Q300 535 296.5 556.5Q293 578 285.5 590Q278 602 266.5 605.5Q255 609 238 609Q221 609 209.5 605.5Q198 602 190.5 590Q183 578 179.5 556.5Q176 535 176 499Q176 463 179.5 441.5Q183 420 190.5 408.5Q198 397 209.5 393Q221 389 238 389ZM762 -14Q721 -14 686.5 -7Q652 0 627 21Q602 42 588 81Q574 120 574 185Q574 249 588 288.5Q602 328 627 349.5Q652 371 686.5 378Q721 385 762 385Q803 385 837.5 378Q872 371 897 349.5Q922 328 936 288.5Q950 249 950 185Q950 120 936 81Q922 42 897 21Q872 0 837.5 -7Q803 -14 762 -14ZM762 75Q779 75 790.5 79Q802 83 809.5 94.5Q817 106 820.5 127.5Q824 149 824 185Q824 221 820.5 242.5Q817 264 809.5 276Q802 288 790.5 291.5Q779 295 762 295Q745 295 733.5 291.5Q722 288 714.5 276Q707 264 703.5 242.5Q700 221 700 185Q700 149 703.5 127.5Q707 106 714.5 94.5Q722 83 733.5 79Q745 75 762 75ZM1202 -14Q1161 -14 1126.5 -7Q1092 0 1067 21Q1042 42 1028 81Q1014 120 1014 185Q1014 249 1028 288.5Q1042 328 1067 349.5Q1092 371 1126.5 378Q1161 385 1202 385Q1243 385 1277.5 378Q1312 371 1337 349.5Q1362 328 1376 288.5Q1390 249 1390 185Q1390 120 1376 81Q1362 42 1337 21Q1312 0 1277.5 -7Q1243 -14 1202 -14ZM1202 75Q1219 75 1230.5 79Q1242 83 1249.5 94.5Q1257 106 1260.5 127.5Q1264 149 1264 185Q1264 221 1260.5 242.5Q1257 264 1249.5 276Q1242 288 1230.5 291.5Q1219 295 1202 295Q1185 295 1173.5 291.5Q1162 288 1154.5 276Q1147 264 1143.5 242.5Q1140 221 1140 185Q1140 149 1143.5 127.5Q1147 106 1154.5 94.5Q1162 83 1173.5 79Q1185 75 1202 75Z" glyph-name="perthousand" horiz-adv-x="1440" unicode="‰" /><glyph d="M41 324 119 324V328Q119 344 119 359Q119 374 121 389H41V475H132Q158 602 236.5 656Q315 710 446 710Q474 710 496.5 708Q519 706 538.5 702Q558 698 576 692.5Q594 687 613 681L570 554Q550 566 517.5 575Q485 584 437 584Q377 584 339.5 561.5Q302 539 286 475H545L516 389H275Q274 378 274 366.5Q274 355 274 342V324H494L465 238H281Q287 200 298.5 175.5Q310 151 327.5 137Q345 123 367.5 117.5Q390 112 419 112Q443 112 461 115Q479 118 494.5 124Q510 130 524.5 139Q539 148 557 160L600 33Q565 10 519 -2Q473 -14 409 -14Q341 -14 290.5 1Q240 16 205.5 46.5Q171 77 150.5 124.5Q130 172 123 238H41Z" glyph-name="Euro" horiz-adv-x="650" unicode="€" /><glyph d="M70 523 220 523V0H70Z" glyph-name="dotlessi" horiz-adv-x="290" unicode="ı" /><glyph d="M60 710 301 710L364 590H235L180 668L125 590H-4Z" glyph-name="circumflex" horiz-adv-x="360" unicode="ˆ" /><glyph d="M-2 640Q7 653 19 667Q31 681 46 692.5Q61 704 79.5 711.5Q98 719 119 719Q137 719 155.5 714Q174 709 190.5 703Q207 697 222 692Q237 687 248 687Q265 687 277 698.5Q289 710 303 728L365 682Q357 667 345.5 650.5Q334 634 318.5 620.5Q303 607 284 598.5Q265 590 242 590Q223 590 205.5 595.5Q188 601 171.5 607Q155 613 140.5 618.5Q126 624 114 624Q95 624 82 612.5Q69 601 59 585Z" glyph-name="tilde" horiz-adv-x="360" unicode="˜" /><glyph d="M10 698 350 698V590H10Z" glyph-name="macron" horiz-adv-x="360" unicode="¯" /><glyph d="M104 710Q110 690 127 678.5Q144 667 180 667Q219 667 234 678Q249 689 256 710H363Q355 648 310 619Q265 590 180 590Q95 590 50 619Q5 648 -3 710Z" glyph-name="breve" horiz-adv-x="360" unicode="˘" /><glyph d="M115 710 245 710V590H115Z" glyph-name="dotaccent" horiz-adv-x="360" unicode="˙" /><glyph d="M77 687Q77 708 85 727Q93 746 107 760Q121 774 140 782Q159 790 180 790Q201 790 220 782Q239 774 253 760Q267 746 275 727Q283 708 283 687Q283 666 275 647Q267 628 253 614Q239 600 220 592Q201 584 180 584Q159 584 140 592Q121 600 107 614Q93 628 85 647Q77 666 77 687ZM135 687Q135 667 147.5 654.5Q160 642 180 642Q199 642 212 654.5Q225 667 225 687Q225 706 212 719Q199 732 180 732Q160 732 147.5 719Q135 706 135 687Z" glyph-name="ring" horiz-adv-x="360" unicode="˚" /><glyph d="M71 710 197 710L128 590H7ZM271 710 397 710L328 590H207Z" glyph-name="hungarumlaut" horiz-adv-x="360" unicode="˝" /><glyph d="M255 -200Q235 -208 208 -212Q181 -216 158 -216Q136 -216 114.5 -212Q93 -208 76.5 -199Q60 -190 50 -175Q40 -160 40 -137Q40 -115 49.5 -94Q59 -73 73.5 -55.5Q88 -38 105 -24Q122 -10 138 0H257Q240 -12 221 -26Q202 -40 186 -55Q170 -70 159.5 -85Q149 -100 149 -114Q149 -131 162.5 -135.5Q176 -140 188 -140Q206 -140 223 -136Q240 -132 255 -128Z" glyph-name="ogonek" horiz-adv-x="360" unicode="˛" /><glyph d="M-4 710 125 710L180 632L235 710H364L301 590H60Z" glyph-name="caron" horiz-adv-x="360" unicode="ˇ" /><glyph d="M80 698 316 698Q435 698 509 674Q583 650 624.5 605Q666 560 680.5 495Q695 430 695 349Q695 268 680.5 203Q666 138 624.5 93Q583 48 509 24Q435 0 316 0H80ZM316 126Q388 126 431.5 138.5Q475 151 498.5 178Q522 205 529.5 247.5Q537 290 537 349Q537 414 528.5 457Q520 500 495.5 525.5Q471 551 428 561.5Q385 572 316 572H239V126ZM20 409 400 409V301H20Z" glyph-name="Eth" horiz-adv-x="749" unicode="Ð" /><glyph d="M310 -14Q221 -14 167.5 14Q114 42 85 90Q56 138 47 202.5Q38 267 38 341Q38 415 47 480Q56 545 84.5 593.5Q113 642 167 670Q221 698 310 698Q399 698 453 670Q507 642 535.5 593.5Q564 545 573 480Q582 415 582 341Q582 267 573 202.5Q564 138 535 90Q506 42 452.5 14Q399 -14 310 -14ZM310 109Q349 109 372.5 123Q396 137 408.5 165.5Q421 194 425 238Q429 282 429 341Q429 401 425 445Q421 489 408.5 518Q396 547 372.5 561Q349 575 310 575Q271 575 247.5 561Q224 547 211.5 518Q199 489 195 445Q191 401 191 341Q191 282 195 238Q199 194 211.5 165.5Q224 137 247.5 123Q271 109 310 109Z" glyph-name="zero.alt" horiz-adv-x="620" unicode="" /><glyph d="M70 523 220 523V0H70ZM26 708 267 708L330 588H201L146 666L91 588H-38Z" glyph-name="icircumflex" horiz-adv-x="290" unicode="î" /><glyph d="M323 -14Q249 -14 197 5.5Q145 25 112 61Q79 97 64 148Q49 199 49 263Q49 328 64.5 379Q80 430 113 465.5Q146 501 198 519.5Q250 538 323 538Q396 538 448 519.5Q500 501 533 465.5Q566 430 581.5 379Q597 328 597 263Q597 199 581.5 148Q566 97 533 61Q500 25 448 5.5Q396 -14 323 -14ZM323 107Q390 107 416.5 143Q443 179 443 263Q443 345 417 382Q391 419 323 419Q255 419 229 382Q203 345 203 263Q203 221 209 191.5Q215 162 229 143Q243 124 266 115.5Q289 107 323 107ZM203 708 444 708L507 588H378L323 666L268 588H139Z" glyph-name="ocircumflex" horiz-adv-x="646" unicode="ô" /><glyph d="M70 523 220 523V0H70ZM186 708 316 708V588H186ZM-24 708 106 708V588H-24Z" glyph-name="idieresis" horiz-adv-x="290" unicode="ï" /><glyph d="M323 -14Q249 -14 197 5.5Q145 25 112 61Q79 97 64 148Q49 199 49 263Q49 328 64.5 379Q80 430 113 465.5Q146 501 198 519.5Q250 538 323 538Q396 538 448 519.5Q500 501 533 465.5Q566 430 581.5 379Q597 328 597 263Q597 199 581.5 148Q566 97 533 61Q500 25 448 5.5Q396 -14 323 -14ZM323 107Q390 107 416.5 143Q443 179 443 263Q443 345 417 382Q391 419 323 419Q255 419 229 382Q203 345 203 263Q203 221 209 191.5Q215 162 229 143Q243 124 266 115.5Q289 107 323 107ZM363 708 493 708V588H363ZM153 708 283 708V588H153Z" glyph-name="odieresis" horiz-adv-x="646" unicode="ö" /><glyph d="M70 523 220 523V0H70ZM134 708 310 708L221 588H70Z" glyph-name="iacute" horiz-adv-x="290" unicode="í" /><glyph d="M70 523 220 523V0H70ZM-7 708 169 708L233 588H82Z" glyph-name="igrave" horiz-adv-x="290" unicode="ì" /><glyph d="M323 -14Q249 -14 197 5.5Q145 25 112 61Q79 97 64 148Q49 199 49 263Q49 328 64.5 379Q80 430 113 465.5Q146 501 198 519.5Q250 538 323 538Q396 538 448 519.5Q500 501 533 465.5Q566 430 581.5 379Q597 328 597 263Q597 199 581.5 148Q566 97 533 61Q500 25 448 5.5Q396 -14 323 -14ZM323 107Q390 107 416.5 143Q443 179 443 263Q443 345 417 382Q391 419 323 419Q255 419 229 382Q203 345 203 263Q203 221 209 191.5Q215 162 229 143Q243 124 266 115.5Q289 107 323 107ZM170 708 346 708L410 588H259Z" glyph-name="ograve" horiz-adv-x="646" unicode="ò" /><glyph d="M323 -14Q249 -14 197 5.5Q145 25 112 61Q79 97 64 148Q49 199 49 263Q49 328 64.5 379Q80 430 113 465.5Q146 501 198 519.5Q250 538 323 538Q396 538 448 519.5Q500 501 533 465.5Q566 430 581.5 379Q597 328 597 263Q597 199 581.5 148Q566 97 533 61Q500 25 448 5.5Q396 -14 323 -14ZM323 107Q390 107 416.5 143Q443 179 443 263Q443 345 417 382Q391 419 323 419Q255 419 229 382Q203 345 203 263Q203 221 209 191.5Q215 162 229 143Q243 124 266 115.5Q289 107 323 107ZM311 708 487 708L398 588H247Z" glyph-name="oacute" horiz-adv-x="646" unicode="ó" /><glyph d="M68 523 216 523V460H218Q222 480 236.5 494.5Q251 509 273 519Q295 529 322 533.5Q349 538 378 538Q429 538 463 525.5Q497 513 518 491.5Q539 470 547.5 441Q556 412 556 380V0H405V298Q405 335 401 358.5Q397 382 387.5 395.5Q378 409 360.5 413.5Q343 418 316 418Q286 418 267 412.5Q248 407 237.5 394.5Q227 382 223 360.5Q219 339 219 307V0H68ZM154 640Q163 653 175 667Q187 681 202 692.5Q217 704 235.5 711.5Q254 719 275 719Q293 719 311.5 714Q330 709 346.5 703Q363 697 378 692Q393 687 404 687Q421 687 433 698.5Q445 710 459 728L521 682Q513 667 501.5 650.5Q490 634 474.5 620.5Q459 607 440 598.5Q421 590 398 590Q379 590 361.5 595.5Q344 601 327.5 607Q311 613 296.5 618.5Q282 624 270 624Q251 624 238 612.5Q225 601 215 585Z" glyph-name="ntilde" horiz-adv-x="620" unicode="ñ" /><glyph d="M323 -14Q249 -14 197 5.5Q145 25 112 61Q79 97 64 148Q49 199 49 263Q49 328 64.5 379Q80 430 113 465.5Q146 501 198 519.5Q250 538 323 538Q396 538 448 519.5Q500 501 533 465.5Q566 430 581.5 379Q597 328 597 263Q597 199 581.5 148Q566 97 533 61Q500 25 448 5.5Q396 -14 323 -14ZM323 107Q390 107 416.5 143Q443 179 443 263Q443 345 417 382Q391 419 323 419Q255 419 229 382Q203 345 203 263Q203 221 209 191.5Q215 162 229 143Q243 124 266 115.5Q289 107 323 107ZM141 638Q150 651 162 665Q174 679 189 690.5Q204 702 222.5 709.5Q241 717 262 717Q280 717 298.5 712Q317 707 333.5 701Q350 695 365 690Q380 685 391 685Q408 685 420 696.5Q432 708 446 726L508 680Q500 665 488.5 648.5Q477 632 461.5 618.5Q446 605 427 596.5Q408 588 385 588Q366 588 348.5 593.5Q331 599 314.5 605Q298 611 283.5 616.5Q269 622 257 622Q238 622 225 610.5Q212 599 202 583Z" glyph-name="otilde" horiz-adv-x="646" unicode="õ" /><glyph d="M281 698 487 698L758 0H591L537 158H226L171 0H6ZM492 288 385 601H383L272 288ZM230 880 406 880L470 760H319Z" glyph-name="Agrave" horiz-adv-x="764" unicode="À" /><glyph d="M281 698 487 698L758 0H591L537 158H226L171 0H6ZM492 288 385 601H383L272 288ZM371 880 547 880L458 760H307Z" glyph-name="Aacute" horiz-adv-x="764" unicode="Á" /><glyph d="M281 698 487 698L758 0H591L537 158H226L171 0H6ZM492 288 385 601H383L272 288ZM263 880 504 880L567 760H438L383 838L328 760H199Z" glyph-name="Acircumflex" horiz-adv-x="764" unicode="Â" /><glyph d="M281 698 487 698L758 0H591L537 158H226L171 0H6ZM492 288 385 601H383L272 288ZM201 810Q210 823 222 837Q234 851 249 862.5Q264 874 282.5 881.5Q301 889 322 889Q340 889 358.5 884Q377 879 393.5 873Q410 867 425 862Q440 857 451 857Q468 857 480 868.5Q492 880 506 898L568 852Q560 837 548.5 820.5Q537 804 521.5 790.5Q506 777 487 768.5Q468 760 445 760Q426 760 408.5 765.5Q391 771 374.5 777Q358 783 343.5 788.5Q329 794 317 794Q298 794 285 782.5Q272 771 262 755Z" glyph-name="Atilde" horiz-adv-x="764" unicode="Ã" /><glyph d="M281 698 487 698L758 0H591L537 158H226L171 0H6ZM492 288 385 601H383L272 288ZM423 880 553 880V760H423ZM213 880 343 880V760H213Z" glyph-name="Adieresis" horiz-adv-x="764" unicode="Ä" /><glyph d="M407 37Q390 24 374.5 14.5Q359 5 340.5 -1.5Q322 -8 299 -11Q276 -14 245 -14Q198 -14 160 -6.5Q122 1 94 19.5Q66 38 51 69.5Q36 101 36 148Q36 197 52.5 230.5Q69 264 100 284Q131 304 175.5 312.5Q220 321 275 321H368V350Q368 364 364.5 377Q361 390 352 400Q343 410 326 416Q309 422 282 422Q244 422 214.5 408.5Q185 395 157 367L54 443Q73 464 95 481.5Q117 499 146.5 511.5Q176 524 213.5 531Q251 538 300 538Q364 538 406.5 525Q449 512 474 487Q499 462 509.5 426Q520 390 520 344V177Q520 152 526 131.5Q532 111 558 103L515 -12Q470 -8 446.5 5.5Q423 19 409 37ZM368 222 269 222Q224 222 207.5 204Q191 186 191 156Q191 115 214 103Q237 91 279 91Q324 91 346 105Q368 119 368 151ZM146 710 322 710L386 590H235Z" glyph-name="agrave" horiz-adv-x="586" unicode="à" /><glyph d="M407 37Q390 24 374.5 14.5Q359 5 340.5 -1.5Q322 -8 299 -11Q276 -14 245 -14Q198 -14 160 -6.5Q122 1 94 19.5Q66 38 51 69.5Q36 101 36 148Q36 197 52.5 230.5Q69 264 100 284Q131 304 175.5 312.5Q220 321 275 321H368V350Q368 364 364.5 377Q361 390 352 400Q343 410 326 416Q309 422 282 422Q244 422 214.5 408.5Q185 395 157 367L54 443Q73 464 95 481.5Q117 499 146.5 511.5Q176 524 213.5 531Q251 538 300 538Q364 538 406.5 525Q449 512 474 487Q499 462 509.5 426Q520 390 520 344V177Q520 152 526 131.5Q532 111 558 103L515 -12Q470 -8 446.5 5.5Q423 19 409 37ZM368 222 269 222Q224 222 207.5 204Q191 186 191 156Q191 115 214 103Q237 91 279 91Q324 91 346 105Q368 119 368 151ZM287 710 463 710L374 590H223Z" glyph-name="aacute" horiz-adv-x="586" unicode="á" /><glyph d="M407 37Q390 24 374.5 14.5Q359 5 340.5 -1.5Q322 -8 299 -11Q276 -14 245 -14Q198 -14 160 -6.5Q122 1 94 19.5Q66 38 51 69.5Q36 101 36 148Q36 197 52.5 230.5Q69 264 100 284Q131 304 175.5 312.5Q220 321 275 321H368V350Q368 364 364.5 377Q361 390 352 400Q343 410 326 416Q309 422 282 422Q244 422 214.5 408.5Q185 395 157 367L54 443Q73 464 95 481.5Q117 499 146.5 511.5Q176 524 213.5 531Q251 538 300 538Q364 538 406.5 525Q449 512 474 487Q499 462 509.5 426Q520 390 520 344V177Q520 152 526 131.5Q532 111 558 103L515 -12Q470 -8 446.5 5.5Q423 19 409 37ZM368 222 269 222Q224 222 207.5 204Q191 186 191 156Q191 115 214 103Q237 91 279 91Q324 91 346 105Q368 119 368 151ZM179 710 420 710L483 590H354L299 668L244 590H115Z" glyph-name="acircumflex" horiz-adv-x="586" unicode="â" /><glyph d="M407 37Q390 24 374.5 14.5Q359 5 340.5 -1.5Q322 -8 299 -11Q276 -14 245 -14Q198 -14 160 -6.5Q122 1 94 19.5Q66 38 51 69.5Q36 101 36 148Q36 197 52.5 230.5Q69 264 100 284Q131 304 175.5 312.5Q220 321 275 321H368V350Q368 364 364.5 377Q361 390 352 400Q343 410 326 416Q309 422 282 422Q244 422 214.5 408.5Q185 395 157 367L54 443Q73 464 95 481.5Q117 499 146.5 511.5Q176 524 213.5 531Q251 538 300 538Q364 538 406.5 525Q449 512 474 487Q499 462 509.5 426Q520 390 520 344V177Q520 152 526 131.5Q532 111 558 103L515 -12Q470 -8 446.5 5.5Q423 19 409 37ZM368 222 269 222Q224 222 207.5 204Q191 186 191 156Q191 115 214 103Q237 91 279 91Q324 91 346 105Q368 119 368 151ZM117 640Q126 653 138 667Q150 681 165 692.5Q180 704 198.5 711.5Q217 719 238 719Q256 719 274.5 714Q293 709 309.5 703Q326 697 341 692Q356 687 367 687Q384 687 396 698.5Q408 710 422 728L484 682Q476 667 464.5 650.5Q453 634 437.5 620.5Q422 607 403 598.5Q384 590 361 590Q342 590 324.5 595.5Q307 601 290.5 607Q274 613 259.5 618.5Q245 624 233 624Q214 624 201 612.5Q188 601 178 585Z" glyph-name="atilde" horiz-adv-x="586" unicode="ã" /><glyph d="M407 37Q390 24 374.5 14.5Q359 5 340.5 -1.5Q322 -8 299 -11Q276 -14 245 -14Q198 -14 160 -6.5Q122 1 94 19.5Q66 38 51 69.5Q36 101 36 148Q36 197 52.5 230.5Q69 264 100 284Q131 304 175.5 312.5Q220 321 275 321H368V350Q368 364 364.5 377Q361 390 352 400Q343 410 326 416Q309 422 282 422Q244 422 214.5 408.5Q185 395 157 367L54 443Q73 464 95 481.5Q117 499 146.5 511.5Q176 524 213.5 531Q251 538 300 538Q364 538 406.5 525Q449 512 474 487Q499 462 509.5 426Q520 390 520 344V177Q520 152 526 131.5Q532 111 558 103L515 -12Q470 -8 446.5 5.5Q423 19 409 37ZM368 222 269 222Q224 222 207.5 204Q191 186 191 156Q191 115 214 103Q237 91 279 91Q324 91 346 105Q368 119 368 151ZM339 710 469 710V590H339ZM129 710 259 710V590H129Z" glyph-name="adieresis" horiz-adv-x="586" unicode="ä" /><glyph d="M407 37Q390 24 374.5 14.5Q359 5 340.5 -1.5Q322 -8 299 -11Q276 -14 245 -14Q198 -14 160 -6.5Q122 1 94 19.5Q66 38 51 69.5Q36 101 36 148Q36 197 52.5 230.5Q69 264 100 284Q131 304 175.5 312.5Q220 321 275 321H368V350Q368 364 364.5 377Q361 390 352 400Q343 410 326 416Q309 422 282 422Q244 422 214.5 408.5Q185 395 157 367L54 443Q73 464 95 481.5Q117 499 146.5 511.5Q176 524 213.5 531Q251 538 300 538Q364 538 406.5 525Q449 512 474 487Q499 462 509.5 426Q520 390 520 344V177Q520 152 526 131.5Q532 111 558 103L515 -12Q470 -8 446.5 5.5Q423 19 409 37ZM368 222 269 222Q224 222 207.5 204Q191 186 191 156Q191 115 214 103Q237 91 279 91Q324 91 346 105Q368 119 368 151ZM196 687Q196 708 204 727Q212 746 226 760Q240 774 259 782Q278 790 299 790Q320 790 339 782Q358 774 372 760Q386 746 394 727Q402 708 402 687Q402 666 394 647Q386 628 372 614Q358 600 339 592Q320 584 299 584Q278 584 259 592Q240 600 226 614Q212 628 204 647Q196 666 196 687ZM254 687Q254 667 266.5 654.5Q279 642 299 642Q318 642 331 654.5Q344 667 344 687Q344 706 331 719Q318 732 299 732Q279 732 266.5 719Q254 706 254 687Z" glyph-name="aring" horiz-adv-x="586" unicode="å" /><glyph d="M555 91Q524 45 469.5 16Q415 -13 319 -13Q240 -13 188 7.5Q136 28 105 64Q74 100 61.5 149.5Q49 199 49 256Q49 389 115.5 463.5Q182 538 319 538Q387 538 435 518.5Q483 499 513 464Q543 429 557 379.5Q571 330 571 269V216H204Q205 191 211.5 170.5Q218 150 232 135Q246 120 268.5 112Q291 104 325 104Q367 104 393 117Q419 130 445 162ZM416 322Q416 425 314 425Q264 425 236.5 399Q209 373 207 322ZM170 708 346 708L410 588H259Z" glyph-name="egrave" horiz-adv-x="620" unicode="è" /><glyph d="M555 91Q524 45 469.5 16Q415 -13 319 -13Q240 -13 188 7.5Q136 28 105 64Q74 100 61.5 149.5Q49 199 49 256Q49 389 115.5 463.5Q182 538 319 538Q387 538 435 518.5Q483 499 513 464Q543 429 557 379.5Q571 330 571 269V216H204Q205 191 211.5 170.5Q218 150 232 135Q246 120 268.5 112Q291 104 325 104Q367 104 393 117Q419 130 445 162ZM416 322Q416 425 314 425Q264 425 236.5 399Q209 373 207 322ZM311 708 487 708L398 588H247Z" glyph-name="eacute" horiz-adv-x="620" unicode="é" /><glyph d="M555 91Q524 45 469.5 16Q415 -13 319 -13Q240 -13 188 7.5Q136 28 105 64Q74 100 61.5 149.5Q49 199 49 256Q49 389 115.5 463.5Q182 538 319 538Q387 538 435 518.5Q483 499 513 464Q543 429 557 379.5Q571 330 571 269V216H204Q205 191 211.5 170.5Q218 150 232 135Q246 120 268.5 112Q291 104 325 104Q367 104 393 117Q419 130 445 162ZM416 322Q416 425 314 425Q264 425 236.5 399Q209 373 207 322ZM203 708 444 708L507 588H378L323 666L268 588H139Z" glyph-name="ecircumflex" horiz-adv-x="620" unicode="ê" /><glyph d="M555 91Q524 45 469.5 16Q415 -13 319 -13Q240 -13 188 7.5Q136 28 105 64Q74 100 61.5 149.5Q49 199 49 256Q49 389 115.5 463.5Q182 538 319 538Q387 538 435 518.5Q483 499 513 464Q543 429 557 379.5Q571 330 571 269V216H204Q205 191 211.5 170.5Q218 150 232 135Q246 120 268.5 112Q291 104 325 104Q367 104 393 117Q419 130 445 162ZM416 322Q416 425 314 425Q264 425 236.5 399Q209 373 207 322ZM363 708 493 708V588H363ZM153 708 283 708V588H153Z" glyph-name="edieresis" horiz-adv-x="620" unicode="ë" /><glyph d="M382 -14Q286 -14 222.5 6.5Q159 27 121.5 71Q84 115 69 184Q54 253 54 349Q54 445 69 513.5Q84 582 121.5 625.5Q159 669 222.5 689.5Q286 710 382 710Q478 710 541.5 689.5Q605 669 642.5 625.5Q680 582 695 513.5Q710 445 710 349Q710 253 695 184Q680 115 642.5 71Q605 27 541.5 6.5Q478 -14 382 -14ZM382 111Q430 111 462.5 119Q495 127 515 152.5Q535 178 543.5 225Q552 272 552 349Q552 428 543.5 474.5Q535 521 515.5 545.5Q496 570 463 577.5Q430 585 382 585Q334 585 301 577.5Q268 570 248.5 545.5Q229 521 220.5 474.5Q212 428 212 349Q212 272 220.5 225Q229 178 249 152.5Q269 127 301.5 119Q334 111 382 111ZM230 880 406 880L470 760H319Z" glyph-name="Ograve" horiz-adv-x="764" unicode="Ò" /><glyph d="M382 -14Q286 -14 222.5 6.5Q159 27 121.5 71Q84 115 69 184Q54 253 54 349Q54 445 69 513.5Q84 582 121.5 625.5Q159 669 222.5 689.5Q286 710 382 710Q478 710 541.5 689.5Q605 669 642.5 625.5Q680 582 695 513.5Q710 445 710 349Q710 253 695 184Q680 115 642.5 71Q605 27 541.5 6.5Q478 -14 382 -14ZM382 111Q430 111 462.5 119Q495 127 515 152.5Q535 178 543.5 225Q552 272 552 349Q552 428 543.5 474.5Q535 521 515.5 545.5Q496 570 463 577.5Q430 585 382 585Q334 585 301 577.5Q268 570 248.5 545.5Q229 521 220.5 474.5Q212 428 212 349Q212 272 220.5 225Q229 178 249 152.5Q269 127 301.5 119Q334 111 382 111ZM371 880 547 880L458 760H307Z" glyph-name="Oacute" horiz-adv-x="764" unicode="Ó" /><glyph d="M382 -14Q286 -14 222.5 6.5Q159 27 121.5 71Q84 115 69 184Q54 253 54 349Q54 445 69 513.5Q84 582 121.5 625.5Q159 669 222.5 689.5Q286 710 382 710Q478 710 541.5 689.5Q605 669 642.5 625.5Q680 582 695 513.5Q710 445 710 349Q710 253 695 184Q680 115 642.5 71Q605 27 541.5 6.5Q478 -14 382 -14ZM382 111Q430 111 462.5 119Q495 127 515 152.5Q535 178 543.5 225Q552 272 552 349Q552 428 543.5 474.5Q535 521 515.5 545.5Q496 570 463 577.5Q430 585 382 585Q334 585 301 577.5Q268 570 248.5 545.5Q229 521 220.5 474.5Q212 428 212 349Q212 272 220.5 225Q229 178 249 152.5Q269 127 301.5 119Q334 111 382 111ZM263 880 504 880L567 760H438L383 838L328 760H199Z" glyph-name="Ocircumflex" horiz-adv-x="764" unicode="Ô" /><glyph d="M382 -14Q286 -14 222.5 6.5Q159 27 121.5 71Q84 115 69 184Q54 253 54 349Q54 445 69 513.5Q84 582 121.5 625.5Q159 669 222.5 689.5Q286 710 382 710Q478 710 541.5 689.5Q605 669 642.5 625.5Q680 582 695 513.5Q710 445 710 349Q710 253 695 184Q680 115 642.5 71Q605 27 541.5 6.5Q478 -14 382 -14ZM382 111Q430 111 462.5 119Q495 127 515 152.5Q535 178 543.5 225Q552 272 552 349Q552 428 543.5 474.5Q535 521 515.5 545.5Q496 570 463 577.5Q430 585 382 585Q334 585 301 577.5Q268 570 248.5 545.5Q229 521 220.5 474.5Q212 428 212 349Q212 272 220.5 225Q229 178 249 152.5Q269 127 301.5 119Q334 111 382 111ZM201 810Q210 823 222 837Q234 851 249 862.5Q264 874 282.5 881.5Q301 889 322 889Q340 889 358.5 884Q377 879 393.5 873Q410 867 425 862Q440 857 451 857Q468 857 480 868.5Q492 880 506 898L568 852Q560 837 548.5 820.5Q537 804 521.5 790.5Q506 777 487 768.5Q468 760 445 760Q426 760 408.5 765.5Q391 771 374.5 777Q358 783 343.5 788.5Q329 794 317 794Q298 794 285 782.5Q272 771 262 755Z" glyph-name="Otilde" horiz-adv-x="764" unicode="Õ" /><glyph d="M382 -14Q286 -14 222.5 6.5Q159 27 121.5 71Q84 115 69 184Q54 253 54 349Q54 445 69 513.5Q84 582 121.5 625.5Q159 669 222.5 689.5Q286 710 382 710Q478 710 541.5 689.5Q605 669 642.5 625.5Q680 582 695 513.5Q710 445 710 349Q710 253 695 184Q680 115 642.5 71Q605 27 541.5 6.5Q478 -14 382 -14ZM382 111Q430 111 462.5 119Q495 127 515 152.5Q535 178 543.5 225Q552 272 552 349Q552 428 543.5 474.5Q535 521 515.5 545.5Q496 570 463 577.5Q430 585 382 585Q334 585 301 577.5Q268 570 248.5 545.5Q229 521 220.5 474.5Q212 428 212 349Q212 272 220.5 225Q229 178 249 152.5Q269 127 301.5 119Q334 111 382 111ZM423 880 553 880V760H423ZM213 880 343 880V760H213Z" glyph-name="Odieresis" horiz-adv-x="764" unicode="Ö" /><glyph d="M197 533 28 438V585L211 688H347V0H197Z" glyph-name="one.alt" horiz-adv-x="459" unicode="" /><glyph d="M64 523 215 523V224Q215 182 220 158Q225 134 236.5 122Q248 110 265.5 107Q283 104 307 104Q333 104 351 108Q369 112 380 124Q391 136 396 158Q401 180 401 215V523H552V0H404V63H402Q398 43 383 28.5Q368 14 346.5 4.5Q325 -5 298 -9.5Q271 -14 242 -14Q191 -14 157 -1.5Q123 11 102 33Q81 55 72.5 84Q64 113 64 145ZM350 708 480 708V588H350ZM140 708 270 708V588H140Z" glyph-name="udieresis" horiz-adv-x="620" unicode="ü" /><glyph d="M64 523 215 523V224Q215 182 220 158Q225 134 236.5 122Q248 110 265.5 107Q283 104 307 104Q333 104 351 108Q369 112 380 124Q391 136 396 158Q401 180 401 215V523H552V0H404V63H402Q398 43 383 28.5Q368 14 346.5 4.5Q325 -5 298 -9.5Q271 -14 242 -14Q191 -14 157 -1.5Q123 11 102 33Q81 55 72.5 84Q64 113 64 145ZM190 708 431 708L494 588H365L310 666L255 588H126Z" glyph-name="ucircumflex" horiz-adv-x="620" unicode="û" /><glyph d="M64 523 215 523V224Q215 182 220 158Q225 134 236.5 122Q248 110 265.5 107Q283 104 307 104Q333 104 351 108Q369 112 380 124Q391 136 396 158Q401 180 401 215V523H552V0H404V63H402Q398 43 383 28.5Q368 14 346.5 4.5Q325 -5 298 -9.5Q271 -14 242 -14Q191 -14 157 -1.5Q123 11 102 33Q81 55 72.5 84Q64 113 64 145ZM298 708 474 708L385 588H234Z" glyph-name="uacute" horiz-adv-x="620" unicode="ú" /><glyph d="M64 523 215 523V224Q215 182 220 158Q225 134 236.5 122Q248 110 265.5 107Q283 104 307 104Q333 104 351 108Q369 112 380 124Q391 136 396 158Q401 180 401 215V523H552V0H404V63H402Q398 43 383 28.5Q368 14 346.5 4.5Q325 -5 298 -9.5Q271 -14 242 -14Q191 -14 157 -1.5Q123 11 102 33Q81 55 72.5 84Q64 113 64 145ZM157 708 333 708L397 588H246Z" glyph-name="ugrave" horiz-adv-x="620" unicode="ù" /><glyph d="M80 698 619 698V578H236V416H539V296H236V120H619V0H80ZM397 880 527 880V760H397ZM187 880 317 880V760H187Z" glyph-name="Edieresis" horiz-adv-x="651" unicode="Ë" /><glyph d="M80 698 619 698V578H236V416H539V296H236V120H619V0H80ZM237 880 478 880L541 760H412L357 838L302 760H173Z" glyph-name="Ecircumflex" horiz-adv-x="651" unicode="Ê" /><glyph d="M80 698 619 698V578H236V416H539V296H236V120H619V0H80ZM345 880 521 880L432 760H281Z" glyph-name="Eacute" horiz-adv-x="651" unicode="É" /><glyph d="M80 698 619 698V578H236V416H539V296H236V120H619V0H80ZM204 880 380 880L444 760H293Z" glyph-name="Egrave" horiz-adv-x="651" unicode="È" /><glyph d="M82 698 238 698V0H82ZM7 880 183 880L247 760H96Z" glyph-name="Igrave" horiz-adv-x="320" unicode="Ì" /><glyph d="M82 698 238 698V0H82ZM148 880 324 880L235 760H84Z" glyph-name="Iacute" horiz-adv-x="320" unicode="Í" /><glyph d="M82 698 238 698V0H82ZM40 880 281 880L344 760H215L160 838L105 760H-24Z" glyph-name="Icircumflex" horiz-adv-x="320" unicode="Î" /><glyph d="M82 698 238 698V0H82ZM200 880 330 880V760H200ZM-10 880 120 880V760H-10Z" glyph-name="Idieresis" horiz-adv-x="320" unicode="Ï" /><glyph d="M66 362 554 362V246H66Z" glyph-name="minus" horiz-adv-x="620" unicode="−" /><glyph d="M80 698 275 698L569 193H570V698H719V0H525L230 506H229V0H80ZM232 810Q241 823 253 837Q265 851 280 862.5Q295 874 313.5 881.5Q332 889 353 889Q371 889 389.5 884Q408 879 424.5 873Q441 867 456 862Q471 857 482 857Q499 857 511 868.5Q523 880 537 898L599 852Q591 837 579.5 820.5Q568 804 552.5 790.5Q537 777 518 768.5Q499 760 476 760Q457 760 439.5 765.5Q422 771 405.5 777Q389 783 374.5 788.5Q360 794 348 794Q329 794 316 782.5Q303 771 293 755Z" glyph-name="Ntilde" horiz-adv-x="799" unicode="Ñ" /><glyph d="M80 698 239 698V416H540V698H699V0H540V296H239V0H80ZM263 880 504 880L567 760H438L383 838L328 760H199Z" glyph-name="Hcircumflex" horiz-adv-x="779" unicode="Ĥ" /><glyph d="M80 698 236 698V120H539V0H80ZM143 880 319 880L230 760H79Z" glyph-name="Lacute" horiz-adv-x="553" unicode="Ĺ" /><glyph d="M70 728 220 728V0H70ZM134 890 310 890L221 770H70Z" glyph-name="lacute" horiz-adv-x="290" unicode="ĺ" /><glyph d="M68 728 219 728V598Q219 561 218.5 526Q218 491 216 460H218Q222 480 236.5 494.5Q251 509 272 519Q293 529 319.5 533.5Q346 538 375 538Q426 538 460.5 525.5Q495 513 516.5 491.5Q538 470 547 441Q556 412 556 380V0H405V298Q405 327 403 349.5Q401 372 392.5 387Q384 402 366.5 410Q349 418 318 418Q288 418 269 412Q250 406 238.5 393Q227 380 223 359Q219 338 219 307V0H68ZM26 890 267 890L330 770H201L146 848L91 770H-38Z" glyph-name="hcircumflex" horiz-adv-x="620" unicode="ĥ" /><glyph d="M70 523 220 523V0H70ZM-24 696 316 696V588H-24Z" glyph-name="imacron" horiz-adv-x="290" unicode="ī" /><glyph d="M82 698 238 698V0H82ZM-10 868 330 868V760H-10Z" glyph-name="Imacron" horiz-adv-x="320" unicode="Ī" /><glyph d="M228 304 68 464L150 546L310 386L470 546L552 464L392 304L552 144L470 62L310 222L150 62L68 144Z" glyph-name="multiply" horiz-adv-x="620" unicode="×" /><glyph d="M80 698 238 698V271Q238 225 244.5 195Q251 165 267.5 147Q284 129 312.5 122Q341 115 384 115Q427 115 455.5 122Q484 129 500.5 147Q517 165 523.5 195Q530 225 530 271V698H688V263Q688 186 668.5 133Q649 80 610.5 47.5Q572 15 515.5 0.5Q459 -14 384 -14Q309 -14 252.5 0.5Q196 15 157.5 47.5Q119 80 99.5 133Q80 186 80 263ZM230 880 406 880L470 760H319Z" glyph-name="Ugrave" horiz-adv-x="774" unicode="Ù" /><glyph d="M80 698 238 698V271Q238 225 244.5 195Q251 165 267.5 147Q284 129 312.5 122Q341 115 384 115Q427 115 455.5 122Q484 129 500.5 147Q517 165 523.5 195Q530 225 530 271V698H688V263Q688 186 668.5 133Q649 80 610.5 47.5Q572 15 515.5 0.5Q459 -14 384 -14Q309 -14 252.5 0.5Q196 15 157.5 47.5Q119 80 99.5 133Q80 186 80 263ZM371 880 547 880L458 760H307Z" glyph-name="Uacute" horiz-adv-x="774" unicode="Ú" /><glyph d="M80 698 238 698V271Q238 225 244.5 195Q251 165 267.5 147Q284 129 312.5 122Q341 115 384 115Q427 115 455.5 122Q484 129 500.5 147Q517 165 523.5 195Q530 225 530 271V698H688V263Q688 186 668.5 133Q649 80 610.5 47.5Q572 15 515.5 0.5Q459 -14 384 -14Q309 -14 252.5 0.5Q196 15 157.5 47.5Q119 80 99.5 133Q80 186 80 263ZM263 880 504 880L567 760H438L383 838L328 760H199Z" glyph-name="Ucircumflex" horiz-adv-x="774" unicode="Û" /><glyph d="M80 698 238 698V271Q238 225 244.5 195Q251 165 267.5 147Q284 129 312.5 122Q341 115 384 115Q427 115 455.5 122Q484 129 500.5 147Q517 165 523.5 195Q530 225 530 271V698H688V263Q688 186 668.5 133Q649 80 610.5 47.5Q572 15 515.5 0.5Q459 -14 384 -14Q309 -14 252.5 0.5Q196 15 157.5 47.5Q119 80 99.5 133Q80 186 80 263ZM423 880 553 880V760H423ZM213 880 343 880V760H213Z" glyph-name="Udieresis" horiz-adv-x="774" unicode="Ü" /><glyph d="M82 698 238 698V0H82ZM-22 810Q-13 823 -1 837Q11 851 26 862.5Q41 874 59.5 881.5Q78 889 99 889Q117 889 135.5 884Q154 879 170.5 873Q187 867 202 862Q217 857 228 857Q245 857 257 868.5Q269 880 283 898L345 852Q337 837 325.5 820.5Q314 804 298.5 790.5Q283 777 264 768.5Q245 760 222 760Q203 760 185.5 765.5Q168 771 151.5 777Q135 783 120.5 788.5Q106 794 94 794Q75 794 62 782.5Q49 771 39 755Z" glyph-name="Itilde" horiz-adv-x="320" unicode="Ĩ" /><glyph d="M70 523 220 523V0H70ZM-36 638Q-27 651 -15 665Q-3 679 12 690.5Q27 702 45.5 709.5Q64 717 85 717Q103 717 121.5 712Q140 707 156.5 701Q173 695 188 690Q203 685 214 685Q231 685 243 696.5Q255 708 269 726L331 680Q323 665 311.5 648.5Q300 632 284.5 618.5Q269 605 250 596.5Q231 588 208 588Q189 588 171.5 593.5Q154 599 137.5 605Q121 611 106.5 616.5Q92 622 80 622Q61 622 48 610.5Q35 599 25 583Z" glyph-name="itilde" horiz-adv-x="290" unicode="ĩ" /><glyph d="M407 37Q390 24 374.5 14.5Q359 5 340.5 -1.5Q322 -8 299 -11Q276 -14 245 -14Q198 -14 160 -6.5Q122 1 94 19.5Q66 38 51 69.5Q36 101 36 148Q36 197 52.5 230.5Q69 264 100 284Q131 304 175.5 312.5Q220 321 275 321H368V350Q368 364 364.5 377Q361 390 352 400Q343 410 326 416Q309 422 282 422Q244 422 214.5 408.5Q185 395 157 367L54 443Q73 464 95 481.5Q117 499 146.5 511.5Q176 524 213.5 531Q251 538 300 538Q364 538 406.5 525Q449 512 474 487Q499 462 509.5 426Q520 390 520 344V177Q520 152 526 131.5Q532 111 558 103L515 -12Q470 -8 446.5 5.5Q423 19 409 37ZM368 222 269 222Q224 222 207.5 204Q191 186 191 156Q191 115 214 103Q237 91 279 91Q324 91 346 105Q368 119 368 151ZM129 698 469 698V590H129Z" glyph-name="amacron" horiz-adv-x="586" unicode="ā" /><glyph d="M281 698 487 698L758 0H591L537 158H226L171 0H6ZM492 288 385 601H383L272 288ZM213 868 553 868V760H213Z" glyph-name="Amacron" horiz-adv-x="764" unicode="Ā" /><glyph d="M281 698 487 698L758 0H591L537 158H226L171 0H6ZM492 288 385 601H383L272 288ZM307 880Q313 860 330 848.5Q347 837 383 837Q422 837 437 848Q452 859 459 880H566Q558 818 513 789Q468 760 383 760Q298 760 253 789Q208 818 200 880Z" glyph-name="Abreve" horiz-adv-x="764" unicode="Ă" /><glyph d="M407 37Q390 24 374.5 14.5Q359 5 340.5 -1.5Q322 -8 299 -11Q276 -14 245 -14Q198 -14 160 -6.5Q122 1 94 19.5Q66 38 51 69.5Q36 101 36 148Q36 197 52.5 230.5Q69 264 100 284Q131 304 175.5 312.5Q220 321 275 321H368V350Q368 364 364.5 377Q361 390 352 400Q343 410 326 416Q309 422 282 422Q244 422 214.5 408.5Q185 395 157 367L54 443Q73 464 95 481.5Q117 499 146.5 511.5Q176 524 213.5 531Q251 538 300 538Q364 538 406.5 525Q449 512 474 487Q499 462 509.5 426Q520 390 520 344V177Q520 152 526 131.5Q532 111 558 103L515 -12Q470 -8 446.5 5.5Q423 19 409 37ZM368 222 269 222Q224 222 207.5 204Q191 186 191 156Q191 115 214 103Q237 91 279 91Q324 91 346 105Q368 119 368 151ZM223 710Q229 690 246 678.5Q263 667 299 667Q338 667 353 678Q368 689 375 710H482Q474 648 429 619Q384 590 299 590Q214 590 169 619Q124 648 116 710Z" glyph-name="abreve" horiz-adv-x="586" unicode="ă" /><glyph d="M82 698 238 698V0H82ZM95 880 225 880V760H95Z" glyph-name="Idotaccent" horiz-adv-x="320" unicode="İ" /><glyph d="M82 698 238 698V0H82ZM457 205Q467 187 478 171Q489 155 504 142.5Q519 130 539 122.5Q559 115 585 115Q614 115 636 120.5Q658 126 673 140.5Q688 155 696 179.5Q704 204 704 242V698H862V264Q862 191 848.5 138.5Q835 86 803 52Q771 18 718.5 2Q666 -14 588 -14Q534 -14 493 -4Q452 6 421 24Q390 42 367.5 67.5Q345 93 330 125Z" glyph-name="IJ" horiz-adv-x="942" unicode="Ĳ" /><glyph d="M70 720 220 720V590H70ZM70 523 220 523V0H70ZM360 720 510 720V590H360ZM268 -89Q277 -92 287 -94Q297 -96 308 -96Q336 -96 348 -89Q360 -82 360 -55V523H510V-32Q510 -79 501.5 -113.5Q493 -148 473.5 -170.5Q454 -193 422.5 -204.5Q391 -216 344 -216Q330 -216 307.5 -215Q285 -214 268 -209Z" glyph-name="ij" horiz-adv-x="578" unicode="ĳ" /><glyph d="M137 205Q147 187 158 171Q169 155 184 142.5Q199 130 219 122.5Q239 115 265 115Q294 115 316 120.5Q338 126 353 140.5Q368 155 376 179.5Q384 204 384 242V698H542V264Q542 191 528.5 138.5Q515 86 483 52Q451 18 398.5 2Q346 -14 268 -14Q214 -14 173 -4Q132 6 101 24Q70 42 47.5 67.5Q25 93 10 125ZM345 880 586 880L649 760H520L465 838L410 760H281Z" glyph-name="Jcircumflex" horiz-adv-x="622" unicode="Ĵ" /><glyph d="M-22 -89Q-13 -92 -3 -94Q7 -96 18 -96Q46 -96 58 -89Q70 -82 70 -55V523H220V-32Q220 -79 211.5 -113.5Q203 -148 183.5 -170.5Q164 -193 132.5 -204.5Q101 -216 54 -216Q40 -216 17.5 -215Q-5 -214 -22 -209Z" glyph-name="dotlessj" horiz-adv-x="288" unicode="ȷ" /><glyph d="M-22 -89Q-13 -92 -3 -94Q7 -96 18 -96Q46 -96 58 -89Q70 -82 70 -55V523H220V-32Q220 -79 211.5 -113.5Q203 -148 183.5 -170.5Q164 -193 132.5 -204.5Q101 -216 54 -216Q40 -216 17.5 -215Q-5 -214 -22 -209ZM26 708 267 708L330 588H201L146 666L91 588H-38Z" glyph-name="jcircumflex" horiz-adv-x="288" unicode="ĵ" /><glyph d="M80 698 430 698Q495 698 540 686Q585 674 612.5 648.5Q640 623 652.5 582.5Q665 542 665 485Q665 438 652 404.5Q639 371 617 348Q595 325 566.5 310.5Q538 296 507 287L688 0H498L342 265H236V0H80ZM378 384Q449 384 476 409Q503 434 503 485Q503 537 481.5 557.5Q460 578 404 578H236V384ZM351 880 527 880L438 760H287Z" glyph-name="Racute" horiz-adv-x="722" unicode="Ŕ" /><glyph d="M68 523 215 523V430H216Q226 452 239 471.5Q252 491 273 505Q294 519 325.5 527Q357 535 403 535V387Q392 389 378.5 391Q365 393 349 393Q297 393 265 367Q233 341 218 306V0H68ZM221 710 397 710L308 590H157Z" glyph-name="racute" horiz-adv-x="420" unicode="ŕ" /><glyph d="M168 710 344 710L255 590H104Z" glyph-name="apostrophe" horiz-adv-x="360" unicode="ʼ" /><glyph d="M20 409 400 409V301H20Z" glyph-name="uni02C9" horiz-adv-x="360" unicode="ˉ" /><glyph d="M240 265 2 698H170L321 405L468 698H636L398 265V0H240ZM307 880 483 880L394 760H243Z" glyph-name="Yacute" horiz-adv-x="638" unicode="Ý" /><glyph d="M281 698 487 698L758 0H591L537 158H226L171 0H6ZM492 288 385 601H383L272 288ZM743 -200Q723 -208 696 -212Q669 -216 646 -216Q624 -216 602.5 -212Q581 -208 564.5 -199Q548 -190 538 -175Q528 -160 528 -137Q528 -115 537.5 -94Q547 -73 561.5 -55.5Q576 -38 593 -24Q610 -10 626 0H745Q728 -12 709 -26Q690 -40 674 -55Q658 -70 647.5 -85Q637 -100 637 -114Q637 -131 650.5 -135.5Q664 -140 676 -140Q694 -140 711 -136Q728 -132 743 -128Z" glyph-name="Aogonek" horiz-adv-x="764" unicode="Ą" /><glyph d="M407 37Q390 24 374.5 14.5Q359 5 340.5 -1.5Q322 -8 299 -11Q276 -14 245 -14Q198 -14 160 -6.5Q122 1 94 19.5Q66 38 51 69.5Q36 101 36 148Q36 197 52.5 230.5Q69 264 100 284Q131 304 175.5 312.5Q220 321 275 321H368V350Q368 364 364.5 377Q361 390 352 400Q343 410 326 416Q309 422 282 422Q244 422 214.5 408.5Q185 395 157 367L54 443Q73 464 95 481.5Q117 499 146.5 511.5Q176 524 213.5 531Q251 538 300 538Q364 538 406.5 525Q449 512 474 487Q499 462 509.5 426Q520 390 520 344V177Q520 152 526 131.5Q532 111 558 103L515 -12Q470 -8 446.5 5.5Q423 19 409 37ZM368 222 269 222Q224 222 207.5 204Q191 186 191 156Q191 115 214 103Q237 91 279 91Q324 91 346 105Q368 119 368 151ZM537 -200Q517 -208 490 -212Q463 -216 440 -216Q418 -216 396.5 -212Q375 -208 358.5 -199Q342 -190 332 -175Q322 -160 322 -137Q322 -115 331.5 -94Q341 -73 355.5 -55.5Q370 -38 387 -24Q404 -10 420 0H539Q522 -12 503 -26Q484 -40 468 -55Q452 -70 441.5 -85Q431 -100 431 -114Q431 -131 444.5 -135.5Q458 -140 470 -140Q488 -140 505 -136Q522 -132 537 -128Z" glyph-name="aogonek" horiz-adv-x="586" unicode="ą" /><glyph d="M676 107Q647 72 619.5 49Q592 26 558.5 12Q525 -2 483 -8Q441 -14 385 -14Q289 -14 225 3.5Q161 21 123 61.5Q85 102 69.5 168Q54 234 54 331Q54 443 71.5 516.5Q89 590 128.5 633Q168 676 231 693Q294 710 386 710Q451 710 497 702.5Q543 695 575.5 680Q608 665 630 643Q652 621 670 592L543 512Q531 531 520.5 544.5Q510 558 493 567Q476 576 449.5 580Q423 584 379 584Q329 584 297 576.5Q265 569 246 544.5Q227 520 219.5 472.5Q212 425 212 346Q212 270 220 224Q228 178 247 153Q266 128 297.5 120Q329 112 375 112Q411 112 436.5 116Q462 120 481.5 129Q501 138 516 152Q531 166 548 187ZM371 880 547 880L458 760H307Z" glyph-name="Cacute" horiz-adv-x="691" unicode="Ć" /><glyph d="M560 94Q537 61 511 40Q485 19 454.5 7Q424 -5 388 -9.5Q352 -14 307 -14Q240 -14 191.5 5.5Q143 25 111.5 61.5Q80 98 64.5 149.5Q49 201 49 264Q49 398 120.5 468Q192 538 325 538Q420 538 472 511.5Q524 485 548 440L434 358Q415 389 390 404Q365 419 319 419Q254 419 229 382.5Q204 346 204 264Q204 183 231.5 146Q259 109 326 109Q350 109 368 113.5Q386 118 399 126.5Q412 135 421.5 145.5Q431 156 439 168ZM311 708 487 708L398 588H247Z" glyph-name="cacute" horiz-adv-x="569" unicode="ć" /><glyph d="M676 107Q647 72 619.5 49Q592 26 558.5 12Q525 -2 483 -8Q441 -14 385 -14Q289 -14 225 3.5Q161 21 123 61.5Q85 102 69.5 168Q54 234 54 331Q54 443 71.5 516.5Q89 590 128.5 633Q168 676 231 693Q294 710 386 710Q451 710 497 702.5Q543 695 575.5 680Q608 665 630 643Q652 621 670 592L543 512Q531 531 520.5 544.5Q510 558 493 567Q476 576 449.5 580Q423 584 379 584Q329 584 297 576.5Q265 569 246 544.5Q227 520 219.5 472.5Q212 425 212 346Q212 270 220 224Q228 178 247 153Q266 128 297.5 120Q329 112 375 112Q411 112 436.5 116Q462 120 481.5 129Q501 138 516 152Q531 166 548 187ZM263 880 504 880L567 760H438L383 838L328 760H199Z" glyph-name="Ccircumflex" horiz-adv-x="691" unicode="Ĉ" /><glyph d="M560 94Q537 61 511 40Q485 19 454.5 7Q424 -5 388 -9.5Q352 -14 307 -14Q240 -14 191.5 5.5Q143 25 111.5 61.5Q80 98 64.5 149.5Q49 201 49 264Q49 398 120.5 468Q192 538 325 538Q420 538 472 511.5Q524 485 548 440L434 358Q415 389 390 404Q365 419 319 419Q254 419 229 382.5Q204 346 204 264Q204 183 231.5 146Q259 109 326 109Q350 109 368 113.5Q386 118 399 126.5Q412 135 421.5 145.5Q431 156 439 168ZM203 708 444 708L507 588H378L323 666L268 588H139Z" glyph-name="ccircumflex" horiz-adv-x="569" unicode="ĉ" /><glyph d="M676 107Q647 72 619.5 49Q592 26 558.5 12Q525 -2 483 -8Q441 -14 385 -14Q289 -14 225 3.5Q161 21 123 61.5Q85 102 69.5 168Q54 234 54 331Q54 443 71.5 516.5Q89 590 128.5 633Q168 676 231 693Q294 710 386 710Q451 710 497 702.5Q543 695 575.5 680Q608 665 630 643Q652 621 670 592L543 512Q531 531 520.5 544.5Q510 558 493 567Q476 576 449.5 580Q423 584 379 584Q329 584 297 576.5Q265 569 246 544.5Q227 520 219.5 472.5Q212 425 212 346Q212 270 220 224Q228 178 247 153Q266 128 297.5 120Q329 112 375 112Q411 112 436.5 116Q462 120 481.5 129Q501 138 516 152Q531 166 548 187ZM318 880 448 880V760H318Z" glyph-name="Cdotaccent" horiz-adv-x="691" unicode="Ċ" /><glyph d="M560 94Q537 61 511 40Q485 19 454.5 7Q424 -5 388 -9.5Q352 -14 307 -14Q240 -14 191.5 5.5Q143 25 111.5 61.5Q80 98 64.5 149.5Q49 201 49 264Q49 398 120.5 468Q192 538 325 538Q420 538 472 511.5Q524 485 548 440L434 358Q415 389 390 404Q365 419 319 419Q254 419 229 382.5Q204 346 204 264Q204 183 231.5 146Q259 109 326 109Q350 109 368 113.5Q386 118 399 126.5Q412 135 421.5 145.5Q431 156 439 168ZM258 708 388 708V588H258Z" glyph-name="cdotaccent" horiz-adv-x="569" unicode="ċ" /><glyph d="M676 107Q647 72 619.5 49Q592 26 558.5 12Q525 -2 483 -8Q441 -14 385 -14Q289 -14 225 3.5Q161 21 123 61.5Q85 102 69.5 168Q54 234 54 331Q54 443 71.5 516.5Q89 590 128.5 633Q168 676 231 693Q294 710 386 710Q451 710 497 702.5Q543 695 575.5 680Q608 665 630 643Q652 621 670 592L543 512Q531 531 520.5 544.5Q510 558 493 567Q476 576 449.5 580Q423 584 379 584Q329 584 297 576.5Q265 569 246 544.5Q227 520 219.5 472.5Q212 425 212 346Q212 270 220 224Q228 178 247 153Q266 128 297.5 120Q329 112 375 112Q411 112 436.5 116Q462 120 481.5 129Q501 138 516 152Q531 166 548 187ZM199 880 328 880L383 802L438 880H567L504 760H263Z" glyph-name="Ccaron" horiz-adv-x="691" unicode="Č" /><glyph d="M560 94Q537 61 511 40Q485 19 454.5 7Q424 -5 388 -9.5Q352 -14 307 -14Q240 -14 191.5 5.5Q143 25 111.5 61.5Q80 98 64.5 149.5Q49 201 49 264Q49 398 120.5 468Q192 538 325 538Q420 538 472 511.5Q524 485 548 440L434 358Q415 389 390 404Q365 419 319 419Q254 419 229 382.5Q204 346 204 264Q204 183 231.5 146Q259 109 326 109Q350 109 368 113.5Q386 118 399 126.5Q412 135 421.5 145.5Q431 156 439 168ZM139 708 268 708L323 630L378 708H507L444 588H203Z" glyph-name="ccaron" horiz-adv-x="569" unicode="č" /><glyph d="M80 698 316 698Q435 698 509 674Q583 650 624.5 605Q666 560 680.5 495Q695 430 695 349Q695 268 680.5 203Q666 138 624.5 93Q583 48 509 24Q435 0 316 0H80ZM316 126Q388 126 431.5 138.5Q475 151 498.5 178Q522 205 529.5 247.5Q537 290 537 349Q537 414 528.5 457Q520 500 495.5 525.5Q471 551 428 561.5Q385 572 316 572H239V126ZM199 880 328 880L383 802L438 880H567L504 760H263Z" glyph-name="Dcaron" horiz-adv-x="749" unicode="Ď" /><glyph d="M120 710 256 710L231 470H120Z" glyph-name="caron.alt" horiz-adv-x="360" unicode="" /><glyph d="M107 -86 283 -86L194 -216H43Z" glyph-name="commaaccent" horiz-adv-x="360" unicode="" /><glyph d="M173 710 324 710L260 590H84Z" glyph-name="revcommaaccent" horiz-adv-x="360" unicode="" /><glyph d="M80 698 236 698V406H241L511 698H705L428 418L735 0H539L323 311L236 219V0H80ZM305 -86 481 -86L392 -216H241Z" glyph-name="Kcommaaccent" horiz-adv-x="715" unicode="Ķ" /><glyph d="M68 728 216 728V310L392 523H558L380 322L592 0H420L280 223L216 149V0H68ZM233 -86 409 -86L320 -216H169Z" glyph-name="kcommaaccent" horiz-adv-x="576" unicode="ķ" /><glyph d="M70 720 220 720V590H70ZM70 523 220 523V0H70ZM214 -200Q194 -208 167 -212Q140 -216 117 -216Q95 -216 73.5 -212Q52 -208 35.5 -199Q19 -190 9 -175Q-1 -160 -1 -137Q-1 -115 8.5 -94Q18 -73 32.5 -55.5Q47 -38 64 -24Q81 -10 97 0H216Q199 -12 180 -26Q161 -40 145 -55Q129 -70 118.5 -85Q108 -100 108 -114Q108 -131 121.5 -135.5Q135 -140 147 -140Q165 -140 182 -136Q199 -132 214 -128Z" glyph-name="iogonek" horiz-adv-x="290" unicode="į" /><glyph d="M82 698 238 698V0H82ZM228 -200Q208 -208 181 -212Q154 -216 131 -216Q109 -216 87.5 -212Q66 -208 49.5 -199Q33 -190 23 -175Q13 -160 13 -137Q13 -115 22.5 -94Q32 -73 46.5 -55.5Q61 -38 78 -24Q95 -10 111 0H230Q213 -12 194 -26Q175 -40 159 -55Q143 -70 132.5 -85Q122 -100 122 -114Q122 -131 135.5 -135.5Q149 -140 161 -140Q179 -140 196 -136Q213 -132 228 -128Z" glyph-name="Iogonek" horiz-adv-x="320" unicode="Į" /><glyph d="M70 523 220 523V0H70ZM70 708Q76 688 93 676.5Q110 665 146 665Q185 665 200 676Q215 687 222 708H329Q321 646 276 617Q231 588 146 588Q61 588 16 617Q-29 646 -37 708Z" glyph-name="ibreve" horiz-adv-x="290" unicode="ĭ" /><glyph d="M82 698 238 698V0H82ZM84 880Q90 860 107 848.5Q124 837 160 837Q199 837 214 848Q229 859 236 880H343Q335 818 290 789Q245 760 160 760Q75 760 30 789Q-15 818 -23 880Z" glyph-name="Ibreve" horiz-adv-x="320" unicode="Ĭ" /><glyph d="M219 21 10 523H174L295 186L417 523H571L358 1L274 -216H113ZM287 708 463 708L374 588H223Z" glyph-name="yacute" horiz-adv-x="580" unicode="ý" /><glyph d="M219 21 10 523H174L295 186L417 523H571L358 1L274 -216H113ZM339 708 469 708V588H339ZM129 708 259 708V588H129Z" glyph-name="ydieresis" horiz-adv-x="580" unicode="ÿ" /><glyph d="M80 698 619 698V578H236V416H539V296H236V120H619V0H80ZM187 868 527 868V760H187Z" glyph-name="Emacron" horiz-adv-x="651" unicode="Ē" /><glyph d="M555 91Q524 45 469.5 16Q415 -13 319 -13Q240 -13 188 7.5Q136 28 105 64Q74 100 61.5 149.5Q49 199 49 256Q49 389 115.5 463.5Q182 538 319 538Q387 538 435 518.5Q483 499 513 464Q543 429 557 379.5Q571 330 571 269V216H204Q205 191 211.5 170.5Q218 150 232 135Q246 120 268.5 112Q291 104 325 104Q367 104 393 117Q419 130 445 162ZM416 322Q416 425 314 425Q264 425 236.5 399Q209 373 207 322ZM153 696 493 696V588H153Z" glyph-name="emacron" horiz-adv-x="620" unicode="ē" /><glyph d="M80 698 619 698V578H236V416H539V296H236V120H619V0H80ZM281 880Q287 860 304 848.5Q321 837 357 837Q396 837 411 848Q426 859 433 880H540Q532 818 487 789Q442 760 357 760Q272 760 227 789Q182 818 174 880Z" glyph-name="Ebreve" horiz-adv-x="651" unicode="Ĕ" /><glyph d="M555 91Q524 45 469.5 16Q415 -13 319 -13Q240 -13 188 7.5Q136 28 105 64Q74 100 61.5 149.5Q49 199 49 256Q49 389 115.5 463.5Q182 538 319 538Q387 538 435 518.5Q483 499 513 464Q543 429 557 379.5Q571 330 571 269V216H204Q205 191 211.5 170.5Q218 150 232 135Q246 120 268.5 112Q291 104 325 104Q367 104 393 117Q419 130 445 162ZM416 322Q416 425 314 425Q264 425 236.5 399Q209 373 207 322ZM247 708Q253 688 270 676.5Q287 665 323 665Q362 665 377 676Q392 687 399 708H506Q498 646 453 617Q408 588 323 588Q238 588 193 617Q148 646 140 708Z" glyph-name="ebreve" horiz-adv-x="620" unicode="ĕ" /><glyph d="M80 698 619 698V578H236V416H539V296H236V120H619V0H80ZM292 880 422 880V760H292Z" glyph-name="Edotaccent" horiz-adv-x="651" unicode="Ė" /><glyph d="M80 698 619 698V578H236V416H539V296H236V120H619V0H80ZM547 -200Q527 -208 500 -212Q473 -216 450 -216Q428 -216 406.5 -212Q385 -208 368.5 -199Q352 -190 342 -175Q332 -160 332 -137Q332 -115 341.5 -94Q351 -73 365.5 -55.5Q380 -38 397 -24Q414 -10 430 0H549Q532 -12 513 -26Q494 -40 478 -55Q462 -70 451.5 -85Q441 -100 441 -114Q441 -131 454.5 -135.5Q468 -140 480 -140Q498 -140 515 -136Q532 -132 547 -128Z" glyph-name="Eogonek" horiz-adv-x="651" unicode="Ę" /><glyph d="M555 91Q524 45 469.5 16Q415 -13 319 -13Q240 -13 188 7.5Q136 28 105 64Q74 100 61.5 149.5Q49 199 49 256Q49 389 115.5 463.5Q182 538 319 538Q387 538 435 518.5Q483 499 513 464Q543 429 557 379.5Q571 330 571 269V216H204Q205 191 211.5 170.5Q218 150 232 135Q246 120 268.5 112Q291 104 325 104Q367 104 393 117Q419 130 445 162ZM416 322Q416 425 314 425Q264 425 236.5 399Q209 373 207 322ZM258 708 388 708V588H258Z" glyph-name="edotaccent" horiz-adv-x="620" unicode="ė" /><glyph d="M555 91Q524 45 469.5 16Q415 -13 319 -13Q240 -13 188 7.5Q136 28 105 64Q74 100 61.5 149.5Q49 199 49 256Q49 389 115.5 463.5Q182 538 319 538Q387 538 435 518.5Q483 499 513 464Q543 429 557 379.5Q571 330 571 269V216H204Q205 191 211.5 170.5Q218 150 232 135Q246 120 268.5 112Q291 104 325 104Q367 104 393 117Q419 130 445 162ZM416 322Q416 425 314 425Q264 425 236.5 399Q209 373 207 322ZM391 -200Q371 -208 344 -212Q317 -216 294 -216Q272 -216 250.5 -212Q229 -208 212.5 -199Q196 -190 186 -175Q176 -160 176 -137Q176 -115 185.5 -94Q195 -73 209.5 -55.5Q224 -38 241 -24Q258 -10 274 0H393Q376 -12 357 -26Q338 -40 322 -55Q306 -70 295.5 -85Q285 -100 285 -114Q285 -131 298.5 -135.5Q312 -140 324 -140Q342 -140 359 -136Q376 -132 391 -128Z" glyph-name="eogonek" horiz-adv-x="620" unicode="ę" /><glyph d="M80 698 619 698V578H236V416H539V296H236V120H619V0H80ZM173 880 302 880L357 802L412 880H541L478 760H237Z" glyph-name="Ecaron" horiz-adv-x="651" unicode="Ě" /><glyph d="M555 91Q524 45 469.5 16Q415 -13 319 -13Q240 -13 188 7.5Q136 28 105 64Q74 100 61.5 149.5Q49 199 49 256Q49 389 115.5 463.5Q182 538 319 538Q387 538 435 518.5Q483 499 513 464Q543 429 557 379.5Q571 330 571 269V216H204Q205 191 211.5 170.5Q218 150 232 135Q246 120 268.5 112Q291 104 325 104Q367 104 393 117Q419 130 445 162ZM416 322Q416 425 314 425Q264 425 236.5 399Q209 373 207 322ZM139 708 268 708L323 630L378 708H507L444 588H203Z" glyph-name="ecaron" horiz-adv-x="620" unicode="ě" /><glyph d="M388 404 702 404V349Q702 253 690.5 184Q679 115 644.5 71Q610 27 547.5 6.5Q485 -14 382 -14Q284 -14 221 6Q158 26 120.5 70Q83 114 68.5 182.5Q54 251 54 349Q54 444 68.5 512.5Q83 581 120.5 625Q158 669 221 689.5Q284 710 382 710Q452 710 500 704.5Q548 699 582 685.5Q616 672 640.5 649Q665 626 689 592L562 512Q546 532 533 546Q520 560 502 568.5Q484 577 456 581Q428 585 382 585Q329 585 296 575.5Q263 566 244.5 540Q226 514 219 468Q212 422 212 349Q212 276 219.5 229.5Q227 183 246.5 157Q266 131 299 121Q332 111 382 111Q428 111 459.5 118.5Q491 126 510 145.5Q529 165 537.5 198Q546 231 547 282H388ZM263 880 504 880L567 760H438L383 838L328 760H199Z" glyph-name="Gcircumflex" horiz-adv-x="760" unicode="Ĝ" /><glyph d="M367 115Q411 115 449 108.5Q487 102 515 85Q543 68 559 39.5Q575 11 575 -32Q575 -92 548.5 -128.5Q522 -165 480.5 -184.5Q439 -204 388 -210Q337 -216 289 -216Q268 -216 240.5 -215Q213 -214 184.5 -210Q156 -206 128.5 -197.5Q101 -189 79 -173.5Q57 -158 44 -134.5Q31 -111 31 -76Q31 -34 52.5 -6.5Q74 21 110 39Q90 51 73 71.5Q56 92 56 131Q56 163 71.5 189Q87 215 111 227Q87 246 71 275.5Q55 305 55 350Q55 406 75.5 442.5Q96 479 129.5 500Q163 521 205 529.5Q247 538 291 538Q335 538 357.5 533.5Q380 529 400 524Q411 572 441.5 595Q472 618 528 618H587L566 514H528Q511 514 502 506.5Q493 499 489 488Q515 469 525 437.5Q535 406 535 358Q535 300 515 265Q495 230 462 211.5Q429 193 385.5 186.5Q342 180 295 180H236Q198 180 184 172Q170 164 170 146Q170 131 179.5 123Q189 115 221 115ZM198 355Q198 339 202 325Q206 311 216.5 300.5Q227 290 246 284Q265 278 295 278Q325 278 344 284Q363 290 373.5 300.5Q384 311 388 325Q392 339 392 355Q392 370 388 384.5Q384 399 373.5 410Q363 421 344 427.5Q325 434 295 434Q265 434 246 427.5Q227 421 216.5 410Q206 399 202 384.5Q198 370 198 355ZM266 -8Q212 -8 189 -22.5Q166 -37 166 -64Q166 -93 193 -106Q220 -119 288 -119Q354 -119 395.5 -106Q437 -93 437 -60Q437 -37 415 -22.5Q393 -8 349 -8ZM134 708 375 708L438 588H309L254 666L199 588H70Z" glyph-name="gcircumflex" horiz-adv-x="592" unicode="ĝ" /><glyph d="M388 404 702 404V349Q702 253 690.5 184Q679 115 644.5 71Q610 27 547.5 6.5Q485 -14 382 -14Q284 -14 221 6Q158 26 120.5 70Q83 114 68.5 182.5Q54 251 54 349Q54 444 68.5 512.5Q83 581 120.5 625Q158 669 221 689.5Q284 710 382 710Q452 710 500 704.5Q548 699 582 685.5Q616 672 640.5 649Q665 626 689 592L562 512Q546 532 533 546Q520 560 502 568.5Q484 577 456 581Q428 585 382 585Q329 585 296 575.5Q263 566 244.5 540Q226 514 219 468Q212 422 212 349Q212 276 219.5 229.5Q227 183 246.5 157Q266 131 299 121Q332 111 382 111Q428 111 459.5 118.5Q491 126 510 145.5Q529 165 537.5 198Q546 231 547 282H388ZM307 880Q313 860 330 848.5Q347 837 383 837Q422 837 437 848Q452 859 459 880H566Q558 818 513 789Q468 760 383 760Q298 760 253 789Q208 818 200 880Z" glyph-name="Gbreve" horiz-adv-x="760" unicode="Ğ" /><glyph d="M367 115Q411 115 449 108.5Q487 102 515 85Q543 68 559 39.5Q575 11 575 -32Q575 -92 548.5 -128.5Q522 -165 480.5 -184.5Q439 -204 388 -210Q337 -216 289 -216Q268 -216 240.5 -215Q213 -214 184.5 -210Q156 -206 128.5 -197.5Q101 -189 79 -173.5Q57 -158 44 -134.5Q31 -111 31 -76Q31 -34 52.5 -6.5Q74 21 110 39Q90 51 73 71.5Q56 92 56 131Q56 163 71.5 189Q87 215 111 227Q87 246 71 275.5Q55 305 55 350Q55 406 75.5 442.5Q96 479 129.5 500Q163 521 205 529.5Q247 538 291 538Q335 538 357.5 533.5Q380 529 400 524Q411 572 441.5 595Q472 618 528 618H587L566 514H528Q511 514 502 506.5Q493 499 489 488Q515 469 525 437.5Q535 406 535 358Q535 300 515 265Q495 230 462 211.5Q429 193 385.5 186.5Q342 180 295 180H236Q198 180 184 172Q170 164 170 146Q170 131 179.5 123Q189 115 221 115ZM198 355Q198 339 202 325Q206 311 216.5 300.5Q227 290 246 284Q265 278 295 278Q325 278 344 284Q363 290 373.5 300.5Q384 311 388 325Q392 339 392 355Q392 370 388 384.5Q384 399 373.5 410Q363 421 344 427.5Q325 434 295 434Q265 434 246 427.5Q227 421 216.5 410Q206 399 202 384.5Q198 370 198 355ZM266 -8Q212 -8 189 -22.5Q166 -37 166 -64Q166 -93 193 -106Q220 -119 288 -119Q354 -119 395.5 -106Q437 -93 437 -60Q437 -37 415 -22.5Q393 -8 349 -8ZM178 708Q184 688 201 676.5Q218 665 254 665Q293 665 308 676Q323 687 330 708H437Q429 646 384 617Q339 588 254 588Q169 588 124 617Q79 646 71 708Z" glyph-name="gbreve" horiz-adv-x="592" unicode="ğ" /><glyph d="M388 404 702 404V349Q702 253 690.5 184Q679 115 644.5 71Q610 27 547.5 6.5Q485 -14 382 -14Q284 -14 221 6Q158 26 120.5 70Q83 114 68.5 182.5Q54 251 54 349Q54 444 68.5 512.5Q83 581 120.5 625Q158 669 221 689.5Q284 710 382 710Q452 710 500 704.5Q548 699 582 685.5Q616 672 640.5 649Q665 626 689 592L562 512Q546 532 533 546Q520 560 502 568.5Q484 577 456 581Q428 585 382 585Q329 585 296 575.5Q263 566 244.5 540Q226 514 219 468Q212 422 212 349Q212 276 219.5 229.5Q227 183 246.5 157Q266 131 299 121Q332 111 382 111Q428 111 459.5 118.5Q491 126 510 145.5Q529 165 537.5 198Q546 231 547 282H388ZM318 880 448 880V760H318Z" glyph-name="Gdotaccent" horiz-adv-x="760" unicode="Ġ" /><glyph d="M367 115Q411 115 449 108.5Q487 102 515 85Q543 68 559 39.5Q575 11 575 -32Q575 -92 548.5 -128.5Q522 -165 480.5 -184.5Q439 -204 388 -210Q337 -216 289 -216Q268 -216 240.5 -215Q213 -214 184.5 -210Q156 -206 128.5 -197.5Q101 -189 79 -173.5Q57 -158 44 -134.5Q31 -111 31 -76Q31 -34 52.5 -6.5Q74 21 110 39Q90 51 73 71.5Q56 92 56 131Q56 163 71.5 189Q87 215 111 227Q87 246 71 275.5Q55 305 55 350Q55 406 75.5 442.5Q96 479 129.5 500Q163 521 205 529.5Q247 538 291 538Q335 538 357.5 533.5Q380 529 400 524Q411 572 441.5 595Q472 618 528 618H587L566 514H528Q511 514 502 506.5Q493 499 489 488Q515 469 525 437.5Q535 406 535 358Q535 300 515 265Q495 230 462 211.5Q429 193 385.5 186.5Q342 180 295 180H236Q198 180 184 172Q170 164 170 146Q170 131 179.5 123Q189 115 221 115ZM198 355Q198 339 202 325Q206 311 216.5 300.5Q227 290 246 284Q265 278 295 278Q325 278 344 284Q363 290 373.5 300.5Q384 311 388 325Q392 339 392 355Q392 370 388 384.5Q384 399 373.5 410Q363 421 344 427.5Q325 434 295 434Q265 434 246 427.5Q227 421 216.5 410Q206 399 202 384.5Q198 370 198 355ZM266 -8Q212 -8 189 -22.5Q166 -37 166 -64Q166 -93 193 -106Q220 -119 288 -119Q354 -119 395.5 -106Q437 -93 437 -60Q437 -37 415 -22.5Q393 -8 349 -8ZM189 708 319 708V588H189Z" glyph-name="gdotaccent" horiz-adv-x="592" unicode="ġ" /><glyph d="M388 404 702 404V349Q702 253 690.5 184Q679 115 644.5 71Q610 27 547.5 6.5Q485 -14 382 -14Q284 -14 221 6Q158 26 120.5 70Q83 114 68.5 182.5Q54 251 54 349Q54 444 68.5 512.5Q83 581 120.5 625Q158 669 221 689.5Q284 710 382 710Q452 710 500 704.5Q548 699 582 685.5Q616 672 640.5 649Q665 626 689 592L562 512Q546 532 533 546Q520 560 502 568.5Q484 577 456 581Q428 585 382 585Q329 585 296 575.5Q263 566 244.5 540Q226 514 219 468Q212 422 212 349Q212 276 219.5 229.5Q227 183 246.5 157Q266 131 299 121Q332 111 382 111Q428 111 459.5 118.5Q491 126 510 145.5Q529 165 537.5 198Q546 231 547 282H388ZM305 -86 481 -86L392 -216H241Z" glyph-name="Gcommaaccent" horiz-adv-x="760" unicode="Ģ" /><glyph d="M219 21 10 523H174L295 186L417 523H571L358 1L274 -216H113ZM146 708 322 708L386 588H235Z" glyph-name="ygrave" horiz-adv-x="580" unicode="ỳ" /><glyph d="M240 265 2 698H170L321 405L468 698H636L398 265V0H240ZM166 880 342 880L406 760H255Z" glyph-name="Ygrave" horiz-adv-x="638" unicode="Ỳ" /><glyph d="M16 698 185 698L315 172H317L450 698H619L745 173H747L885 698H1049L832 0H657L532 514H530L402 0H227ZM571 880 701 880V760H571ZM361 880 491 880V760H361Z" glyph-name="Wdieresis" horiz-adv-x="1065" unicode="Ẅ" /><glyph d="M16 698 185 698L315 172H317L450 698H619L745 173H747L885 698H1049L832 0H657L532 514H530L402 0H227ZM519 880 695 880L606 760H455Z" glyph-name="Wacute" horiz-adv-x="1065" unicode="Ẃ" /><glyph d="M16 698 185 698L315 172H317L450 698H619L745 173H747L885 698H1049L832 0H657L532 514H530L402 0H227ZM378 880 554 880L618 760H467Z" glyph-name="Wgrave" horiz-adv-x="1065" unicode="Ẁ" /><glyph d="M20 523 178 523L259 177H260L363 523H489L595 176H597L673 523H823L665 0H526L424 339H422L322 0H184ZM270 708 446 708L510 588H359Z" glyph-name="wgrave" horiz-adv-x="843" unicode="ẁ" /><glyph d="M20 523 178 523L259 177H260L363 523H489L595 176H597L673 523H823L665 0H526L424 339H422L322 0H184ZM411 708 587 708L498 588H347Z" glyph-name="wacute" horiz-adv-x="843" unicode="ẃ" /><glyph d="M20 523 178 523L259 177H260L363 523H489L595 176H597L673 523H823L665 0H526L424 339H422L322 0H184ZM463 708 593 708V588H463ZM253 708 383 708V588H253Z" glyph-name="wdieresis" horiz-adv-x="843" unicode="ẅ" /><glyph d="M273 -136Q293 -146 305 -150Q317 -154 340 -154Q356 -154 366.5 -150Q377 -146 377 -128Q377 -108 363 -104.5Q349 -101 334 -101H279V0H354V-38Q381 -38 400.5 -41.5Q420 -45 432.5 -55Q445 -65 451 -83Q457 -101 457 -129Q457 -155 446 -172Q435 -189 417.5 -198.5Q400 -208 378 -212Q356 -216 334 -216Q279 -216 233 -191ZM676 107Q647 72 619.5 49Q592 26 558.5 12Q525 -2 483 -8Q441 -14 385 -14Q289 -14 225 3.5Q161 21 123 61.5Q85 102 69.5 168Q54 234 54 331Q54 443 71.5 516.5Q89 590 128.5 633Q168 676 231 693Q294 710 386 710Q451 710 497 702.5Q543 695 575.5 680Q608 665 630 643Q652 621 670 592L543 512Q531 531 520.5 544.5Q510 558 493 567Q476 576 449.5 580Q423 584 379 584Q329 584 297 576.5Q265 569 246 544.5Q227 520 219.5 472.5Q212 425 212 346Q212 270 220 224Q228 178 247 153Q266 128 297.5 120Q329 112 375 112Q411 112 436.5 116Q462 120 481.5 129Q501 138 516 152Q531 166 548 187Z" glyph-name="Ccedilla" horiz-adv-x="691" unicode="Ç" /><glyph d="M99 -131Q111 -140 126 -147Q141 -154 161 -154Q178 -154 191 -147.5Q204 -141 204 -127Q204 -117 195.5 -108.5Q187 -100 161 -100Q150 -100 136.5 -102Q123 -104 106 -108L162 0H237L215 -48Q257 -53 276 -71.5Q295 -90 295 -123Q295 -152 282.5 -170.5Q270 -189 250.5 -199Q231 -209 207.5 -212.5Q184 -216 162 -216Q135 -216 112 -211Q89 -206 66 -193Z" glyph-name="cedilla" horiz-adv-x="360" unicode="¸" /><glyph d="M560 94Q537 61 511 40Q485 19 454.5 7Q424 -5 388 -9.5Q352 -14 307 -14Q240 -14 191.5 5.5Q143 25 111.5 61.5Q80 98 64.5 149.5Q49 201 49 264Q49 398 120.5 468Q192 538 325 538Q420 538 472 511.5Q524 485 548 440L434 358Q415 389 390 404Q365 419 319 419Q254 419 229 382.5Q204 346 204 264Q204 183 231.5 146Q259 109 326 109Q350 109 368 113.5Q386 118 399 126.5Q412 135 421.5 145.5Q431 156 439 168ZM235 -131Q247 -140 262 -147Q277 -154 297 -154Q314 -154 327 -147.5Q340 -141 340 -127Q340 -117 331.5 -108.5Q323 -100 297 -100Q286 -100 272.5 -102Q259 -104 242 -108L298 0H373L351 -48Q393 -53 412 -71.5Q431 -90 431 -123Q431 -152 418.5 -170.5Q406 -189 386.5 -199Q367 -209 343.5 -212.5Q320 -216 298 -216Q271 -216 248 -211Q225 -206 202 -193Z" glyph-name="ccedilla" horiz-adv-x="569" unicode="ç" /><glyph d="M80 698 236 698V120H539V0H80ZM232 -86 408 -86L319 -216H168Z" glyph-name="Lcommaaccent" horiz-adv-x="553" unicode="Ļ" /><glyph d="M70 728 220 728V0H70ZM66 -86 242 -86L153 -216H2Z" glyph-name="lcommaaccent" horiz-adv-x="290" unicode="ļ" /><glyph d="M227 578 14 578V698H596V578H383V0H227ZM125 880 254 880L309 802L364 880H493L430 760H189Z" glyph-name="Tcaron" horiz-adv-x="610" unicode="Ť" /><glyph d="M94 416 14 416V523H94V672H244V523H353V416H244V150Q244 118 257.5 107.5Q271 97 302 97Q319 97 332.5 99Q346 101 357 103V0Q345 -4 313.5 -8Q282 -12 248 -12Q203 -12 173.5 -2.5Q144 7 126.5 25Q109 43 101.5 69.5Q94 96 94 130ZM139 -86 315 -86L226 -216H75Z" glyph-name="tcommaaccent" horiz-adv-x="371" unicode="ţ" /><glyph d="M227 578 14 578V698H596V578H383V0H227ZM229 -86 405 -86L316 -216H165Z" glyph-name="Tcommaaccent" horiz-adv-x="610" unicode="Ţ" /><glyph d="M141 171Q153 156 165.5 143.5Q178 131 194.5 122Q211 113 233.5 108Q256 103 288 103Q334 103 353 116Q372 129 372 153Q372 165 367 173Q362 181 349.5 187Q337 193 316 198Q295 203 263 208Q213 215 172.5 224Q132 233 103 249.5Q74 266 58 293Q42 320 42 364Q42 448 101 493Q160 538 274 538Q343 538 397 517.5Q451 497 499 443L384 368Q370 391 339.5 408Q309 425 270 425Q238 425 215 413Q192 401 192 378Q192 363 203 353.5Q214 344 232 338Q250 332 273 328.5Q296 325 320 322Q361 317 398 309.5Q435 302 462.5 287Q490 272 506 245Q522 218 522 174Q522 122 500 86Q478 50 442.5 28Q407 6 361 -4Q315 -14 267 -14Q105 -14 18 95ZM96 708 225 708L280 630L335 708H464L401 588H160Z" glyph-name="scaron" horiz-adv-x="544" unicode="š" /><glyph d="M143 212Q159 188 176.5 169Q194 150 215.5 137Q237 124 265 117.5Q293 111 330 111Q355 111 381.5 115.5Q408 120 429 131Q450 142 463.5 160.5Q477 179 477 208Q477 232 467.5 247.5Q458 263 443 272Q428 281 409 285Q390 289 371 291L256 304Q210 309 171 321.5Q132 334 103.5 356.5Q75 379 59 413Q43 447 43 496Q43 597 113.5 653.5Q184 710 331 710Q411 710 479.5 688Q548 666 607 601L482 522Q443 561 407 573Q371 585 324 585Q262 585 230.5 567.5Q199 550 199 508Q199 480 218.5 461.5Q238 443 298 437L417 425Q523 414 578.5 365Q634 316 634 222Q634 159 609.5 114.5Q585 70 542.5 41.5Q500 13 443 -0.5Q386 -14 320 -14Q219 -14 147.5 18Q76 50 21 118ZM148 880 277 880L332 802L387 880H516L453 760H212Z" glyph-name="Scaron" horiz-adv-x="654" unicode="Š" /><glyph d="M141 171Q153 156 165.5 143.5Q178 131 194.5 122Q211 113 233.5 108Q256 103 288 103Q334 103 353 116Q372 129 372 153Q372 165 367 173Q362 181 349.5 187Q337 193 316 198Q295 203 263 208Q213 215 172.5 224Q132 233 103 249.5Q74 266 58 293Q42 320 42 364Q42 448 101 493Q160 538 274 538Q343 538 397 517.5Q451 497 499 443L384 368Q370 391 339.5 408Q309 425 270 425Q238 425 215 413Q192 401 192 378Q192 363 203 353.5Q214 344 232 338Q250 332 273 328.5Q296 325 320 322Q361 317 398 309.5Q435 302 462.5 287Q490 272 506 245Q522 218 522 174Q522 122 500 86Q478 50 442.5 28Q407 6 361 -4Q315 -14 267 -14Q105 -14 18 95ZM185 -131Q197 -140 212 -147Q227 -154 247 -154Q264 -154 277 -147.5Q290 -141 290 -127Q290 -117 281.5 -108.5Q273 -100 247 -100Q236 -100 222.5 -102Q209 -104 192 -108L248 0H323L301 -48Q343 -53 362 -71.5Q381 -90 381 -123Q381 -152 368.5 -170.5Q356 -189 336.5 -199Q317 -209 293.5 -212.5Q270 -216 248 -216Q221 -216 198 -211Q175 -206 152 -193Z" glyph-name="scedilla" horiz-adv-x="544" unicode="ş" /><glyph d="M143 212Q159 188 176.5 169Q194 150 215.5 137Q237 124 265 117.5Q293 111 330 111Q355 111 381.5 115.5Q408 120 429 131Q450 142 463.5 160.5Q477 179 477 208Q477 232 467.5 247.5Q458 263 443 272Q428 281 409 285Q390 289 371 291L256 304Q210 309 171 321.5Q132 334 103.5 356.5Q75 379 59 413Q43 447 43 496Q43 597 113.5 653.5Q184 710 331 710Q411 710 479.5 688Q548 666 607 601L482 522Q443 561 407 573Q371 585 324 585Q262 585 230.5 567.5Q199 550 199 508Q199 480 218.5 461.5Q238 443 298 437L417 425Q523 414 578.5 365Q634 316 634 222Q634 159 609.5 114.5Q585 70 542.5 41.5Q500 13 443 -0.5Q386 -14 320 -14Q219 -14 147.5 18Q76 50 21 118ZM244 -131Q256 -140 271 -147Q286 -154 306 -154Q323 -154 336 -147.5Q349 -141 349 -127Q349 -117 340.5 -108.5Q332 -100 306 -100Q295 -100 281.5 -102Q268 -104 251 -108L307 0H382L360 -48Q402 -53 421 -71.5Q440 -90 440 -123Q440 -152 427.5 -170.5Q415 -189 395.5 -199Q376 -209 352.5 -212.5Q329 -216 307 -216Q280 -216 257 -211Q234 -206 211 -193Z" glyph-name="Scedilla" horiz-adv-x="654" unicode="Ş" /><glyph d="M141 171Q153 156 165.5 143.5Q178 131 194.5 122Q211 113 233.5 108Q256 103 288 103Q334 103 353 116Q372 129 372 153Q372 165 367 173Q362 181 349.5 187Q337 193 316 198Q295 203 263 208Q213 215 172.5 224Q132 233 103 249.5Q74 266 58 293Q42 320 42 364Q42 448 101 493Q160 538 274 538Q343 538 397 517.5Q451 497 499 443L384 368Q370 391 339.5 408Q309 425 270 425Q238 425 215 413Q192 401 192 378Q192 363 203 353.5Q214 344 232 338Q250 332 273 328.5Q296 325 320 322Q361 317 398 309.5Q435 302 462.5 287Q490 272 506 245Q522 218 522 174Q522 122 500 86Q478 50 442.5 28Q407 6 361 -4Q315 -14 267 -14Q105 -14 18 95ZM160 708 401 708L464 588H335L280 666L225 588H96Z" glyph-name="scircumflex" horiz-adv-x="544" unicode="ŝ" /><glyph d="M143 212Q159 188 176.5 169Q194 150 215.5 137Q237 124 265 117.5Q293 111 330 111Q355 111 381.5 115.5Q408 120 429 131Q450 142 463.5 160.5Q477 179 477 208Q477 232 467.5 247.5Q458 263 443 272Q428 281 409 285Q390 289 371 291L256 304Q210 309 171 321.5Q132 334 103.5 356.5Q75 379 59 413Q43 447 43 496Q43 597 113.5 653.5Q184 710 331 710Q411 710 479.5 688Q548 666 607 601L482 522Q443 561 407 573Q371 585 324 585Q262 585 230.5 567.5Q199 550 199 508Q199 480 218.5 461.5Q238 443 298 437L417 425Q523 414 578.5 365Q634 316 634 222Q634 159 609.5 114.5Q585 70 542.5 41.5Q500 13 443 -0.5Q386 -14 320 -14Q219 -14 147.5 18Q76 50 21 118ZM212 880 453 880L516 760H387L332 838L277 760H148Z" glyph-name="Scircumflex" horiz-adv-x="654" unicode="Ŝ" /><glyph d="M141 171Q153 156 165.5 143.5Q178 131 194.5 122Q211 113 233.5 108Q256 103 288 103Q334 103 353 116Q372 129 372 153Q372 165 367 173Q362 181 349.5 187Q337 193 316 198Q295 203 263 208Q213 215 172.5 224Q132 233 103 249.5Q74 266 58 293Q42 320 42 364Q42 448 101 493Q160 538 274 538Q343 538 397 517.5Q451 497 499 443L384 368Q370 391 339.5 408Q309 425 270 425Q238 425 215 413Q192 401 192 378Q192 363 203 353.5Q214 344 232 338Q250 332 273 328.5Q296 325 320 322Q361 317 398 309.5Q435 302 462.5 287Q490 272 506 245Q522 218 522 174Q522 122 500 86Q478 50 442.5 28Q407 6 361 -4Q315 -14 267 -14Q105 -14 18 95ZM268 708 444 708L355 588H204Z" glyph-name="sacute" horiz-adv-x="544" unicode="ś" /><glyph d="M80 698 430 698Q495 698 540 686Q585 674 612.5 648.5Q640 623 652.5 582.5Q665 542 665 485Q665 438 652 404.5Q639 371 617 348Q595 325 566.5 310.5Q538 296 507 287L688 0H498L342 265H236V0H80ZM378 384Q449 384 476 409Q503 434 503 485Q503 537 481.5 557.5Q460 578 404 578H236V384ZM273 -86 449 -86L360 -216H209Z" glyph-name="Rcommaaccent" horiz-adv-x="722" unicode="Ŗ" /><glyph d="M68 523 215 523V430H216Q226 452 239 471.5Q252 491 273 505Q294 519 325.5 527Q357 535 403 535V387Q392 389 378.5 391Q365 393 349 393Q297 393 265 367Q233 341 218 306V0H68ZM67 -86 243 -86L154 -216H3Z" glyph-name="rcommaaccent" horiz-adv-x="420" unicode="ŗ" /><glyph d="M80 698 430 698Q495 698 540 686Q585 674 612.5 648.5Q640 623 652.5 582.5Q665 542 665 485Q665 438 652 404.5Q639 371 617 348Q595 325 566.5 310.5Q538 296 507 287L688 0H498L342 265H236V0H80ZM378 384Q449 384 476 409Q503 434 503 485Q503 537 481.5 557.5Q460 578 404 578H236V384ZM179 880 308 880L363 802L418 880H547L484 760H243Z" glyph-name="Rcaron" horiz-adv-x="722" unicode="Ř" /><glyph d="M68 523 215 523V430H216Q226 452 239 471.5Q252 491 273 505Q294 519 325.5 527Q357 535 403 535V387Q392 389 378.5 391Q365 393 349 393Q297 393 265 367Q233 341 218 306V0H68ZM49 710 178 710L233 632L288 710H417L354 590H113Z" glyph-name="rcaron" horiz-adv-x="420" unicode="ř" /><glyph d="M143 212Q159 188 176.5 169Q194 150 215.5 137Q237 124 265 117.5Q293 111 330 111Q355 111 381.5 115.5Q408 120 429 131Q450 142 463.5 160.5Q477 179 477 208Q477 232 467.5 247.5Q458 263 443 272Q428 281 409 285Q390 289 371 291L256 304Q210 309 171 321.5Q132 334 103.5 356.5Q75 379 59 413Q43 447 43 496Q43 597 113.5 653.5Q184 710 331 710Q411 710 479.5 688Q548 666 607 601L482 522Q443 561 407 573Q371 585 324 585Q262 585 230.5 567.5Q199 550 199 508Q199 480 218.5 461.5Q238 443 298 437L417 425Q523 414 578.5 365Q634 316 634 222Q634 159 609.5 114.5Q585 70 542.5 41.5Q500 13 443 -0.5Q386 -14 320 -14Q219 -14 147.5 18Q76 50 21 118ZM320 880 496 880L407 760H256Z" glyph-name="Sacute" horiz-adv-x="654" unicode="Ś" /><glyph d="M80 698 275 698L569 193H570V698H719V0H525L230 506H229V0H80ZM402 880 578 880L489 760H338Z" glyph-name="Nacute" horiz-adv-x="799" unicode="Ń" /><glyph d="M68 523 216 523V460H218Q222 480 236.5 494.5Q251 509 273 519Q295 529 322 533.5Q349 538 378 538Q429 538 463 525.5Q497 513 518 491.5Q539 470 547.5 441Q556 412 556 380V0H405V298Q405 335 401 358.5Q397 382 387.5 395.5Q378 409 360.5 413.5Q343 418 316 418Q286 418 267 412.5Q248 407 237.5 394.5Q227 382 223 360.5Q219 339 219 307V0H68ZM324 710 500 710L411 590H260Z" glyph-name="nacute" horiz-adv-x="620" unicode="ń" /><glyph d="M80 698 275 698L569 193H570V698H719V0H525L230 506H229V0H80ZM298 -86 474 -86L385 -216H234Z" glyph-name="Ncommaaccent" horiz-adv-x="799" unicode="Ņ" /><glyph d="M68 523 216 523V460H218Q222 480 236.5 494.5Q251 509 273 519Q295 529 322 533.5Q349 538 378 538Q429 538 463 525.5Q497 513 518 491.5Q539 470 547.5 441Q556 412 556 380V0H405V298Q405 335 401 358.5Q397 382 387.5 395.5Q378 409 360.5 413.5Q343 418 316 418Q286 418 267 412.5Q248 407 237.5 394.5Q227 382 223 360.5Q219 339 219 307V0H68ZM236 -86 412 -86L323 -216H172Z" glyph-name="ncommaaccent" horiz-adv-x="620" unicode="ņ" /><glyph d="M80 698 275 698L569 193H570V698H719V0H525L230 506H229V0H80ZM230 880 359 880L414 802L469 880H598L535 760H294Z" glyph-name="Ncaron" horiz-adv-x="799" unicode="Ň" /><glyph d="M68 523 216 523V460H218Q222 480 236.5 494.5Q251 509 273 519Q295 529 322 533.5Q349 538 378 538Q429 538 463 525.5Q497 513 518 491.5Q539 470 547.5 441Q556 412 556 380V0H405V298Q405 335 401 358.5Q397 382 387.5 395.5Q378 409 360.5 413.5Q343 418 316 418Q286 418 267 412.5Q248 407 237.5 394.5Q227 382 223 360.5Q219 339 219 307V0H68ZM152 710 281 710L336 632L391 710H520L457 590H216Z" glyph-name="ncaron" horiz-adv-x="620" unicode="ň" /><glyph d="M68 523 216 523V460H218Q222 480 236.5 494.5Q251 509 273 519Q295 529 322 533.5Q349 538 378 538Q429 538 463 525.5Q497 513 518 491.5Q539 470 547.5 441Q556 412 556 380V0H405V298Q405 335 401 358.5Q397 382 387.5 395.5Q378 409 360.5 413.5Q343 418 316 418Q286 418 267 412.5Q248 407 237.5 394.5Q227 382 223 360.5Q219 339 219 307V0H68ZM133 710 309 710L220 590H69Z" glyph-name="napostrophe" horiz-adv-x="620" unicode="ŉ" /><glyph d="M382 -14Q286 -14 222.5 6.5Q159 27 121.5 71Q84 115 69 184Q54 253 54 349Q54 445 69 513.5Q84 582 121.5 625.5Q159 669 222.5 689.5Q286 710 382 710Q478 710 541.5 689.5Q605 669 642.5 625.5Q680 582 695 513.5Q710 445 710 349Q710 253 695 184Q680 115 642.5 71Q605 27 541.5 6.5Q478 -14 382 -14ZM382 111Q430 111 462.5 119Q495 127 515 152.5Q535 178 543.5 225Q552 272 552 349Q552 428 543.5 474.5Q535 521 515.5 545.5Q496 570 463 577.5Q430 585 382 585Q334 585 301 577.5Q268 570 248.5 545.5Q229 521 220.5 474.5Q212 428 212 349Q212 272 220.5 225Q229 178 249 152.5Q269 127 301.5 119Q334 111 382 111ZM213 868 553 868V760H213Z" glyph-name="Omacron" horiz-adv-x="764" unicode="Ō" /><glyph d="M323 -14Q249 -14 197 5.5Q145 25 112 61Q79 97 64 148Q49 199 49 263Q49 328 64.5 379Q80 430 113 465.5Q146 501 198 519.5Q250 538 323 538Q396 538 448 519.5Q500 501 533 465.5Q566 430 581.5 379Q597 328 597 263Q597 199 581.5 148Q566 97 533 61Q500 25 448 5.5Q396 -14 323 -14ZM323 107Q390 107 416.5 143Q443 179 443 263Q443 345 417 382Q391 419 323 419Q255 419 229 382Q203 345 203 263Q203 221 209 191.5Q215 162 229 143Q243 124 266 115.5Q289 107 323 107ZM153 696 493 696V588H153Z" glyph-name="omacron" horiz-adv-x="646" unicode="ō" /><glyph d="M382 -14Q286 -14 222.5 6.5Q159 27 121.5 71Q84 115 69 184Q54 253 54 349Q54 445 69 513.5Q84 582 121.5 625.5Q159 669 222.5 689.5Q286 710 382 710Q478 710 541.5 689.5Q605 669 642.5 625.5Q680 582 695 513.5Q710 445 710 349Q710 253 695 184Q680 115 642.5 71Q605 27 541.5 6.5Q478 -14 382 -14ZM382 111Q430 111 462.5 119Q495 127 515 152.5Q535 178 543.5 225Q552 272 552 349Q552 428 543.5 474.5Q535 521 515.5 545.5Q496 570 463 577.5Q430 585 382 585Q334 585 301 577.5Q268 570 248.5 545.5Q229 521 220.5 474.5Q212 428 212 349Q212 272 220.5 225Q229 178 249 152.5Q269 127 301.5 119Q334 111 382 111ZM307 880Q313 860 330 848.5Q347 837 383 837Q422 837 437 848Q452 859 459 880H566Q558 818 513 789Q468 760 383 760Q298 760 253 789Q208 818 200 880Z" glyph-name="Obreve" horiz-adv-x="764" unicode="Ŏ" /><glyph d="M323 -14Q249 -14 197 5.5Q145 25 112 61Q79 97 64 148Q49 199 49 263Q49 328 64.5 379Q80 430 113 465.5Q146 501 198 519.5Q250 538 323 538Q396 538 448 519.5Q500 501 533 465.5Q566 430 581.5 379Q597 328 597 263Q597 199 581.5 148Q566 97 533 61Q500 25 448 5.5Q396 -14 323 -14ZM323 107Q390 107 416.5 143Q443 179 443 263Q443 345 417 382Q391 419 323 419Q255 419 229 382Q203 345 203 263Q203 221 209 191.5Q215 162 229 143Q243 124 266 115.5Q289 107 323 107ZM247 708Q253 688 270 676.5Q287 665 323 665Q362 665 377 676Q392 687 399 708H506Q498 646 453 617Q408 588 323 588Q238 588 193 617Q148 646 140 708Z" glyph-name="obreve" horiz-adv-x="646" unicode="ŏ" /><glyph d="M36 95 388 578H46V698H590V603L238 120H596V0H36ZM304 880 480 880L391 760H240Z" glyph-name="Zacute" horiz-adv-x="632" unicode="Ź" /><glyph d="M219 21 10 523H174L295 186L417 523H571L358 1L274 -216H113ZM179 708 420 708L483 588H354L299 666L244 588H115Z" glyph-name="ycircumflex" horiz-adv-x="580" unicode="ŷ" /><glyph d="M28 84 293 416H38V523H492V439L227 108H498V0H28ZM245 708 421 708L332 588H181Z" glyph-name="zacute" horiz-adv-x="526" unicode="ź" /><glyph d="M36 95 388 578H46V698H590V603L238 120H596V0H36ZM251 880 381 880V760H251Z" glyph-name="Zdotaccent" horiz-adv-x="632" unicode="Ż" /><glyph d="M28 84 293 416H38V523H492V439L227 108H498V0H28ZM192 708 322 708V588H192Z" glyph-name="zdotaccent" horiz-adv-x="526" unicode="ż" /><glyph d="M36 95 388 578H46V698H590V603L238 120H596V0H36ZM132 880 261 880L316 802L371 880H500L437 760H196Z" glyph-name="Zcaron" horiz-adv-x="632" unicode="Ž" /><glyph d="M28 84 293 416H38V523H492V439L227 108H498V0H28ZM73 708 202 708L257 630L312 708H441L378 588H137Z" glyph-name="zcaron" horiz-adv-x="526" unicode="ž" /><glyph d="M240 265 2 698H170L321 405L468 698H636L398 265V0H240ZM199 880 440 880L503 760H374L319 838L264 760H135Z" glyph-name="Ycircumflex" horiz-adv-x="638" unicode="Ŷ" /><glyph d="M20 523 178 523L259 177H260L363 523H489L595 176H597L673 523H823L665 0H526L424 339H422L322 0H184ZM303 708 544 708L607 588H478L423 666L368 588H239Z" glyph-name="wcircumflex" horiz-adv-x="843" unicode="ŵ" /><glyph d="M16 698 185 698L315 172H317L450 698H619L745 173H747L885 698H1049L832 0H657L532 514H530L402 0H227ZM411 880 652 880L715 760H586L531 838L476 760H347Z" glyph-name="Wcircumflex" horiz-adv-x="1065" unicode="Ŵ" /><glyph d="M64 523 215 523V224Q215 182 220 158Q225 134 236.5 122Q248 110 265.5 107Q283 104 307 104Q333 104 351 108Q369 112 380 124Q391 136 396 158Q401 180 401 215V523H552V0H404V63H402Q398 43 383 28.5Q368 14 346.5 4.5Q325 -5 298 -9.5Q271 -14 242 -14Q191 -14 157 -1.5Q123 11 102 33Q81 55 72.5 84Q64 113 64 145ZM201 708 327 708L258 588H137ZM401 708 527 708L458 588H337Z" glyph-name="uhungarumlaut" horiz-adv-x="620" unicode="ű" /><glyph d="M80 698 238 698V271Q238 225 244.5 195Q251 165 267.5 147Q284 129 312.5 122Q341 115 384 115Q427 115 455.5 122Q484 129 500.5 147Q517 165 523.5 195Q530 225 530 271V698H688V263Q688 186 668.5 133Q649 80 610.5 47.5Q572 15 515.5 0.5Q459 -14 384 -14Q309 -14 252.5 0.5Q196 15 157.5 47.5Q119 80 99.5 133Q80 186 80 263ZM274 880 400 880L331 760H210ZM474 880 600 880L531 760H410Z" glyph-name="Uhungarumlaut" horiz-adv-x="774" unicode="Ű" /><glyph d="M64 523 215 523V224Q215 182 220 158Q225 134 236.5 122Q248 110 265.5 107Q283 104 307 104Q333 104 351 108Q369 112 380 124Q391 136 396 158Q401 180 401 215V523H552V0H404V63H402Q398 43 383 28.5Q368 14 346.5 4.5Q325 -5 298 -9.5Q271 -14 242 -14Q191 -14 157 -1.5Q123 11 102 33Q81 55 72.5 84Q64 113 64 145ZM207 685Q207 706 215 725Q223 744 237 758Q251 772 270 780Q289 788 310 788Q331 788 350 780Q369 772 383 758Q397 744 405 725Q413 706 413 685Q413 664 405 645Q397 626 383 612Q369 598 350 590Q331 582 310 582Q289 582 270 590Q251 598 237 612Q223 626 215 645Q207 664 207 685ZM265 685Q265 665 277.5 652.5Q290 640 310 640Q329 640 342 652.5Q355 665 355 685Q355 704 342 717Q329 730 310 730Q290 730 277.5 717Q265 704 265 685Z" glyph-name="uring" horiz-adv-x="620" unicode="ů" /><glyph d="M80 698 238 698V271Q238 225 244.5 195Q251 165 267.5 147Q284 129 312.5 122Q341 115 384 115Q427 115 455.5 122Q484 129 500.5 147Q517 165 523.5 195Q530 225 530 271V698H688V263Q688 186 668.5 133Q649 80 610.5 47.5Q572 15 515.5 0.5Q459 -14 384 -14Q309 -14 252.5 0.5Q196 15 157.5 47.5Q119 80 99.5 133Q80 186 80 263ZM280 857Q280 878 288 897Q296 916 310 930Q324 944 343 952Q362 960 383 960Q404 960 423 952Q442 944 456 930Q470 916 478 897Q486 878 486 857Q486 836 478 817Q470 798 456 784Q442 770 423 762Q404 754 383 754Q362 754 343 762Q324 770 310 784Q296 798 288 817Q280 836 280 857ZM338 857Q338 837 350.5 824.5Q363 812 383 812Q402 812 415 824.5Q428 837 428 857Q428 876 415 889Q402 902 383 902Q363 902 350.5 889Q338 876 338 857Z" glyph-name="Uring" horiz-adv-x="774" unicode="Ů" /><glyph d="M64 523 215 523V224Q215 182 220 158Q225 134 236.5 122Q248 110 265.5 107Q283 104 307 104Q333 104 351 108Q369 112 380 124Q391 136 396 158Q401 180 401 215V523H552V0H404V63H402Q398 43 383 28.5Q368 14 346.5 4.5Q325 -5 298 -9.5Q271 -14 242 -14Q191 -14 157 -1.5Q123 11 102 33Q81 55 72.5 84Q64 113 64 145ZM234 708Q240 688 257 676.5Q274 665 310 665Q349 665 364 676Q379 687 386 708H493Q485 646 440 617Q395 588 310 588Q225 588 180 617Q135 646 127 708Z" glyph-name="ubreve" horiz-adv-x="620" unicode="ŭ" /><glyph d="M80 698 238 698V271Q238 225 244.5 195Q251 165 267.5 147Q284 129 312.5 122Q341 115 384 115Q427 115 455.5 122Q484 129 500.5 147Q517 165 523.5 195Q530 225 530 271V698H688V263Q688 186 668.5 133Q649 80 610.5 47.5Q572 15 515.5 0.5Q459 -14 384 -14Q309 -14 252.5 0.5Q196 15 157.5 47.5Q119 80 99.5 133Q80 186 80 263ZM307 880Q313 860 330 848.5Q347 837 383 837Q422 837 437 848Q452 859 459 880H566Q558 818 513 789Q468 760 383 760Q298 760 253 789Q208 818 200 880Z" glyph-name="Ubreve" horiz-adv-x="774" unicode="Ŭ" /><glyph d="M64 523 215 523V224Q215 182 220 158Q225 134 236.5 122Q248 110 265.5 107Q283 104 307 104Q333 104 351 108Q369 112 380 124Q391 136 396 158Q401 180 401 215V523H552V0H404V63H402Q398 43 383 28.5Q368 14 346.5 4.5Q325 -5 298 -9.5Q271 -14 242 -14Q191 -14 157 -1.5Q123 11 102 33Q81 55 72.5 84Q64 113 64 145ZM140 696 480 696V588H140Z" glyph-name="umacron" horiz-adv-x="620" unicode="ū" /><glyph d="M80 698 238 698V271Q238 225 244.5 195Q251 165 267.5 147Q284 129 312.5 122Q341 115 384 115Q427 115 455.5 122Q484 129 500.5 147Q517 165 523.5 195Q530 225 530 271V698H688V263Q688 186 668.5 133Q649 80 610.5 47.5Q572 15 515.5 0.5Q459 -14 384 -14Q309 -14 252.5 0.5Q196 15 157.5 47.5Q119 80 99.5 133Q80 186 80 263ZM213 868 553 868V760H213Z" glyph-name="Umacron" horiz-adv-x="774" unicode="Ū" /><glyph d="M64 523 215 523V224Q215 182 220 158Q225 134 236.5 122Q248 110 265.5 107Q283 104 307 104Q333 104 351 108Q369 112 380 124Q391 136 396 158Q401 180 401 215V523H552V0H404V63H402Q398 43 383 28.5Q368 14 346.5 4.5Q325 -5 298 -9.5Q271 -14 242 -14Q191 -14 157 -1.5Q123 11 102 33Q81 55 72.5 84Q64 113 64 145ZM128 638Q137 651 149 665Q161 679 176 690.5Q191 702 209.5 709.5Q228 717 249 717Q267 717 285.5 712Q304 707 320.5 701Q337 695 352 690Q367 685 378 685Q395 685 407 696.5Q419 708 433 726L495 680Q487 665 475.5 648.5Q464 632 448.5 618.5Q433 605 414 596.5Q395 588 372 588Q353 588 335.5 593.5Q318 599 301.5 605Q285 611 270.5 616.5Q256 622 244 622Q225 622 212 610.5Q199 599 189 583Z" glyph-name="utilde" horiz-adv-x="620" unicode="ũ" /><glyph d="M80 698 238 698V271Q238 225 244.5 195Q251 165 267.5 147Q284 129 312.5 122Q341 115 384 115Q427 115 455.5 122Q484 129 500.5 147Q517 165 523.5 195Q530 225 530 271V698H688V263Q688 186 668.5 133Q649 80 610.5 47.5Q572 15 515.5 0.5Q459 -14 384 -14Q309 -14 252.5 0.5Q196 15 157.5 47.5Q119 80 99.5 133Q80 186 80 263ZM201 810Q210 823 222 837Q234 851 249 862.5Q264 874 282.5 881.5Q301 889 322 889Q340 889 358.5 884Q377 879 393.5 873Q410 867 425 862Q440 857 451 857Q468 857 480 868.5Q492 880 506 898L568 852Q560 837 548.5 820.5Q537 804 521.5 790.5Q506 777 487 768.5Q468 760 445 760Q426 760 408.5 765.5Q391 771 374.5 777Q358 783 343.5 788.5Q329 794 317 794Q298 794 285 782.5Q272 771 262 755Z" glyph-name="Utilde" horiz-adv-x="774" unicode="Ũ" /><glyph d="M80 698 238 698V271Q238 225 244.5 195Q251 165 267.5 147Q284 129 312.5 122Q341 115 384 115Q427 115 455.5 122Q484 129 500.5 147Q517 165 523.5 195Q530 225 530 271V698H688V263Q688 186 668.5 133Q649 80 610.5 47.5Q572 15 515.5 0.5Q459 -14 384 -14Q309 -14 252.5 0.5Q196 15 157.5 47.5Q119 80 99.5 133Q80 186 80 263ZM453 -200Q433 -208 406 -212Q379 -216 356 -216Q334 -216 312.5 -212Q291 -208 274.5 -199Q258 -190 248 -175Q238 -160 238 -137Q238 -115 247.5 -94Q257 -73 271.5 -55.5Q286 -38 303 -24Q320 -10 336 0H455Q438 -12 419 -26Q400 -40 384 -55Q368 -70 357.5 -85Q347 -100 347 -114Q347 -131 360.5 -135.5Q374 -140 386 -140Q404 -140 421 -136Q438 -132 453 -128Z" glyph-name="Uogonek" horiz-adv-x="774" unicode="Ų" /><glyph d="M64 523 215 523V224Q215 182 220 158Q225 134 236.5 122Q248 110 265.5 107Q283 104 307 104Q333 104 351 108Q369 112 380 124Q391 136 396 158Q401 180 401 215V523H552V0H404V63H402Q398 43 383 28.5Q368 14 346.5 4.5Q325 -5 298 -9.5Q271 -14 242 -14Q191 -14 157 -1.5Q123 11 102 33Q81 55 72.5 84Q64 113 64 145ZM539 -200Q519 -208 492 -212Q465 -216 442 -216Q420 -216 398.5 -212Q377 -208 360.5 -199Q344 -190 334 -175Q324 -160 324 -137Q324 -115 333.5 -94Q343 -73 357.5 -55.5Q372 -38 389 -24Q406 -10 422 0H541Q524 -12 505 -26Q486 -40 470 -55Q454 -70 443.5 -85Q433 -100 433 -114Q433 -131 446.5 -135.5Q460 -140 472 -140Q490 -140 507 -136Q524 -132 539 -128Z" glyph-name="uogonek" horiz-adv-x="620" unicode="ų" /><glyph d="M323 -14Q249 -14 197 5.5Q145 25 112 61Q79 97 64 148Q49 199 49 263Q49 328 64.5 379Q80 430 113 465.5Q146 501 198 519.5Q250 538 323 538Q396 538 448 519.5Q500 501 533 465.5Q566 430 581.5 379Q597 328 597 263Q597 199 581.5 148Q566 97 533 61Q500 25 448 5.5Q396 -14 323 -14ZM323 107Q390 107 416.5 143Q443 179 443 263Q443 345 417 382Q391 419 323 419Q255 419 229 382Q203 345 203 263Q203 221 209 191.5Q215 162 229 143Q243 124 266 115.5Q289 107 323 107ZM214 708 340 708L271 588H150ZM414 708 540 708L471 588H350Z" glyph-name="ohungarumlaut" horiz-adv-x="646" unicode="ő" /><glyph d="M382 -14Q286 -14 222.5 6.5Q159 27 121.5 71Q84 115 69 184Q54 253 54 349Q54 445 69 513.5Q84 582 121.5 625.5Q159 669 222.5 689.5Q286 710 382 710Q478 710 541.5 689.5Q605 669 642.5 625.5Q680 582 695 513.5Q710 445 710 349Q710 253 695 184Q680 115 642.5 71Q605 27 541.5 6.5Q478 -14 382 -14ZM382 111Q430 111 462.5 119Q495 127 515 152.5Q535 178 543.5 225Q552 272 552 349Q552 428 543.5 474.5Q535 521 515.5 545.5Q496 570 463 577.5Q430 585 382 585Q334 585 301 577.5Q268 570 248.5 545.5Q229 521 220.5 474.5Q212 428 212 349Q212 272 220.5 225Q229 178 249 152.5Q269 127 301.5 119Q334 111 382 111ZM274 880 400 880L331 760H210ZM474 880 600 880L531 760H410Z" glyph-name="Ohungarumlaut" horiz-adv-x="764" unicode="Ő" /><glyph d="M94 416 14 416V523H94V672H244V523H353V416H244V150Q244 118 257.5 107.5Q271 97 302 97Q319 97 332.5 99Q346 101 357 103V0Q345 -4 313.5 -8Q282 -12 248 -12Q203 -12 173.5 -2.5Q144 7 126.5 25Q109 43 101.5 69.5Q94 96 94 130ZM338 710 514 710L425 590H274Z" glyph-name="tcaron" horiz-adv-x="371" unicode="ť" /><glyph d="M68 728 219 728V598Q219 561 218.5 526Q218 491 216 460H218Q222 480 236.5 494.5Q251 509 272 519Q293 529 319.5 533.5Q346 538 375 538Q426 538 460.5 525.5Q495 513 516.5 491.5Q538 470 547 441Q556 412 556 380V0H405V298Q405 327 403 349.5Q401 372 392.5 387Q384 402 366.5 410Q349 418 318 418Q288 418 269 412Q250 406 238.5 393Q227 380 223 359Q219 338 219 307V0H68ZM0 679 380 679V571H0Z" glyph-name="hbar" horiz-adv-x="620" unicode="ħ" /><glyph d="M68 523 216 523V310L392 523H558L380 322L592 0H420L280 223L216 149V0H68Z" glyph-name="kgreenlandic" horiz-adv-x="576" unicode="ĸ" /><glyph d="M94 416 14 416V523H94V672H244V523H353V416H244V150Q244 118 257.5 107.5Q271 97 302 97Q319 97 332.5 99Q346 101 357 103V0Q345 -4 313.5 -8Q282 -12 248 -12Q203 -12 173.5 -2.5Q144 7 126.5 25Q109 43 101.5 69.5Q94 96 94 130ZM139 -86 315 -86L226 -216H75Z" glyph-name="uni021B" horiz-adv-x="371" unicode="ț" /><glyph d="M68 523 216 523V460H218Q222 480 236.5 494.5Q251 509 273 519Q295 529 322 533.5Q349 538 378 538Q429 538 463 525.5Q497 513 518 491.5Q539 470 547.5 441Q556 412 556 380V-32Q556 -79 547.5 -113.5Q539 -148 519.5 -170.5Q500 -193 468.5 -204.5Q437 -216 390 -216Q376 -216 353.5 -215Q331 -214 314 -209V-89Q323 -92 333 -94Q343 -96 354 -96Q382 -96 393.5 -89Q405 -82 405 -55V298Q405 335 401 358.5Q397 382 387.5 395.5Q378 409 360.5 413.5Q343 418 316 418Q286 418 267 412.5Q248 407 237.5 394.5Q227 382 223 360.5Q219 339 219 307V0H68Z" glyph-name="eng" horiz-adv-x="620" unicode="ŋ" /><glyph d="M67 347 207 347V207H67Z" glyph-name="uni2219" horiz-adv-x="274" unicode="∙" /><glyph d="M80 698 316 698Q435 698 509 674Q583 650 624.5 605Q666 560 680.5 495Q695 430 695 349Q695 268 680.5 203Q666 138 624.5 93Q583 48 509 24Q435 0 316 0H80ZM316 126Q388 126 431.5 138.5Q475 151 498.5 178Q522 205 529.5 247.5Q537 290 537 349Q537 414 528.5 457Q520 500 495.5 525.5Q471 551 428 561.5Q385 572 316 572H239V126ZM20 409 400 409V301H20Z" glyph-name="Dcroat" horiz-adv-x="749" unicode="Đ" /><glyph d="M227 578 14 578V698H596V578H383V0H227ZM115 409 495 409V301H115Z" glyph-name="Tbar" horiz-adv-x="610" unicode="Ŧ" /><glyph d="M80 698 236 698V120H539V0H80ZM309 697 445 697L420 457H309Z" glyph-name="Lcaron" horiz-adv-x="553" unicode="Ľ" /><glyph d="M70 728 220 728V0H70ZM270 728 406 728L381 488H270Z" glyph-name="lcaron" horiz-adv-x="366" unicode="ľ" /><glyph d="M80 698 236 698V120H539V0H80ZM318 437 458 437V297H318Z" glyph-name="Ldot" horiz-adv-x="553" unicode="Ŀ" /><glyph d="M70 728 220 728V0H70ZM260 347 400 347V207H260Z" glyph-name="ldot" horiz-adv-x="400" unicode="ŀ" /><glyph d="M439 61 438 61Q424 39 408.5 24.5Q393 10 374 1.5Q355 -7 332.5 -10.5Q310 -14 282 -14Q220 -14 175.5 1.5Q131 17 103 50Q75 83 62 134Q49 185 49 255Q49 320 61 372.5Q73 425 100 461.5Q127 498 171 518Q215 538 280 538Q317 538 342.5 532Q368 526 385 516.5Q402 507 413 495.5Q424 484 432 473H434V728H584V0H439ZM313 106Q349 106 373.5 115.5Q398 125 412.5 144.5Q427 164 433 192.5Q439 221 439 259Q439 340 411.5 378.5Q384 417 315 417Q251 417 225 381.5Q199 346 199 262Q199 216 206 186Q213 156 227 138Q241 120 262.5 113Q284 106 313 106ZM634 728 770 728L745 488H634Z" glyph-name="dcaron" horiz-adv-x="730" unicode="ď" /><glyph d="M439 61 438 61Q424 39 408.5 24.5Q393 10 374 1.5Q355 -7 332.5 -10.5Q310 -14 282 -14Q220 -14 175.5 1.5Q131 17 103 50Q75 83 62 134Q49 185 49 255Q49 320 61 372.5Q73 425 100 461.5Q127 498 171 518Q215 538 280 538Q317 538 342.5 532Q368 526 385 516.5Q402 507 413 495.5Q424 484 432 473H434V728H584V0H439ZM313 106Q349 106 373.5 115.5Q398 125 412.5 144.5Q427 164 433 192.5Q439 221 439 259Q439 340 411.5 378.5Q384 417 315 417Q251 417 225 381.5Q199 346 199 262Q199 216 206 186Q213 156 227 138Q241 120 262.5 113Q284 106 313 106ZM252 679 632 679V571H252Z" glyph-name="dcroat" horiz-adv-x="652" unicode="đ" /><glyph d="M57 160 217 160V0H57ZM331 160 491 160V0H331ZM605 160 765 160V0H605Z" glyph-name="ellipsis" horiz-adv-x="822" unicode="…" /><glyph d="M47 77Q47 139 74 181.5Q101 224 142 254.5Q183 285 230.5 308.5Q278 332 319 357Q360 382 387 413.5Q414 445 414 491Q414 532 389 553.5Q364 575 307 575Q278 575 257 567.5Q236 560 219.5 547.5Q203 535 191.5 519Q180 503 171 485L43 564Q110 698 319 698Q371 698 417 688Q463 678 497.5 654.5Q532 631 551.5 591Q571 551 571 491Q571 431 547.5 388Q524 345 488 313.5Q452 282 409 258.5Q366 235 326 214Q286 193 255 171Q224 149 213 120H567V0H47Z" glyph-name="two.alt" horiz-adv-x="620" unicode="" /><glyph d="M144 206Q159 181 174 163Q189 145 206.5 133Q224 121 246 115Q268 109 298 109Q357 109 390 133.5Q423 158 423 209Q423 228 418 246.5Q413 265 399.5 278.5Q386 292 362 300.5Q338 309 301 309H211V423H284Q322 423 346 428Q370 433 383.5 443Q397 453 402 467Q407 481 407 498Q407 542 380 559.5Q353 577 299 577Q250 577 220 557.5Q190 538 162 493L33 574Q75 630 137.5 664Q200 698 298 698Q354 698 402 688.5Q450 679 485 657.5Q520 636 540 600Q560 564 560 511Q560 493 553 472Q546 451 533 431.5Q520 412 501 396.5Q482 381 459 373V371Q515 351 547 308.5Q579 266 579 209Q579 150 556 107.5Q533 65 494.5 38Q456 11 405 -1.5Q354 -14 297 -14Q237 -14 196 -5Q155 4 124.5 21.5Q94 39 70 66Q46 93 21 129Z" glyph-name="three.alt" horiz-adv-x="620" unicode="" /><glyph d="M32 285 268 698H426L195 288H378V486H527V288H598V171H527V0H378V171H32Z" glyph-name="four.alt" horiz-adv-x="620" unicode="" /><glyph d="M168 199Q188 151 220 127Q252 103 301 103Q332 103 354.5 113Q377 123 391.5 139.5Q406 156 413 178.5Q420 201 420 227Q420 248 414.5 269Q409 290 396 306.5Q383 323 361.5 333Q340 343 307 343Q279 343 258 336.5Q237 330 222 320Q207 310 197.5 299.5Q188 289 183 280L62 312V688H529V568H209V423Q230 444 267.5 455Q305 466 352 466Q411 466 453.5 448.5Q496 431 523 400Q550 369 563 326.5Q576 284 576 235Q576 182 561 137Q546 92 512.5 58Q479 24 426 5Q373 -14 297 -14Q244 -14 202.5 -5Q161 4 129.5 21.5Q98 39 74.5 63.5Q51 88 34 118Z" glyph-name="five.alt" horiz-adv-x="620" unicode="" /><glyph d="M448 514Q431 545 402.5 563.5Q374 582 329 582Q262 582 228.5 535.5Q195 489 185 395Q221 430 260.5 438.5Q300 447 332 447Q457 447 516.5 391Q576 335 576 227Q576 112 509.5 49Q443 -14 309 -14Q235 -14 184.5 6.5Q134 27 103 69Q72 111 58.5 174Q45 237 45 321Q45 437 67.5 510.5Q90 584 129 625.5Q168 667 220.5 682.5Q273 698 333 698Q377 698 411.5 691Q446 684 472.5 670Q499 656 519.5 634Q540 612 557 582ZM312 108Q375 108 400.5 135Q426 162 426 226Q426 255 421 274.5Q416 294 403.5 306Q391 318 370 323.5Q349 329 318 329Q250 329 225 303.5Q200 278 200 220Q200 160 225 134Q250 108 312 108Z" glyph-name="six.alt" horiz-adv-x="620" unicode="" /><glyph d="M413 565 44 565V688H560V562L307 0H137Z" glyph-name="seven.alt" horiz-adv-x="620" unicode="" /><glyph d="M159 374Q112 391 84.5 426.5Q57 462 57 516Q57 564 75 598.5Q93 633 126 655Q159 677 205.5 687.5Q252 698 310 698Q368 698 414.5 687.5Q461 677 494 655Q527 633 545 598Q563 563 563 515Q563 460 535.5 425.5Q508 391 460 374V371Q486 362 509.5 346.5Q533 331 551 309.5Q569 288 580 261Q591 234 591 201Q591 143 570.5 102Q550 61 513.5 35.5Q477 10 425 -2Q373 -14 310 -14Q247 -14 195 -2Q143 10 106.5 35.5Q70 61 49.5 102Q29 143 29 201Q29 234 39.5 261Q50 288 68 309Q86 330 109.5 345.5Q133 361 159 371ZM188 207Q188 178 198 158.5Q208 139 224.5 128Q241 117 263.5 112.5Q286 108 310 108Q334 108 356.5 112.5Q379 117 395.5 128Q412 139 422 158.5Q432 178 432 207Q432 235 423 253.5Q414 272 397.5 283.5Q381 295 359 300Q337 305 310 305Q283 305 261 300Q239 295 222.5 283.5Q206 272 197 253.5Q188 235 188 207ZM210 499Q210 450 233 433Q256 416 310 416Q364 416 387 433Q410 450 410 499Q410 517 406 531.5Q402 546 391 556Q380 566 360.5 571.5Q341 577 310 577Q279 577 259.5 571.5Q240 566 229 556Q218 546 214 531.5Q210 517 210 499Z" glyph-name="eight.alt" horiz-adv-x="620" unicode="" /><glyph d="M168 184Q181 160 194 144Q207 128 222 119Q237 110 255.5 106Q274 102 300 102Q351 102 386 148Q421 194 429 285H426Q409 270 391 260.5Q373 251 355 245.5Q337 240 321 238.5Q305 237 292 237Q160 237 100 291.5Q40 346 40 459Q40 573 107.5 635.5Q175 698 299 698Q375 698 427 678Q479 658 511 616.5Q543 575 556.5 511.5Q570 448 570 360Q570 251 549 179Q528 107 490.5 64Q453 21 401.5 3.5Q350 -14 289 -14Q241 -14 204 -7Q167 0 138 14.5Q109 29 85.5 51.5Q62 74 40 106ZM189 463Q189 432 194 411.5Q199 391 211.5 378.5Q224 366 245.5 360.5Q267 355 300 355Q364 355 389.5 379.5Q415 404 415 460Q415 493 409 515Q403 537 389.5 550.5Q376 564 354 570Q332 576 299 576Q239 576 214 548Q189 520 189 463Z" glyph-name="nine.alt" horiz-adv-x="620" unicode="" /><glyph d="M141 171Q153 156 165.5 143.5Q178 131 194.5 122Q211 113 233.5 108Q256 103 288 103Q334 103 353 116Q372 129 372 153Q372 165 367 173Q362 181 349.5 187Q337 193 316 198Q295 203 263 208Q213 215 172.5 224Q132 233 103 249.5Q74 266 58 293Q42 320 42 364Q42 448 101 493Q160 538 274 538Q343 538 397 517.5Q451 497 499 443L384 368Q370 391 339.5 408Q309 425 270 425Q238 425 215 413Q192 401 192 378Q192 363 203 353.5Q214 344 232 338Q250 332 273 328.5Q296 325 320 322Q361 317 398 309.5Q435 302 462.5 287Q490 272 506 245Q522 218 522 174Q522 122 500 86Q478 50 442.5 28Q407 6 361 -4Q315 -14 267 -14Q105 -14 18 95ZM193 -86 369 -86L280 -216H129Z" glyph-name="scommaaccent" horiz-adv-x="544" unicode="ș" /><glyph d="M367 115Q411 115 449 108.5Q487 102 515 85Q543 68 559 39.5Q575 11 575 -32Q575 -92 548.5 -128.5Q522 -165 480.5 -184.5Q439 -204 388 -210Q337 -216 289 -216Q268 -216 240.5 -215Q213 -214 184.5 -210Q156 -206 128.5 -197.5Q101 -189 79 -173.5Q57 -158 44 -134.5Q31 -111 31 -76Q31 -34 52.5 -6.5Q74 21 110 39Q90 51 73 71.5Q56 92 56 131Q56 163 71.5 189Q87 215 111 227Q87 246 71 275.5Q55 305 55 350Q55 406 75.5 442.5Q96 479 129.5 500Q163 521 205 529.5Q247 538 291 538Q335 538 357.5 533.5Q380 529 400 524Q411 572 441.5 595Q472 618 528 618H587L566 514H528Q511 514 502 506.5Q493 499 489 488Q515 469 525 437.5Q535 406 535 358Q535 300 515 265Q495 230 462 211.5Q429 193 385.5 186.5Q342 180 295 180H236Q198 180 184 172Q170 164 170 146Q170 131 179.5 123Q189 115 221 115ZM198 355Q198 339 202 325Q206 311 216.5 300.5Q227 290 246 284Q265 278 295 278Q325 278 344 284Q363 290 373.5 300.5Q384 311 388 325Q392 339 392 355Q392 370 388 384.5Q384 399 373.5 410Q363 421 344 427.5Q325 434 295 434Q265 434 246 427.5Q227 421 216.5 410Q206 399 202 384.5Q198 370 198 355ZM266 -8Q212 -8 189 -22.5Q166 -37 166 -64Q166 -93 193 -106Q220 -119 288 -119Q354 -119 395.5 -106Q437 -93 437 -60Q437 -37 415 -22.5Q393 -8 349 -8ZM272 710 423 710L359 590H183Z" glyph-name="gcommaaccent" horiz-adv-x="592" unicode="ģ" /><glyph d="M20 616 759 616V503H20ZM80 698 239 698V416H540V698H699V0H540V296H239V0H80Z" glyph-name="Hbar" horiz-adv-x="779" unicode="Ħ" /><glyph d="M94 416 14 416V523H94V572Q94 619 107.5 650.5Q121 682 145.5 701.5Q170 721 205.5 729.5Q241 738 286 738Q310 738 329.5 735.5Q349 733 363 729V624Q351 628 331.5 630.5Q312 633 299 633Q272 633 258 620.5Q244 608 244 576V0H94Z" glyph-name="longs" horiz-adv-x="361" unicode="ſ" /><glyph d="M169 710 281 710L-67 -12H-180Z" glyph-name="uni2215" horiz-adv-x="100" unicode="∕" /><glyph d="M80 698 275 698L569 193H570V698H719V62Q719 -11 707 -63.5Q695 -116 665 -150Q635 -184 584 -200Q533 -216 455 -216Q386 -216 335 -199L374 -61Q389 -73 407.5 -80Q426 -87 452 -87Q501 -87 530.5 -69Q560 -51 568 0H525L230 506H229V0H80Z" glyph-name="Eng" horiz-adv-x="799" unicode="Ŋ" /><glyph d="M673 54Q673 85 685 108Q697 131 716 149Q735 167 759.5 180Q784 193 808 205Q853 226 879 242.5Q905 259 905 289Q905 309 892 322Q879 335 851 335Q817 335 798.5 318Q780 301 767 278L671 324Q699 374 744.5 400.5Q790 427 862 427Q894 427 923.5 421Q953 415 976 400Q999 385 1013 360.5Q1027 336 1027 299Q1027 266 1015.5 241.5Q1004 217 984.5 198Q965 179 938 164Q911 149 880 134Q851 120 833.5 111Q816 102 807 89H1025V0H673Z" glyph-name="twosuperior" horiz-adv-x="430" unicode="²" /><glyph d="M108 412Q128 380 148 370Q168 360 197 360Q232 360 250 371.5Q268 383 268 409Q268 428 255 442.5Q242 457 203 457H134V543H193Q234 543 246.5 552Q259 561 259 577Q259 598 244 605.5Q229 613 199 613Q175 613 156.5 605.5Q138 598 119 570L18 628Q49 667 92 685.5Q135 704 201 704Q239 704 271.5 697.5Q304 691 327.5 677.5Q351 664 364.5 643Q378 622 378 592Q378 535 328 504Q361 485 375.5 460Q390 435 390 403Q390 368 374.5 343Q359 318 332 301.5Q305 285 267.5 277Q230 269 187 269Q151 269 125 274.5Q99 280 78.5 290.5Q58 301 42 317Q26 333 10 354Z" glyph-name="threesuperior" horiz-adv-x="430" unicode="³" /><glyph d="M60 366 167 366V592L60 537V633L184 698H284V366H383V277H60Z" glyph-name="onesuperior" horiz-adv-x="430" unicode="¹" /><glyph d="M215 269Q155 269 119 286Q83 303 63.5 332Q44 361 38 401Q32 441 32 486Q32 531 38 571Q44 611 63.5 640.5Q83 670 119 687Q155 704 215 704Q276 704 312 687Q348 670 367.5 640.5Q387 611 393 571Q399 531 399 486Q399 441 393 401Q387 361 367.5 332Q348 303 312 286Q276 269 215 269ZM215 360Q236 360 249 367.5Q262 375 268.5 390.5Q275 406 277 430Q279 454 279 486Q279 518 277 542Q275 566 268.5 581.5Q262 597 249 604.5Q236 612 215 612Q174 612 163 581Q152 550 152 486Q152 421 163 390.5Q174 360 215 360Z" glyph-name="zerosuperior" horiz-adv-x="430" unicode="⁰" /><glyph d="M626 178 759 427H885L758 188H844V283H962V188H1007V100H962V0H844V100H626Z" glyph-name="foursuperior" horiz-adv-x="430" unicode="⁴" /><glyph d="M128 408Q139 384 157.5 370.5Q176 357 203 357Q237 357 251.5 375Q266 393 266 419Q266 440 254 458.5Q242 477 205 477Q176 477 161 466Q146 455 138 444L40 461V698H359V609H157V554Q187 569 235 569Q275 569 304 558Q333 547 351.5 527.5Q370 508 379 481Q388 454 388 423Q388 390 378 362Q368 334 345.5 313.5Q323 293 287.5 281Q252 269 201 269Q130 269 88 292Q46 315 20 358Z" glyph-name="fivesuperior" horiz-adv-x="430" unicode="⁵" /><glyph d="M293 575Q279 598 261 607.5Q243 617 214 617Q187 617 171 597Q155 577 149 540Q168 550 186.5 554Q205 558 219 558Q308 558 349 524Q390 490 390 419Q390 348 344.5 308.5Q299 269 215 269Q117 269 74.5 316Q32 363 32 467Q32 531 46 576Q60 621 85.5 649.5Q111 678 145.5 691Q180 704 221 704Q286 704 325.5 685.5Q365 667 395 621ZM152 418Q152 385 165.5 371Q179 357 215 357Q246 357 259 372.5Q272 388 272 416Q272 446 260.5 459Q249 472 214 472Q180 472 166 458.5Q152 445 152 418Z" glyph-name="sixsuperior" horiz-adv-x="430" unicode="⁶" /><glyph d="M262 607 32 607V698H384V611L218 277H86Z" glyph-name="sevensuperior" horiz-adv-x="430" unicode="⁷" /><glyph d="M335 504Q364 489 384 465Q404 441 404 399Q404 332 352 300.5Q300 269 214 269Q128 269 77 300.5Q26 332 26 399Q26 436 43.5 460.5Q61 485 96 504Q70 520 56.5 539.5Q43 559 43 589Q43 647 89.5 675Q136 703 215 703Q294 703 340 675.5Q386 648 386 588Q386 556 373 536.5Q360 517 335 504ZM149 408Q149 379 168.5 368Q188 357 214 357Q241 357 260.5 368Q280 379 280 408Q280 434 261.5 446Q243 458 214 458Q185 458 167 446Q149 434 149 408ZM163 578Q163 555 174.5 545.5Q186 536 214 536Q242 536 254 545.5Q266 555 266 578Q266 595 256 605.5Q246 616 214 616Q182 616 172.5 605.5Q163 595 163 578Z" glyph-name="eightsuperior" horiz-adv-x="430" unicode="⁸" /><glyph d="M126 398Q140 375 158 365.5Q176 356 205 356Q232 356 248 376Q264 396 270 433Q251 423 232.5 419Q214 415 200 415Q111 415 70 449Q29 483 29 554Q29 625 74.5 664.5Q120 704 204 704Q302 704 344.5 657Q387 610 387 506Q387 442 373 397Q359 352 333.5 323.5Q308 295 273.5 282Q239 269 198 269Q165 269 139.5 273Q114 277 93.5 287Q73 297 56 313Q39 329 24 352ZM147 557Q147 527 158.5 514Q170 501 205 501Q239 501 253 514.5Q267 528 267 555Q267 588 253.5 602Q240 616 204 616Q173 616 160 600.5Q147 585 147 557Z" glyph-name="ninesuperior" horiz-adv-x="430" unicode="⁹" /><glyph d="M215 -8Q155 -8 119 9Q83 26 63.5 55Q44 84 38 124Q32 164 32 209Q32 254 38 294Q44 334 63.5 363.5Q83 393 119 410Q155 427 215 427Q276 427 312 410Q348 393 367.5 363.5Q387 334 393 294Q399 254 399 209Q399 164 393 124Q387 84 367.5 55Q348 26 312 9Q276 -8 215 -8ZM215 83Q236 83 249 90.5Q262 98 268.5 113.5Q275 129 277 153Q279 177 279 209Q279 241 277 265Q275 289 268.5 304.5Q262 320 249 327.5Q236 335 215 335Q174 335 163 304Q152 273 152 209Q152 144 163 113.5Q174 83 215 83Z" glyph-name="zeroinferior" horiz-adv-x="430" unicode="₀" /><glyph d="M60 89 167 89V315L60 260V356L184 421H284V89H383V0H60Z" glyph-name="oneinferior" horiz-adv-x="430" unicode="₁" /><glyph d="M31 54Q31 85 43 108Q55 131 74 149Q93 167 117.5 180Q142 193 166 205Q211 226 237 242.5Q263 259 263 289Q263 309 250 322Q237 335 209 335Q175 335 156.5 318Q138 301 125 278L29 324Q57 374 102.5 400.5Q148 427 220 427Q252 427 281.5 421Q311 415 334 400Q357 385 371 360.5Q385 336 385 299Q385 266 373.5 241.5Q362 217 342.5 198Q323 179 296 164Q269 149 238 134Q209 120 191.5 111Q174 102 165 89H383V0H31Z" glyph-name="twoinferior" horiz-adv-x="430" unicode="₂" /><glyph d="M108 135Q128 103 148 93Q168 83 197 83Q232 83 250 94.5Q268 106 268 132Q268 151 255 165.5Q242 180 203 180H134V266H193Q234 266 246.5 275Q259 284 259 300Q259 321 244 328.5Q229 336 199 336Q175 336 156.5 328.5Q138 321 119 293L18 351Q49 390 92 408.5Q135 427 201 427Q239 427 271.5 420.5Q304 414 327.5 400.5Q351 387 364.5 366Q378 345 378 315Q378 258 328 227Q361 208 375.5 183Q390 158 390 126Q390 91 374.5 66Q359 41 332 24.5Q305 8 267.5 0Q230 -8 187 -8Q151 -8 125 -2.5Q99 3 78.5 13.5Q58 24 42 40Q26 56 10 77Z" glyph-name="threeinferior" horiz-adv-x="430" unicode="₃" /><glyph d="M22 178 155 427H281L154 188H240V283H358V188H403V100H358V0H240V100H22Z" glyph-name="fourinferior" horiz-adv-x="430" unicode="₄" /><glyph d="M128 131Q139 107 157.5 93.5Q176 80 203 80Q237 80 251.5 98Q266 116 266 142Q266 163 254 181.5Q242 200 205 200Q176 200 161 189Q146 178 138 167L40 184V421H359V332H157V277Q187 292 235 292Q275 292 304 281Q333 270 351.5 250.5Q370 231 379 204Q388 177 388 146Q388 113 378 85Q368 57 345.5 36.5Q323 16 287.5 4Q252 -8 201 -8Q130 -8 88 15Q46 38 20 81Z" glyph-name="fiveinferior" horiz-adv-x="430" unicode="₅" /><glyph d="M293 298Q279 321 261 330.5Q243 340 214 340Q187 340 171 320Q155 300 149 263Q168 273 186.5 277Q205 281 219 281Q308 281 349 247Q390 213 390 142Q390 71 344.5 31.5Q299 -8 215 -8Q117 -8 74.5 39Q32 86 32 190Q32 254 46 299Q60 344 85.5 372.5Q111 401 145.5 414Q180 427 221 427Q286 427 325.5 408.5Q365 390 395 344ZM152 141Q152 108 165.5 94Q179 80 215 80Q246 80 259 95.5Q272 111 272 139Q272 169 260.5 182Q249 195 214 195Q180 195 166 181.5Q152 168 152 141Z" glyph-name="sixinferior" horiz-adv-x="430" unicode="₆" /><glyph d="M262 330 32 330V421H384V334L218 0H86Z" glyph-name="seveninferior" horiz-adv-x="430" unicode="₇" /><glyph d="M335 227Q364 212 384 188Q404 164 404 122Q404 55 352 23.5Q300 -8 214 -8Q128 -8 77 23.5Q26 55 26 122Q26 159 43.5 183.5Q61 208 96 227Q70 243 56.5 262.5Q43 282 43 312Q43 370 89.5 398Q136 426 215 426Q294 426 340 398.5Q386 371 386 311Q386 279 373 259.5Q360 240 335 227ZM149 131Q149 102 168.5 91Q188 80 214 80Q241 80 260.5 91Q280 102 280 131Q280 157 261.5 169Q243 181 214 181Q185 181 167 169Q149 157 149 131ZM163 301Q163 278 174.5 268.5Q186 259 214 259Q242 259 254 268.5Q266 278 266 301Q266 318 256 328.5Q246 339 214 339Q182 339 172.5 328.5Q163 318 163 301Z" glyph-name="eightinferior" horiz-adv-x="430" unicode="₈" /><glyph d="M126 121Q140 98 158 88.5Q176 79 205 79Q232 79 248 99Q264 119 270 156Q251 146 232.5 142Q214 138 200 138Q111 138 70 172Q29 206 29 277Q29 348 74.5 387.5Q120 427 204 427Q302 427 344.5 380Q387 333 387 229Q387 165 373 120Q359 75 333.5 46.5Q308 18 273.5 5Q239 -8 198 -8Q165 -8 139.5 -4Q114 0 93.5 10Q73 20 56 36Q39 52 24 75ZM147 280Q147 250 158.5 237Q170 224 205 224Q239 224 253 237.5Q267 251 267 278Q267 311 253.5 325Q240 339 204 339Q173 339 160 323.5Q147 308 147 280Z" glyph-name="nineinferior" horiz-adv-x="430" unicode="₉" /><glyph d="M215 379Q155 379 119 396Q83 413 63.5 442Q44 471 38 511Q32 551 32 596Q32 641 38 681Q44 721 63.5 750.5Q83 780 119 797Q155 814 215 814Q276 814 312 797Q348 780 367.5 750.5Q387 721 393 681Q399 641 399 596Q399 551 393 511Q387 471 367.5 442Q348 413 312 396Q276 379 215 379ZM215 470Q236 470 249 477.5Q262 485 268.5 500.5Q275 516 277 540Q279 564 279 596Q279 628 277 652Q275 676 268.5 691.5Q262 707 249 714.5Q236 722 215 722Q174 722 163 691Q152 660 152 596Q152 531 163 500.5Q174 470 215 470Z" glyph-name="zero.sups" horiz-adv-x="430" unicode="" /><glyph d="M60 476 167 476V702L60 647V743L184 808H284V476H383V387H60Z" glyph-name="one.sups" horiz-adv-x="430" unicode="" /><glyph d="M31 441Q31 472 43 495Q55 518 74 536Q93 554 117.5 567Q142 580 166 592Q211 613 237 629.5Q263 646 263 676Q263 696 250 709Q237 722 209 722Q175 722 156.5 705Q138 688 125 665L29 711Q57 761 102.5 787.5Q148 814 220 814Q252 814 281.5 808Q311 802 334 787Q357 772 371 747.5Q385 723 385 686Q385 653 373.5 628.5Q362 604 342.5 585Q323 566 296 551Q269 536 238 521Q209 507 191.5 498Q174 489 165 476H383V387H31Z" glyph-name="two.sups" horiz-adv-x="430" unicode="" /><glyph d="M108 522Q128 490 148 480Q168 470 197 470Q232 470 250 481.5Q268 493 268 519Q268 538 255 552.5Q242 567 203 567H134V653H193Q234 653 246.5 662Q259 671 259 687Q259 708 244 715.5Q229 723 199 723Q175 723 156.5 715.5Q138 708 119 680L18 738Q49 777 92 795.5Q135 814 201 814Q239 814 271.5 807.5Q304 801 327.5 787.5Q351 774 364.5 753Q378 732 378 702Q378 645 328 614Q361 595 375.5 570Q390 545 390 513Q390 478 374.5 453Q359 428 332 411.5Q305 395 267.5 387Q230 379 187 379Q151 379 125 384.5Q99 390 78.5 400.5Q58 411 42 427Q26 443 10 464Z" glyph-name="three.sups" horiz-adv-x="430" unicode="" /><glyph d="M22 565 155 814H281L154 575H240V670H358V575H403V487H358V387H240V487H22Z" glyph-name="four.sups" horiz-adv-x="430" unicode="" /><glyph d="M128 518Q139 494 157.5 480.5Q176 467 203 467Q237 467 251.5 485Q266 503 266 529Q266 550 254 568.5Q242 587 205 587Q176 587 161 576Q146 565 138 554L40 571V808H359V719H157V664Q187 679 235 679Q275 679 304 668Q333 657 351.5 637.5Q370 618 379 591Q388 564 388 533Q388 500 378 472Q368 444 345.5 423.5Q323 403 287.5 391Q252 379 201 379Q130 379 88 402Q46 425 20 468Z" glyph-name="five.sups" horiz-adv-x="430" unicode="" /><glyph d="M293 685Q279 708 261 717.5Q243 727 214 727Q187 727 171 707Q155 687 149 650Q168 660 186.5 664Q205 668 219 668Q308 668 349 634Q390 600 390 529Q390 458 344.5 418.5Q299 379 215 379Q117 379 74.5 426Q32 473 32 577Q32 641 46 686Q60 731 85.5 759.5Q111 788 145.5 801Q180 814 221 814Q286 814 325.5 795.5Q365 777 395 731ZM152 528Q152 495 165.5 481Q179 467 215 467Q246 467 259 482.5Q272 498 272 526Q272 556 260.5 569Q249 582 214 582Q180 582 166 568.5Q152 555 152 528Z" glyph-name="six.sups" horiz-adv-x="430" unicode="" /><glyph d="M262 717 32 717V808H384V721L218 387H86Z" glyph-name="seven.sups" horiz-adv-x="430" unicode="" /><glyph d="M335 614Q364 599 384 575Q404 551 404 509Q404 442 352 410.5Q300 379 214 379Q128 379 77 410.5Q26 442 26 509Q26 546 43.5 570.5Q61 595 96 614Q70 630 56.5 649.5Q43 669 43 699Q43 757 89.5 785Q136 813 215 813Q294 813 340 785.5Q386 758 386 698Q386 666 373 646.5Q360 627 335 614ZM149 518Q149 489 168.5 478Q188 467 214 467Q241 467 260.5 478Q280 489 280 518Q280 544 261.5 556Q243 568 214 568Q185 568 167 556Q149 544 149 518ZM163 688Q163 665 174.5 655.5Q186 646 214 646Q242 646 254 655.5Q266 665 266 688Q266 705 256 715.5Q246 726 214 726Q182 726 172.5 715.5Q163 705 163 688Z" glyph-name="eight.sups" horiz-adv-x="430" unicode="" /><glyph d="M126 508Q140 485 158 475.5Q176 466 205 466Q232 466 248 486Q264 506 270 543Q251 533 232.5 529Q214 525 200 525Q111 525 70 559Q29 593 29 664Q29 735 74.5 774.5Q120 814 204 814Q302 814 344.5 767Q387 720 387 616Q387 552 373 507Q359 462 333.5 433.5Q308 405 273.5 392Q239 379 198 379Q165 379 139.5 383Q114 387 93.5 397Q73 407 56 423Q39 439 24 462ZM147 667Q147 637 158.5 624Q170 611 205 611Q239 611 253 624.5Q267 638 267 665Q267 698 253.5 712Q240 726 204 726Q173 726 160 710.5Q147 695 147 667Z" glyph-name="nine.sups" horiz-adv-x="430" unicode="" /><glyph d="M215 -151Q155 -151 119 -134Q83 -117 63.5 -88Q44 -59 38 -19Q32 21 32 66Q32 111 38 151Q44 191 63.5 220.5Q83 250 119 267Q155 284 215 284Q276 284 312 267Q348 250 367.5 220.5Q387 191 393 151Q399 111 399 66Q399 21 393 -19Q387 -59 367.5 -88Q348 -117 312 -134Q276 -151 215 -151ZM215 -60Q236 -60 249 -52.5Q262 -45 268.5 -29.5Q275 -14 277 10Q279 34 279 66Q279 98 277 122Q275 146 268.5 161.5Q262 177 249 184.5Q236 192 215 192Q174 192 163 161Q152 130 152 66Q152 1 163 -29.5Q174 -60 215 -60Z" glyph-name="zero.sinf" horiz-adv-x="430" unicode="" /><glyph d="M60 -54 167 -54V172L60 117V213L184 278H284V-54H383V-143H60Z" glyph-name="one.sinf" horiz-adv-x="430" unicode="" /><glyph d="M31 -89Q31 -58 43 -35Q55 -12 74 6Q93 24 117.5 37Q142 50 166 62Q211 83 237 99.5Q263 116 263 146Q263 166 250 179Q237 192 209 192Q175 192 156.5 175Q138 158 125 135L29 181Q57 231 102.5 257.5Q148 284 220 284Q252 284 281.5 278Q311 272 334 257Q357 242 371 217.5Q385 193 385 156Q385 123 373.5 98.5Q362 74 342.5 55Q323 36 296 21Q269 6 238 -9Q209 -23 191.5 -32Q174 -41 165 -54H383V-143H31Z" glyph-name="two.sinf" horiz-adv-x="430" unicode="" /><glyph d="M108 -8Q128 -40 148 -50Q168 -60 197 -60Q232 -60 250 -48.5Q268 -37 268 -11Q268 8 255 22.5Q242 37 203 37H134V123H193Q234 123 246.5 132Q259 141 259 157Q259 178 244 185.5Q229 193 199 193Q175 193 156.5 185.5Q138 178 119 150L18 208Q49 247 92 265.5Q135 284 201 284Q239 284 271.5 277.5Q304 271 327.5 257.5Q351 244 364.5 223Q378 202 378 172Q378 115 328 84Q361 65 375.5 40Q390 15 390 -17Q390 -52 374.5 -77Q359 -102 332 -118.5Q305 -135 267.5 -143Q230 -151 187 -151Q151 -151 125 -145.5Q99 -140 78.5 -129.5Q58 -119 42 -103Q26 -87 10 -66Z" glyph-name="three.sinf" horiz-adv-x="430" unicode="" /><glyph d="M22 35 155 284H281L154 45H240V140H358V45H403V-43H358V-143H240V-43H22Z" glyph-name="four.sinf" horiz-adv-x="430" unicode="" /><glyph d="M128 -12Q139 -36 157.5 -49.5Q176 -63 203 -63Q237 -63 251.5 -45Q266 -27 266 -1Q266 20 254 38.5Q242 57 205 57Q176 57 161 46Q146 35 138 24L40 41V278H359V189H157V134Q187 149 235 149Q275 149 304 138Q333 127 351.5 107.5Q370 88 379 61Q388 34 388 3Q388 -30 378 -58Q368 -86 345.5 -106.5Q323 -127 287.5 -139Q252 -151 201 -151Q130 -151 88 -128Q46 -105 20 -62Z" glyph-name="five.sinf" horiz-adv-x="430" unicode="" /><glyph d="M293 155Q279 178 261 187.5Q243 197 214 197Q187 197 171 177Q155 157 149 120Q168 130 186.5 134Q205 138 219 138Q308 138 349 104Q390 70 390 -1Q390 -72 344.5 -111.5Q299 -151 215 -151Q117 -151 74.5 -104Q32 -57 32 47Q32 111 46 156Q60 201 85.5 229.5Q111 258 145.5 271Q180 284 221 284Q286 284 325.5 265.5Q365 247 395 201ZM152 -2Q152 -35 165.5 -49Q179 -63 215 -63Q246 -63 259 -47.5Q272 -32 272 -4Q272 26 260.5 39Q249 52 214 52Q180 52 166 38.5Q152 25 152 -2Z" glyph-name="six.sinf" horiz-adv-x="430" unicode="" /><glyph d="M262 187 32 187V278H384V191L218 -143H86Z" glyph-name="seven.sinf" horiz-adv-x="430" unicode="" /><glyph d="M335 84Q364 69 384 45Q404 21 404 -21Q404 -88 352 -119.5Q300 -151 214 -151Q128 -151 77 -119.5Q26 -88 26 -21Q26 16 43.5 40.5Q61 65 96 84Q70 100 56.5 119.5Q43 139 43 169Q43 227 89.5 255Q136 283 215 283Q294 283 340 255.5Q386 228 386 168Q386 136 373 116.5Q360 97 335 84ZM149 -12Q149 -41 168.5 -52Q188 -63 214 -63Q241 -63 260.5 -52Q280 -41 280 -12Q280 14 261.5 26Q243 38 214 38Q185 38 167 26Q149 14 149 -12ZM163 158Q163 135 174.5 125.5Q186 116 214 116Q242 116 254 125.5Q266 135 266 158Q266 175 256 185.5Q246 196 214 196Q182 196 172.5 185.5Q163 175 163 158Z" glyph-name="eight.sinf" horiz-adv-x="430" unicode="" /><glyph d="M126 -22Q140 -45 158 -54.5Q176 -64 205 -64Q232 -64 248 -44Q264 -24 270 13Q251 3 232.5 -1Q214 -5 200 -5Q111 -5 70 29Q29 63 29 134Q29 205 74.5 244.5Q120 284 204 284Q302 284 344.5 237Q387 190 387 86Q387 22 373 -23Q359 -68 333.5 -96.5Q308 -125 273.5 -138Q239 -151 198 -151Q165 -151 139.5 -147Q114 -143 93.5 -133Q73 -123 56 -107Q39 -91 24 -68ZM147 137Q147 107 158.5 94Q170 81 205 81Q239 81 253 94.5Q267 108 267 135Q267 168 253.5 182Q240 196 204 196Q173 196 160 180.5Q147 165 147 137Z" glyph-name="nine.sinf" horiz-adv-x="430" unicode="" /><glyph d="M202 173Q202 141 229 114.5Q256 88 295.5 68.5Q335 49 380.5 38.5Q426 28 462 28Q600 28 690 131H768Q714 64 633.5 25.5Q553 -13 458 -13Q374 -13 300 15.5Q226 44 171 93.5Q116 143 84.5 209Q53 275 53 349Q53 423 84.5 489Q116 555 171 604Q226 653 299 681.5Q372 710 456 710Q539 710 611.5 681Q684 652 738 602Q792 552 823 485Q854 418 854 342H212Q202 342 202 331ZM695 380Q705 380 705 389V527Q705 539 701 552Q697 565 688 575Q641 624 581 648Q521 672 453 672Q385 672 325.5 649Q266 626 221 575Q213 565 207.5 552Q202 539 202 527V389Q202 380 212 380Z" glyph-name="estimated" horiz-adv-x="883" unicode="℮" /><glyph d="M60 366 167 366V592L60 537V633L184 698H284V366H383V277H60ZM657 710 769 710L421 -12H308ZM752 135Q772 103 792 93Q812 83 841 83Q876 83 894 94.5Q912 106 912 132Q912 151 899 165.5Q886 180 847 180H778V266H837Q878 266 890.5 275Q903 284 903 300Q903 321 888 328.5Q873 336 843 336Q819 336 800.5 328.5Q782 321 763 293L662 351Q693 390 736 408.5Q779 427 845 427Q883 427 915.5 420.5Q948 414 971.5 400.5Q995 387 1008.5 366Q1022 345 1022 315Q1022 258 972 227Q1005 208 1019.5 183Q1034 158 1034 126Q1034 91 1018.5 66Q1003 41 976 24.5Q949 8 911.5 0Q874 -8 831 -8Q795 -8 769 -2.5Q743 3 722.5 13.5Q702 24 686 40Q670 56 654 77Z" glyph-name="onethird" horiz-adv-x="1074" unicode="⅓" /><glyph d="M31 331Q31 362 43 385Q55 408 74 426Q93 444 117.5 457Q142 470 166 482Q211 503 237 519.5Q263 536 263 566Q263 586 250 599Q237 612 209 612Q175 612 156.5 595Q138 578 125 555L29 601Q57 651 102.5 677.5Q148 704 220 704Q252 704 281.5 698Q311 692 334 677Q357 662 371 637.5Q385 613 385 576Q385 543 373.5 518.5Q362 494 342.5 475Q323 456 296 441Q269 426 238 411Q209 397 191.5 388Q174 379 165 366H383V277H31ZM637 710 749 710L401 -12H288ZM752 135Q772 103 792 93Q812 83 841 83Q876 83 894 94.5Q912 106 912 132Q912 151 899 165.5Q886 180 847 180H778V266H837Q878 266 890.5 275Q903 284 903 300Q903 321 888 328.5Q873 336 843 336Q819 336 800.5 328.5Q782 321 763 293L662 351Q693 390 736 408.5Q779 427 845 427Q883 427 915.5 420.5Q948 414 971.5 400.5Q995 387 1008.5 366Q1022 345 1022 315Q1022 258 972 227Q1005 208 1019.5 183Q1034 158 1034 126Q1034 91 1018.5 66Q1003 41 976 24.5Q949 8 911.5 0Q874 -8 831 -8Q795 -8 769 -2.5Q743 3 722.5 13.5Q702 24 686 40Q670 56 654 77Z" glyph-name="twothirds" horiz-adv-x="1074" unicode="⅔" /><glyph d="M60 366 167 366V592L60 537V633L184 698H284V366H383V277H60ZM617 710 729 710L381 -12H268ZM979 227Q1008 212 1028 188Q1048 164 1048 122Q1048 55 996 23.5Q944 -8 858 -8Q772 -8 721 23.5Q670 55 670 122Q670 159 687.5 183.5Q705 208 740 227Q714 243 700.5 262.5Q687 282 687 312Q687 370 733.5 398Q780 426 859 426Q938 426 984 398.5Q1030 371 1030 311Q1030 279 1017 259.5Q1004 240 979 227ZM793 131Q793 102 812.5 91Q832 80 858 80Q885 80 904.5 91Q924 102 924 131Q924 157 905.5 169Q887 181 858 181Q829 181 811 169Q793 157 793 131ZM807 301Q807 278 818.5 268.5Q830 259 858 259Q886 259 898 268.5Q910 278 910 301Q910 318 900 328.5Q890 339 858 339Q826 339 816.5 328.5Q807 318 807 301Z" glyph-name="oneeighth" horiz-adv-x="1074" unicode="⅛" /><glyph d="M108 412Q128 380 148 370Q168 360 197 360Q232 360 250 371.5Q268 383 268 409Q268 428 255 442.5Q242 457 203 457H134V543H193Q234 543 246.5 552Q259 561 259 577Q259 598 244 605.5Q229 613 199 613Q175 613 156.5 605.5Q138 598 119 570L18 628Q49 667 92 685.5Q135 704 201 704Q239 704 271.5 697.5Q304 691 327.5 677.5Q351 664 364.5 643Q378 622 378 592Q378 535 328 504Q361 485 375.5 460Q390 435 390 403Q390 368 374.5 343Q359 318 332 301.5Q305 285 267.5 277Q230 269 187 269Q151 269 125 274.5Q99 280 78.5 290.5Q58 301 42 317Q26 333 10 354ZM617 710 729 710L381 -12H268ZM979 227Q1008 212 1028 188Q1048 164 1048 122Q1048 55 996 23.5Q944 -8 858 -8Q772 -8 721 23.5Q670 55 670 122Q670 159 687.5 183.5Q705 208 740 227Q714 243 700.5 262.5Q687 282 687 312Q687 370 733.5 398Q780 426 859 426Q938 426 984 398.5Q1030 371 1030 311Q1030 279 1017 259.5Q1004 240 979 227ZM793 131Q793 102 812.5 91Q832 80 858 80Q885 80 904.5 91Q924 102 924 131Q924 157 905.5 169Q887 181 858 181Q829 181 811 169Q793 157 793 131ZM807 301Q807 278 818.5 268.5Q830 259 858 259Q886 259 898 268.5Q910 278 910 301Q910 318 900 328.5Q890 339 858 339Q826 339 816.5 328.5Q807 318 807 301Z" glyph-name="threeeighths" horiz-adv-x="1074" unicode="⅜" /><glyph d="M128 408Q139 384 157.5 370.5Q176 357 203 357Q237 357 251.5 375Q266 393 266 419Q266 440 254 458.5Q242 477 205 477Q176 477 161 466Q146 455 138 444L40 461V698H359V609H157V554Q187 569 235 569Q275 569 304 558Q333 547 351.5 527.5Q370 508 379 481Q388 454 388 423Q388 390 378 362Q368 334 345.5 313.5Q323 293 287.5 281Q252 269 201 269Q130 269 88 292Q46 315 20 358ZM617 710 729 710L381 -12H268ZM979 227Q1008 212 1028 188Q1048 164 1048 122Q1048 55 996 23.5Q944 -8 858 -8Q772 -8 721 23.5Q670 55 670 122Q670 159 687.5 183.5Q705 208 740 227Q714 243 700.5 262.5Q687 282 687 312Q687 370 733.5 398Q780 426 859 426Q938 426 984 398.5Q1030 371 1030 311Q1030 279 1017 259.5Q1004 240 979 227ZM793 131Q793 102 812.5 91Q832 80 858 80Q885 80 904.5 91Q924 102 924 131Q924 157 905.5 169Q887 181 858 181Q829 181 811 169Q793 157 793 131ZM807 301Q807 278 818.5 268.5Q830 259 858 259Q886 259 898 268.5Q910 278 910 301Q910 318 900 328.5Q890 339 858 339Q826 339 816.5 328.5Q807 318 807 301Z" glyph-name="fiveeighths" horiz-adv-x="1074" unicode="⅝" /><glyph d="M262 607 32 607V698H384V611L218 277H86ZM617 710 729 710L381 -12H268ZM979 227Q1008 212 1028 188Q1048 164 1048 122Q1048 55 996 23.5Q944 -8 858 -8Q772 -8 721 23.5Q670 55 670 122Q670 159 687.5 183.5Q705 208 740 227Q714 243 700.5 262.5Q687 282 687 312Q687 370 733.5 398Q780 426 859 426Q938 426 984 398.5Q1030 371 1030 311Q1030 279 1017 259.5Q1004 240 979 227ZM793 131Q793 102 812.5 91Q832 80 858 80Q885 80 904.5 91Q924 102 924 131Q924 157 905.5 169Q887 181 858 181Q829 181 811 169Q793 157 793 131ZM807 301Q807 278 818.5 268.5Q830 259 858 259Q886 259 898 268.5Q910 278 910 301Q910 318 900 328.5Q890 339 858 339Q826 339 816.5 328.5Q807 318 807 301Z" glyph-name="seveneighths" horiz-adv-x="1074" unicode="⅞" /><glyph d="M60 366 167 366V592L60 537V633L184 698H284V366H383V277H60ZM667 710 779 710L431 -12H318ZM802 131Q813 107 831.5 93.5Q850 80 877 80Q911 80 925.5 98Q940 116 940 142Q940 163 928 181.5Q916 200 879 200Q850 200 835 189Q820 178 812 167L714 184V421H1033V332H831V277Q861 292 909 292Q949 292 978 281Q1007 270 1025.5 250.5Q1044 231 1053 204Q1062 177 1062 146Q1062 113 1052 85Q1042 57 1019.5 36.5Q997 16 961.5 4Q926 -8 875 -8Q804 -8 762 15Q720 38 694 81Z" glyph-name="onefifth" horiz-adv-x="1104" unicode="" /><glyph d="M31 331Q31 362 43 385Q55 408 74 426Q93 444 117.5 457Q142 470 166 482Q211 503 237 519.5Q263 536 263 566Q263 586 250 599Q237 612 209 612Q175 612 156.5 595Q138 578 125 555L29 601Q57 651 102.5 677.5Q148 704 220 704Q252 704 281.5 698Q311 692 334 677Q357 662 371 637.5Q385 613 385 576Q385 543 373.5 518.5Q362 494 342.5 475Q323 456 296 441Q269 426 238 411Q209 397 191.5 388Q174 379 165 366H383V277H31ZM667 710 779 710L431 -12H318ZM802 131Q813 107 831.5 93.5Q850 80 877 80Q911 80 925.5 98Q940 116 940 142Q940 163 928 181.5Q916 200 879 200Q850 200 835 189Q820 178 812 167L714 184V421H1033V332H831V277Q861 292 909 292Q949 292 978 281Q1007 270 1025.5 250.5Q1044 231 1053 204Q1062 177 1062 146Q1062 113 1052 85Q1042 57 1019.5 36.5Q997 16 961.5 4Q926 -8 875 -8Q804 -8 762 15Q720 38 694 81Z" glyph-name="twofifths" horiz-adv-x="1104" unicode="" /><glyph d="M108 412Q128 380 148 370Q168 360 197 360Q232 360 250 371.5Q268 383 268 409Q268 428 255 442.5Q242 457 203 457H134V543H193Q234 543 246.5 552Q259 561 259 577Q259 598 244 605.5Q229 613 199 613Q175 613 156.5 605.5Q138 598 119 570L18 628Q49 667 92 685.5Q135 704 201 704Q239 704 271.5 697.5Q304 691 327.5 677.5Q351 664 364.5 643Q378 622 378 592Q378 535 328 504Q361 485 375.5 460Q390 435 390 403Q390 368 374.5 343Q359 318 332 301.5Q305 285 267.5 277Q230 269 187 269Q151 269 125 274.5Q99 280 78.5 290.5Q58 301 42 317Q26 333 10 354ZM667 710 779 710L431 -12H318ZM802 131Q813 107 831.5 93.5Q850 80 877 80Q911 80 925.5 98Q940 116 940 142Q940 163 928 181.5Q916 200 879 200Q850 200 835 189Q820 178 812 167L714 184V421H1033V332H831V277Q861 292 909 292Q949 292 978 281Q1007 270 1025.5 250.5Q1044 231 1053 204Q1062 177 1062 146Q1062 113 1052 85Q1042 57 1019.5 36.5Q997 16 961.5 4Q926 -8 875 -8Q804 -8 762 15Q720 38 694 81Z" glyph-name="threefifths" horiz-adv-x="1104" unicode="" /><glyph d="M22 455 155 704H281L154 465H240V560H358V465H403V377H358V277H240V377H22ZM667 710 779 710L431 -12H318ZM802 131Q813 107 831.5 93.5Q850 80 877 80Q911 80 925.5 98Q940 116 940 142Q940 163 928 181.5Q916 200 879 200Q850 200 835 189Q820 178 812 167L714 184V421H1033V332H831V277Q861 292 909 292Q949 292 978 281Q1007 270 1025.5 250.5Q1044 231 1053 204Q1062 177 1062 146Q1062 113 1052 85Q1042 57 1019.5 36.5Q997 16 961.5 4Q926 -8 875 -8Q804 -8 762 15Q720 38 694 81Z" glyph-name="fourfifths" horiz-adv-x="1104" unicode="" /><glyph d="M60 366 167 366V592L60 537V633L184 698H284V366H383V277H60ZM657 710 769 710L421 -12H308ZM917 298Q903 321 885 330.5Q867 340 838 340Q811 340 795 320Q779 300 773 263Q792 273 810.5 277Q829 281 843 281Q932 281 973 247Q1014 213 1014 142Q1014 71 968.5 31.5Q923 -8 839 -8Q741 -8 698.5 39Q656 86 656 190Q656 254 670 299Q684 344 709.5 372.5Q735 401 769.5 414Q804 427 845 427Q910 427 949.5 408.5Q989 390 1019 344ZM776 141Q776 108 789.5 94Q803 80 839 80Q870 80 883 95.5Q896 111 896 139Q896 169 884.5 182Q873 195 838 195Q804 195 790 181.5Q776 168 776 141Z" glyph-name="onesixth" horiz-adv-x="1054" unicode="" /><glyph d="M128 408Q139 384 157.5 370.5Q176 357 203 357Q237 357 251.5 375Q266 393 266 419Q266 440 254 458.5Q242 477 205 477Q176 477 161 466Q146 455 138 444L40 461V698H359V609H157V554Q187 569 235 569Q275 569 304 558Q333 547 351.5 527.5Q370 508 379 481Q388 454 388 423Q388 390 378 362Q368 334 345.5 313.5Q323 293 287.5 281Q252 269 201 269Q130 269 88 292Q46 315 20 358ZM657 710 769 710L421 -12H308ZM917 298Q903 321 885 330.5Q867 340 838 340Q811 340 795 320Q779 300 773 263Q792 273 810.5 277Q829 281 843 281Q932 281 973 247Q1014 213 1014 142Q1014 71 968.5 31.5Q923 -8 839 -8Q741 -8 698.5 39Q656 86 656 190Q656 254 670 299Q684 344 709.5 372.5Q735 401 769.5 414Q804 427 845 427Q910 427 949.5 408.5Q989 390 1019 344ZM776 141Q776 108 789.5 94Q803 80 839 80Q870 80 883 95.5Q896 111 896 139Q896 169 884.5 182Q873 195 838 195Q804 195 790 181.5Q776 168 776 141Z" glyph-name="fivesixths" horiz-adv-x="1054" unicode="" /><glyph d="M60 366 167 366V592L60 537V633L184 698H284V366H383V277H60ZM647 710 759 710L411 -12H298ZM926 330 696 330V421H1048V334L882 0H750Z" glyph-name="oneseventh" horiz-adv-x="1094" unicode="" /><glyph d="M31 331Q31 362 43 385Q55 408 74 426Q93 444 117.5 457Q142 470 166 482Q211 503 237 519.5Q263 536 263 566Q263 586 250 599Q237 612 209 612Q175 612 156.5 595Q138 578 125 555L29 601Q57 651 102.5 677.5Q148 704 220 704Q252 704 281.5 698Q311 692 334 677Q357 662 371 637.5Q385 613 385 576Q385 543 373.5 518.5Q362 494 342.5 475Q323 456 296 441Q269 426 238 411Q209 397 191.5 388Q174 379 165 366H383V277H31ZM647 710 759 710L411 -12H298ZM926 330 696 330V421H1048V334L882 0H750Z" glyph-name="twosevenths" horiz-adv-x="1094" unicode="" /><glyph d="M108 412Q128 380 148 370Q168 360 197 360Q232 360 250 371.5Q268 383 268 409Q268 428 255 442.5Q242 457 203 457H134V543H193Q234 543 246.5 552Q259 561 259 577Q259 598 244 605.5Q229 613 199 613Q175 613 156.5 605.5Q138 598 119 570L18 628Q49 667 92 685.5Q135 704 201 704Q239 704 271.5 697.5Q304 691 327.5 677.5Q351 664 364.5 643Q378 622 378 592Q378 535 328 504Q361 485 375.5 460Q390 435 390 403Q390 368 374.5 343Q359 318 332 301.5Q305 285 267.5 277Q230 269 187 269Q151 269 125 274.5Q99 280 78.5 290.5Q58 301 42 317Q26 333 10 354ZM647 710 759 710L411 -12H298ZM926 330 696 330V421H1048V334L882 0H750Z" glyph-name="threesevenths" horiz-adv-x="1094" unicode="" /><glyph d="M22 455 155 704H281L154 465H240V560H358V465H403V377H358V277H240V377H22ZM647 710 759 710L411 -12H298ZM926 330 696 330V421H1048V334L882 0H750Z" glyph-name="foursevenths" horiz-adv-x="1094" unicode="" /><glyph d="M128 408Q139 384 157.5 370.5Q176 357 203 357Q237 357 251.5 375Q266 393 266 419Q266 440 254 458.5Q242 477 205 477Q176 477 161 466Q146 455 138 444L40 461V698H359V609H157V554Q187 569 235 569Q275 569 304 558Q333 547 351.5 527.5Q370 508 379 481Q388 454 388 423Q388 390 378 362Q368 334 345.5 313.5Q323 293 287.5 281Q252 269 201 269Q130 269 88 292Q46 315 20 358ZM647 710 759 710L411 -12H298ZM926 330 696 330V421H1048V334L882 0H750Z" glyph-name="fivesevenths" horiz-adv-x="1094" unicode="" /><glyph d="M293 575Q279 598 261 607.5Q243 617 214 617Q187 617 171 597Q155 577 149 540Q168 550 186.5 554Q205 558 219 558Q308 558 349 524Q390 490 390 419Q390 348 344.5 308.5Q299 269 215 269Q117 269 74.5 316Q32 363 32 467Q32 531 46 576Q60 621 85.5 649.5Q111 678 145.5 691Q180 704 221 704Q286 704 325.5 685.5Q365 667 395 621ZM152 418Q152 385 165.5 371Q179 357 215 357Q246 357 259 372.5Q272 388 272 416Q272 446 260.5 459Q249 472 214 472Q180 472 166 458.5Q152 445 152 418ZM647 710 759 710L411 -12H298ZM926 330 696 330V421H1048V334L882 0H750Z" glyph-name="sixsevenths" horiz-adv-x="1094" unicode="" /><glyph d="M60 366 167 366V592L60 537V633L184 698H284V366H383V277H60ZM657 710 769 710L421 -12H308ZM770 121Q784 98 802 88.5Q820 79 849 79Q876 79 892 99Q908 119 914 156Q895 146 876.5 142Q858 138 844 138Q755 138 714 172Q673 206 673 277Q673 348 718.5 387.5Q764 427 848 427Q946 427 988.5 380Q1031 333 1031 229Q1031 165 1017 120Q1003 75 977.5 46.5Q952 18 917.5 5Q883 -8 842 -8Q809 -8 783.5 -4Q758 0 737.5 10Q717 20 700 36Q683 52 668 75ZM791 280Q791 250 802.5 237Q814 224 849 224Q883 224 897 237.5Q911 251 911 278Q911 311 897.5 325Q884 339 848 339Q817 339 804 323.5Q791 308 791 280Z" glyph-name="oneninth" horiz-adv-x="1074" unicode="" /><glyph d="M31 331Q31 362 43 385Q55 408 74 426Q93 444 117.5 457Q142 470 166 482Q211 503 237 519.5Q263 536 263 566Q263 586 250 599Q237 612 209 612Q175 612 156.5 595Q138 578 125 555L29 601Q57 651 102.5 677.5Q148 704 220 704Q252 704 281.5 698Q311 692 334 677Q357 662 371 637.5Q385 613 385 576Q385 543 373.5 518.5Q362 494 342.5 475Q323 456 296 441Q269 426 238 411Q209 397 191.5 388Q174 379 165 366H383V277H31ZM657 710 769 710L421 -12H308ZM770 121Q784 98 802 88.5Q820 79 849 79Q876 79 892 99Q908 119 914 156Q895 146 876.5 142Q858 138 844 138Q755 138 714 172Q673 206 673 277Q673 348 718.5 387.5Q764 427 848 427Q946 427 988.5 380Q1031 333 1031 229Q1031 165 1017 120Q1003 75 977.5 46.5Q952 18 917.5 5Q883 -8 842 -8Q809 -8 783.5 -4Q758 0 737.5 10Q717 20 700 36Q683 52 668 75ZM791 280Q791 250 802.5 237Q814 224 849 224Q883 224 897 237.5Q911 251 911 278Q911 311 897.5 325Q884 339 848 339Q817 339 804 323.5Q791 308 791 280Z" glyph-name="twoninths" horiz-adv-x="1074" unicode="" /><glyph d="M22 455 155 704H281L154 465H240V560H358V465H403V377H358V277H240V377H22ZM657 710 769 710L421 -12H308ZM770 121Q784 98 802 88.5Q820 79 849 79Q876 79 892 99Q908 119 914 156Q895 146 876.5 142Q858 138 844 138Q755 138 714 172Q673 206 673 277Q673 348 718.5 387.5Q764 427 848 427Q946 427 988.5 380Q1031 333 1031 229Q1031 165 1017 120Q1003 75 977.5 46.5Q952 18 917.5 5Q883 -8 842 -8Q809 -8 783.5 -4Q758 0 737.5 10Q717 20 700 36Q683 52 668 75ZM791 280Q791 250 802.5 237Q814 224 849 224Q883 224 897 237.5Q911 251 911 278Q911 311 897.5 325Q884 339 848 339Q817 339 804 323.5Q791 308 791 280Z" glyph-name="fourninths" horiz-adv-x="1074" unicode="" /><glyph d="M128 408Q139 384 157.5 370.5Q176 357 203 357Q237 357 251.5 375Q266 393 266 419Q266 440 254 458.5Q242 477 205 477Q176 477 161 466Q146 455 138 444L40 461V698H359V609H157V554Q187 569 235 569Q275 569 304 558Q333 547 351.5 527.5Q370 508 379 481Q388 454 388 423Q388 390 378 362Q368 334 345.5 313.5Q323 293 287.5 281Q252 269 201 269Q130 269 88 292Q46 315 20 358ZM657 710 769 710L421 -12H308ZM770 121Q784 98 802 88.5Q820 79 849 79Q876 79 892 99Q908 119 914 156Q895 146 876.5 142Q858 138 844 138Q755 138 714 172Q673 206 673 277Q673 348 718.5 387.5Q764 427 848 427Q946 427 988.5 380Q1031 333 1031 229Q1031 165 1017 120Q1003 75 977.5 46.5Q952 18 917.5 5Q883 -8 842 -8Q809 -8 783.5 -4Q758 0 737.5 10Q717 20 700 36Q683 52 668 75ZM791 280Q791 250 802.5 237Q814 224 849 224Q883 224 897 237.5Q911 251 911 278Q911 311 897.5 325Q884 339 848 339Q817 339 804 323.5Q791 308 791 280Z" glyph-name="fiveninths" horiz-adv-x="1074" unicode="" /><glyph d="M262 607 32 607V698H384V611L218 277H86ZM657 710 769 710L421 -12H308ZM770 121Q784 98 802 88.5Q820 79 849 79Q876 79 892 99Q908 119 914 156Q895 146 876.5 142Q858 138 844 138Q755 138 714 172Q673 206 673 277Q673 348 718.5 387.5Q764 427 848 427Q946 427 988.5 380Q1031 333 1031 229Q1031 165 1017 120Q1003 75 977.5 46.5Q952 18 917.5 5Q883 -8 842 -8Q809 -8 783.5 -4Q758 0 737.5 10Q717 20 700 36Q683 52 668 75ZM791 280Q791 250 802.5 237Q814 224 849 224Q883 224 897 237.5Q911 251 911 278Q911 311 897.5 325Q884 339 848 339Q817 339 804 323.5Q791 308 791 280Z" glyph-name="sevenninths" horiz-adv-x="1074" unicode="" /><glyph d="M335 504Q364 489 384 465Q404 441 404 399Q404 332 352 300.5Q300 269 214 269Q128 269 77 300.5Q26 332 26 399Q26 436 43.5 460.5Q61 485 96 504Q70 520 56.5 539.5Q43 559 43 589Q43 647 89.5 675Q136 703 215 703Q294 703 340 675.5Q386 648 386 588Q386 556 373 536.5Q360 517 335 504ZM149 408Q149 379 168.5 368Q188 357 214 357Q241 357 260.5 368Q280 379 280 408Q280 434 261.5 446Q243 458 214 458Q185 458 167 446Q149 434 149 408ZM163 578Q163 555 174.5 545.5Q186 536 214 536Q242 536 254 545.5Q266 555 266 578Q266 595 256 605.5Q246 616 214 616Q182 616 172.5 605.5Q163 595 163 578ZM657 710 769 710L421 -12H308ZM770 121Q784 98 802 88.5Q820 79 849 79Q876 79 892 99Q908 119 914 156Q895 146 876.5 142Q858 138 844 138Q755 138 714 172Q673 206 673 277Q673 348 718.5 387.5Q764 427 848 427Q946 427 988.5 380Q1031 333 1031 229Q1031 165 1017 120Q1003 75 977.5 46.5Q952 18 917.5 5Q883 -8 842 -8Q809 -8 783.5 -4Q758 0 737.5 10Q717 20 700 36Q683 52 668 75ZM791 280Q791 250 802.5 237Q814 224 849 224Q883 224 897 237.5Q911 251 911 278Q911 311 897.5 325Q884 339 848 339Q817 339 804 323.5Q791 308 791 280Z" glyph-name="eightninths" horiz-adv-x="1074" unicode="" /><glyph d="M94 416 14 416V523H94V572Q94 619 107.5 650.5Q121 682 145.5 701.5Q170 721 205.5 729.5Q241 738 286 738Q310 738 329.5 735.5Q349 733 363 729V624Q351 628 331.5 630.5Q312 633 299 633Q272 633 256 620.5Q240 608 240 576V523H351V416H244V0H94ZM431 720 581 720V590H431ZM431 523 581 523V0H431Z" glyph-name="f_i" horiz-adv-x="651" unicode="ﬁ" /><glyph d="M94 416 14 416V523H94V572Q94 619 107.5 650.5Q121 682 145.5 701.5Q170 721 205.5 729.5Q241 738 286 738Q310 738 329.5 735.5Q349 733 363 729V624Q351 628 331.5 630.5Q312 633 299 633Q272 633 256 620.5Q240 608 240 576V523H351V416H244V0H94ZM431 728 581 728V0H431Z" glyph-name="f_l" horiz-adv-x="651" unicode="ﬂ" /><glyph d="M94 416 14 416V523H94V572Q94 619 107.5 650.5Q121 682 145.5 701.5Q170 721 205.5 729.5Q241 738 286 738Q310 738 329.5 735.5Q349 733 363 729V629Q351 633 331.5 635.5Q312 638 299 638Q272 638 256 625.5Q240 613 240 581V523H351V416H244V0H94ZM431 416 351 416V523H431V572Q431 619 444.5 650.5Q458 682 482.5 701.5Q507 721 542.5 729.5Q578 738 623 738Q647 738 666.5 735.5Q686 733 700 729V629Q688 633 668.5 635.5Q649 638 636 638Q609 638 593 625.5Q577 613 577 581V523H688V416H581V0H431Z" glyph-name="f_f" horiz-adv-x="698" unicode="ﬀ" /><glyph d="M94 416 14 416V523H94V572Q94 619 107.5 650.5Q121 682 145.5 701.5Q170 721 205.5 729.5Q241 738 286 738Q310 738 329.5 735.5Q349 733 363 729V624Q351 628 331.5 630.5Q312 633 299 633Q272 633 256 620.5Q240 608 240 576V523H351V416H244V0H94ZM429 728 579 728V473H581Q591 484 604.5 495.5Q618 507 636.5 516.5Q655 526 679.5 532Q704 538 737 538Q785 538 826.5 523.5Q868 509 898.5 476Q929 443 946.5 390.5Q964 338 964 262Q964 125 903 55.5Q842 -14 732 -14Q615 -14 566 61H564L555 0H429ZM695 108Q726 108 748.5 114.5Q771 121 785.5 138Q800 155 807 185Q814 215 814 262Q814 347 786.5 381Q759 415 694 415Q628 415 601 378Q574 341 574 263Q574 185 600 146.5Q626 108 695 108Z" glyph-name="f_b" horiz-adv-x="1013" unicode="" /><glyph d="M94 416 14 416V523H94V572Q94 619 107.5 650.5Q121 682 145.5 701.5Q170 721 205.5 729.5Q241 738 286 738Q310 738 329.5 735.5Q349 733 363 729V624Q351 628 331.5 630.5Q312 633 299 633Q272 633 256 620.5Q240 608 240 576V523H351V416H244V0H94ZM429 728 580 728V598Q580 561 579.5 526Q579 491 577 460H579Q583 480 597.5 494.5Q612 509 633 519Q654 529 680.5 533.5Q707 538 736 538Q787 538 821.5 525.5Q856 513 877.5 491.5Q899 470 908 441Q917 412 917 380V0H766V298Q766 327 764 349.5Q762 372 753.5 387Q745 402 727.5 410Q710 418 679 418Q649 418 630 412Q611 406 599.5 393Q588 380 584 359Q580 338 580 307V0H429Z" glyph-name="f_h" horiz-adv-x="981" unicode="" /><glyph d="M94 416 14 416V523H94V572Q94 619 107.5 650.5Q121 682 145.5 701.5Q170 721 205.5 729.5Q241 738 286 738Q310 738 329.5 735.5Q349 733 363 729V624Q351 628 331.5 630.5Q312 633 299 633Q272 633 256 620.5Q240 608 240 576V523H351V416H244V0H94ZM431 720 581 720V590H431ZM339 -89Q348 -92 358 -94Q368 -96 379 -96Q407 -96 419 -89Q431 -82 431 -55V523H581V-32Q581 -79 572.5 -113.5Q564 -148 544.5 -170.5Q525 -193 493.5 -204.5Q462 -216 415 -216Q401 -216 378.5 -215Q356 -214 339 -209Z" glyph-name="f_j" horiz-adv-x="649" unicode="" /><glyph d="M94 416 14 416V523H94V572Q94 619 107.5 650.5Q121 682 145.5 701.5Q170 721 205.5 729.5Q241 738 286 738Q310 738 329.5 735.5Q349 733 363 729V624Q351 628 331.5 630.5Q312 633 299 633Q272 633 256 620.5Q240 608 240 576V523H351V416H244V0H94ZM429 728 577 728V310L753 523H919L741 322L953 0H781L641 223L577 149V0H429Z" glyph-name="f_k" horiz-adv-x="937" unicode="" /><glyph d="M227 578 14 578V698H596V578H383V0H227ZM221 -86 397 -86L308 -216H157Z" glyph-name="uni021A" horiz-adv-x="610" unicode="Ț" /><glyph d="M143 212Q159 188 176.5 169Q194 150 215.5 137Q237 124 265 117.5Q293 111 330 111Q355 111 381.5 115.5Q408 120 429 131Q450 142 463.5 160.5Q477 179 477 208Q477 232 467.5 247.5Q458 263 443 272Q428 281 409 285Q390 289 371 291L256 304Q210 309 171 321.5Q132 334 103.5 356.5Q75 379 59 413Q43 447 43 496Q43 597 113.5 653.5Q184 710 331 710Q411 710 479.5 688Q548 666 607 601L482 522Q443 561 407 573Q371 585 324 585Q262 585 230.5 567.5Q199 550 199 508Q199 480 218.5 461.5Q238 443 298 437L417 425Q523 414 578.5 365Q634 316 634 222Q634 159 609.5 114.5Q585 70 542.5 41.5Q500 13 443 -0.5Q386 -14 320 -14Q219 -14 147.5 18Q76 50 21 118ZM265 -86 441 -86L352 -216H201Z" glyph-name="Scommaaccent" horiz-adv-x="654" unicode="Ș" /><glyph d="M323 -14Q249 -14 197 5.5Q145 25 112 61Q79 97 64 148Q49 199 49 263Q49 328 64.5 379Q80 430 113 465.5Q146 501 198 519.5Q250 538 323 538Q396 538 448 519.5Q500 501 533 465.5Q566 430 581.5 379Q597 328 597 263Q597 199 581.5 148Q566 97 533 61Q500 25 448 5.5Q396 -14 323 -14ZM323 107Q390 107 416.5 143Q443 179 443 263Q443 345 417 382Q391 419 323 419Q255 419 229 382Q203 345 203 263Q203 221 209 191.5Q215 162 229 143Q243 124 266 115.5Q289 107 323 107Z" glyph-name="zero.posf" horiz-adv-x="646" unicode="" /><glyph d="M157 374 38 307V447L171 522H307V0H157Z" glyph-name="one.posf" horiz-adv-x="419" unicode="" /><glyph d="M47 77Q47 132 71 166Q95 200 131.5 222Q168 244 210.5 258Q253 272 289.5 286Q326 300 350 318Q374 336 374 366Q374 395 350.5 407.5Q327 420 289 420Q246 420 215.5 401.5Q185 383 174 354L45 418Q56 445 79.5 467Q103 489 136 505Q169 521 210 529.5Q251 538 296 538Q347 538 390 529.5Q433 521 464.5 501Q496 481 513.5 448.5Q531 416 531 368Q531 315 508 282Q485 249 450.5 227.5Q416 206 375 194Q334 182 299 172Q264 162 239.5 150.5Q215 139 213 120H527V0H47Z" glyph-name="two.posf" horiz-adv-x="577" unicode="" /><glyph d="M144 46Q155 23 168 5Q181 -13 197.5 -25.5Q214 -38 236.5 -44.5Q259 -51 290 -51Q349 -51 376 -26Q403 -1 403 54Q403 72 399 89Q395 106 383 119.5Q371 133 349 141Q327 149 291 149H211V263H274Q312 263 334.5 268Q357 273 368.5 282.5Q380 292 383.5 305Q387 318 387 334Q387 378 367.5 397.5Q348 417 294 417Q266 417 246.5 412Q227 407 212 396.5Q197 386 185.5 370Q174 354 164 333L39 406Q58 436 81.5 460.5Q105 485 135.5 502.5Q166 520 205.5 529Q245 538 296 538Q349 538 393.5 527.5Q438 517 470.5 496Q503 475 521.5 442.5Q540 410 540 365Q540 334 531.5 309Q523 284 509 265Q495 246 476.5 233Q458 220 439 213V211Q498 188 528.5 147Q559 106 559 38Q559 -16 539.5 -56Q520 -96 484 -122.5Q448 -149 398 -161.5Q348 -174 287 -174Q233 -174 192.5 -164.5Q152 -155 120.5 -137Q89 -119 65 -92.5Q41 -66 21 -31Z" glyph-name="three.posf" horiz-adv-x="620" unicode="" /><glyph d="M32 114 228 538H383L192 117H361V326H507V117H578V0H507V-160H361V0H32Z" glyph-name="four.posf" horiz-adv-x="600" unicode="" /><glyph d="M168 23Q186 -18 214 -40.5Q242 -63 290 -63Q322 -63 343 -53Q364 -43 377 -25.5Q390 -8 395 15Q400 38 400 64Q400 85 396 105.5Q392 126 381 141.5Q370 157 349.5 167Q329 177 296 177Q269 177 249.5 170.5Q230 164 217 154Q204 144 196 133.5Q188 123 183 114L62 146V522H509V402H203V257Q224 278 259.5 289Q295 300 342 300Q401 300 441.5 282.5Q482 265 507.5 234Q533 203 544.5 161Q556 119 556 70Q556 4 536.5 -43.5Q517 -91 481.5 -121Q446 -151 396 -165.5Q346 -180 286 -180Q232 -180 192.5 -170.5Q153 -161 123.5 -143.5Q94 -126 72.5 -102Q51 -78 34 -48Z" glyph-name="five.posf" horiz-adv-x="598" unicode="" /><glyph d="M363 400 44 400V523H510V397L257 -165H87Z" glyph-name="seven.posf" horiz-adv-x="564" unicode="" /><glyph d="M438 510Q420 542 393 562Q366 582 324 582Q262 582 233 534.5Q204 487 195 395Q230 429 264 438Q298 447 333 447Q457 447 511.5 390.5Q566 334 566 228Q566 112 504 49Q442 -14 310 -14Q237 -14 188 6.5Q139 27 109.5 68Q80 109 67.5 170.5Q55 232 55 315Q55 427 75.5 501Q96 575 132.5 619Q169 663 220 680.5Q271 698 331 698Q377 698 411 690.5Q445 683 471 668Q497 653 516 631Q535 609 551 579ZM312 108Q372 108 394 138Q416 168 416 227Q416 281 396 305Q376 329 318 329Q255 329 232.5 302Q210 275 210 221Q210 164 232 136Q254 108 312 108Z" glyph-name="six.posf" horiz-adv-x="609" unicode="" /><glyph d="M164 374Q117 391 90.5 427Q64 463 64 517Q64 565 81 599.5Q98 634 129.5 656Q161 678 206.5 688Q252 698 310 698Q426 698 491 655.5Q556 613 556 516Q556 461 529.5 426Q503 391 455 374V371Q481 362 504.5 346.5Q528 331 545.5 310Q563 289 573.5 262Q584 235 584 202Q584 144 565 103Q546 62 510 36Q474 10 423.5 -2Q373 -14 310 -14Q247 -14 196.5 -2Q146 10 110 36Q74 62 55 103Q36 144 36 202Q36 235 46.5 261.5Q57 288 74.5 309Q92 330 115 345.5Q138 361 164 371ZM193 208Q193 179 202 159.5Q211 140 227 128.5Q243 117 264.5 112Q286 107 310 107Q334 107 355.5 112Q377 117 393 128.5Q409 140 418 159.5Q427 179 427 208Q427 263 395 284.5Q363 306 310 306Q257 306 225 284.5Q193 263 193 208ZM215 500Q215 451 235.5 433Q256 415 310 415Q364 415 384.5 433Q405 451 405 500Q405 518 401.5 532.5Q398 547 388 557Q378 567 359.5 572.5Q341 578 310 578Q279 578 260.5 572.5Q242 567 232 557Q222 547 218.5 532.5Q215 518 215 500Z" glyph-name="eight.posf" horiz-adv-x="620" unicode="" /><glyph d="M176 14Q194 -18 221 -38Q248 -58 290 -58Q352 -58 381 -10.5Q410 37 419 129Q401 112 384 101.5Q367 91 349.5 85.5Q332 80 315 78.5Q298 77 281 77Q157 77 102.5 133Q48 189 48 296Q48 411 110 474.5Q172 538 304 538Q377 538 426 517.5Q475 497 504.5 456Q534 415 546.5 353Q559 291 559 209Q559 91 538.5 16.5Q518 -58 481.5 -100.5Q445 -143 394 -158.5Q343 -174 283 -174Q237 -174 203 -166.5Q169 -159 143 -144Q117 -129 98 -107Q79 -85 63 -55ZM296 195Q359 195 382.5 222Q406 249 406 303Q406 360 383 388Q360 416 302 416Q242 416 219 386Q196 356 196 297Q196 243 217 219Q238 195 296 195Z" glyph-name="nine.posf" horiz-adv-x="620" unicode="" /><glyph d="M310 -14Q236 -14 184 5.5Q132 25 99 61Q66 97 51 148Q36 199 36 263Q36 328 51.5 379Q67 430 100 465.5Q133 501 185 519.5Q237 538 310 538Q383 538 435 519.5Q487 501 520 465.5Q553 430 568.5 379Q584 328 584 263Q584 199 568.5 148Q553 97 520 61Q487 25 435 5.5Q383 -14 310 -14ZM310 107Q377 107 403.5 143Q430 179 430 263Q430 345 404 382Q378 419 310 419Q242 419 216 382Q190 345 190 263Q190 221 196 191.5Q202 162 216 143Q230 124 253 115.5Q276 107 310 107Z" glyph-name="zero.tosf" horiz-adv-x="620" unicode="" /><glyph d="M92 120 261 120V380H256L92 308V440L275 523H411V120H567V0H92Z" glyph-name="one.tosf" horiz-adv-x="620" unicode="" /><glyph d="M69 77Q69 132 93 166Q117 200 153.5 222Q190 244 232.5 258Q275 272 311.5 286Q348 300 372 318Q396 336 396 366Q396 395 372.5 407.5Q349 420 311 420Q268 420 237.5 401.5Q207 383 196 354L67 418Q78 445 101.5 467Q125 489 158 505Q191 521 232 529.5Q273 538 318 538Q369 538 412 529.5Q455 521 486.5 501Q518 481 535.5 448.5Q553 416 553 368Q553 315 530 282Q507 249 472.5 227.5Q438 206 397 194Q356 182 321 172Q286 162 261.5 150.5Q237 139 235 120H549V0H69Z" glyph-name="two.tosf" horiz-adv-x="620" unicode="" /><glyph d="M164 46Q175 23 188 5Q201 -13 217.5 -25.5Q234 -38 256.5 -44.5Q279 -51 310 -51Q369 -51 396 -26Q423 -1 423 54Q423 72 419 89Q415 106 403 119.5Q391 133 369 141Q347 149 311 149H231V263H294Q332 263 354.5 268Q377 273 388.5 282.5Q400 292 403.5 305Q407 318 407 334Q407 378 387.5 397.5Q368 417 314 417Q286 417 266.5 412Q247 407 232 396.5Q217 386 205.5 370Q194 354 184 333L59 406Q78 436 101.5 460.5Q125 485 155.5 502.5Q186 520 225.5 529Q265 538 316 538Q369 538 413.5 527.5Q458 517 490.5 496Q523 475 541.5 442.5Q560 410 560 365Q560 334 551.5 309Q543 284 529 265Q515 246 496.5 233Q478 220 459 213V211Q518 188 548.5 147Q579 106 579 38Q579 -16 559.5 -56Q540 -96 504 -122.5Q468 -149 418 -161.5Q368 -174 307 -174Q253 -174 212.5 -164.5Q172 -155 140.5 -137Q109 -119 85 -92.5Q61 -66 41 -31Z" glyph-name="three.tosf" horiz-adv-x="620" unicode="" /><glyph d="M37 114 233 538H388L197 117H366V326H512V117H583V0H512V-160H366V0H37Z" glyph-name="four.tosf" horiz-adv-x="620" unicode="" /><glyph d="M183 23Q201 -18 229 -40.5Q257 -63 305 -63Q337 -63 358 -53Q379 -43 392 -25.5Q405 -8 410 15Q415 38 415 64Q415 85 411 105.5Q407 126 396 141.5Q385 157 364.5 167Q344 177 311 177Q284 177 264.5 170.5Q245 164 232 154Q219 144 211 133.5Q203 123 198 114L77 146V522H524V402H218V257Q239 278 274.5 289Q310 300 357 300Q416 300 456.5 282.5Q497 265 522.5 234Q548 203 559.5 161Q571 119 571 70Q571 4 551.5 -43.5Q532 -91 496.5 -121Q461 -151 411 -165.5Q361 -180 301 -180Q247 -180 207.5 -170.5Q168 -161 138.5 -143.5Q109 -126 87.5 -102Q66 -78 49 -48Z" glyph-name="five.tosf" horiz-adv-x="620" unicode="" /><glyph d="M438 510Q420 542 393 562Q366 582 324 582Q262 582 233 534.5Q204 487 195 395Q230 429 264 438Q298 447 333 447Q457 447 511.5 390.5Q566 334 566 228Q566 112 504 49Q442 -14 310 -14Q237 -14 188 6.5Q139 27 109.5 68Q80 109 67.5 170.5Q55 232 55 315Q55 427 75.5 501Q96 575 132.5 619Q169 663 220 680.5Q271 698 331 698Q377 698 411 690.5Q445 683 471 668Q497 653 516 631Q535 609 551 579ZM312 108Q372 108 394 138Q416 168 416 227Q416 281 396 305Q376 329 318 329Q255 329 232.5 302Q210 275 210 221Q210 164 232 136Q254 108 312 108Z" glyph-name="six.tosf" horiz-adv-x="620" unicode="" /><glyph d="M396 400 77 400V523H543V397L290 -165H120Z" glyph-name="seven.tosf" horiz-adv-x="620" unicode="" /><glyph d="M164 374Q117 391 90.5 427Q64 463 64 517Q64 565 81 599.5Q98 634 129.5 656Q161 678 206.5 688Q252 698 310 698Q426 698 491 655.5Q556 613 556 516Q556 461 529.5 426Q503 391 455 374V371Q481 362 504.5 346.5Q528 331 545.5 310Q563 289 573.5 262Q584 235 584 202Q584 144 565 103Q546 62 510 36Q474 10 423.5 -2Q373 -14 310 -14Q247 -14 196.5 -2Q146 10 110 36Q74 62 55 103Q36 144 36 202Q36 235 46.5 261.5Q57 288 74.5 309Q92 330 115 345.5Q138 361 164 371ZM193 208Q193 179 202 159.5Q211 140 227 128.5Q243 117 264.5 112Q286 107 310 107Q334 107 355.5 112Q377 117 393 128.5Q409 140 418 159.5Q427 179 427 208Q427 263 395 284.5Q363 306 310 306Q257 306 225 284.5Q193 263 193 208ZM215 500Q215 451 235.5 433Q256 415 310 415Q364 415 384.5 433Q405 451 405 500Q405 518 401.5 532.5Q398 547 388 557Q378 567 359.5 572.5Q341 578 310 578Q279 578 260.5 572.5Q242 567 232 557Q222 547 218.5 532.5Q215 518 215 500Z" glyph-name="eight.tosf" horiz-adv-x="620" unicode="" /><glyph d="M183 14Q201 -18 228 -38Q255 -58 297 -58Q359 -58 388 -10.5Q417 37 426 129Q408 112 391 101.5Q374 91 356.5 85.5Q339 80 322 78.5Q305 77 288 77Q164 77 109.5 133Q55 189 55 296Q55 411 117 474.5Q179 538 311 538Q384 538 433 517.5Q482 497 511.5 456Q541 415 553.5 353Q566 291 566 209Q566 91 545.5 16.5Q525 -58 488.5 -100.5Q452 -143 401 -158.5Q350 -174 290 -174Q244 -174 210 -166.5Q176 -159 150 -144Q124 -129 105 -107Q86 -85 70 -55ZM303 195Q366 195 389.5 222Q413 249 413 303Q413 360 390 388Q367 416 309 416Q249 416 226 386Q203 356 203 297Q203 243 224 219Q245 195 303 195Z" glyph-name="nine.tosf" horiz-adv-x="620" unicode="" /><glyph d="M16 698 185 698L315 172H317L450 698H619L745 173H747L885 698H1049L832 0H657L532 514H530L402 0H227Z" glyph-name="W.alt" horiz-adv-x="1065" unicode="" /><glyph d="" glyph-name="Wcircumflex.alt" horiz-adv-x="1065" unicode="" /><glyph d="" glyph-name="Wgrave.alt" horiz-adv-x="1065" unicode="" /><glyph d="" glyph-name="Wacute.alt" horiz-adv-x="1065" unicode="" /><glyph d="" glyph-name="Wdieresis.alt" horiz-adv-x="1065" unicode="" /><glyph d="M94 416 14 416V523H94V572Q94 619 107.5 650.5Q121 682 145.5 701.5Q170 721 205.5 729.5Q241 738 286 738Q310 738 329.5 735.5Q349 733 363 729V629Q351 633 331.5 635.5Q312 638 299 638Q272 638 256 625.5Q240 613 240 581V523H351V416H244V0H94ZM431 720 581 720V590H431ZM431 523 581 523V0H431Z" glyph-name="fi" horiz-adv-x="651" unicode="" /><glyph d="M94 416 14 416V523H94V572Q94 619 107.5 650.5Q121 682 145.5 701.5Q170 721 205.5 729.5Q241 738 286 738Q310 738 329.5 735.5Q349 733 363 729V629Q351 633 331.5 635.5Q312 638 299 638Q272 638 256 625.5Q240 613 240 581V523H351V416H244V0H94ZM431 728 581 728V0H431Z" glyph-name="fl" horiz-adv-x="651" unicode="" /><glyph d="M94 416 14 416V523H94V672H244V523H353V416H244V150Q244 118 257.5 107.5Q271 97 302 97Q319 97 332.5 99Q346 101 357 103V0Q345 -4 313.5 -8Q282 -12 248 -12Q203 -12 173.5 -2.5Q144 7 126.5 25Q109 43 101.5 69.5Q94 96 94 130ZM15 322 355 322V214H15Z" glyph-name="tbar" horiz-adv-x="371" unicode="ŧ" /><glyph d="M20 523 178 523L259 177H260L363 523H489L595 176H597L673 523H823L665 0H526L424 339H422L322 0H184Z" glyph-name="w.alt" horiz-adv-x="843" unicode="" /><glyph d="" glyph-name="wcircumflex.alt" horiz-adv-x="843" unicode="" /><glyph d="" glyph-name="wgrave.alt" horiz-adv-x="843" unicode="" /><glyph d="" glyph-name="wacute.alt" horiz-adv-x="843" unicode="" /><glyph d="" glyph-name="wdieresis.alt" horiz-adv-x="843" unicode="" /><glyph d="" glyph-name="uni00AD" horiz-adv-x="0" unicode="­" /><glyph d="M269 -162Q181 -53 133 72.5Q85 198 85 332Q85 465 132 590.5Q179 716 267 825L371 751Q336 700 309 652Q282 604 262.5 554Q243 504 233 449.5Q223 395 223 331Q223 267 233 212.5Q243 158 262.5 108Q282 58 309 10Q336 -38 371 -89Z" glyph-name="parenleft.alt" horiz-adv-x="390" unicode="" /><glyph d="M20 -89Q54 -38 81.5 10Q109 58 128.5 108Q148 158 158 212.5Q168 267 168 331Q168 395 158 449.5Q148 504 128.5 554Q109 604 81.5 652Q54 700 20 751L124 825Q212 716 259 590.5Q306 465 306 332Q306 198 258 72.5Q210 -53 122 -162Z" glyph-name="parenright.alt" horiz-adv-x="391" unicode="" /><glyph d="M103 822 360 822V737H233V-69H360V-154H103Z" glyph-name="bracketleft.alt" horiz-adv-x="390" unicode="" /><glyph d="M30 -69 157 -69V737H30V822H287V-154H30Z" glyph-name="bracketright.alt" horiz-adv-x="390" unicode="" /><glyph d="M135 189Q135 218 129.5 236.5Q124 255 115 266Q106 277 93.5 281Q81 285 66 285H47V413H66Q81 413 93.5 417Q106 421 115 432Q124 443 129.5 461.5Q135 480 135 509V630Q135 687 145 726Q155 765 176.5 788.5Q198 812 233.5 822Q269 832 320 832H360V747H350Q308 747 287.5 724Q267 701 267 662V501Q267 442 241.5 405Q216 368 168 351V347Q216 330 241.5 293Q267 256 267 197V26Q267 -13 287.5 -36Q308 -59 350 -59H360V-144H320Q269 -144 233.5 -134Q198 -124 176.5 -100.5Q155 -77 145 -38Q135 1 135 58Z" glyph-name="braceleft.alt" horiz-adv-x="390" unicode="" /><glyph d="M30 -59 40 -59Q82 -59 102.5 -36Q123 -13 123 26V197Q123 256 148.5 293Q174 330 222 347V351Q174 368 148.5 405Q123 442 123 501V662Q123 701 102.5 724Q82 747 40 747H30V832H70Q121 832 156.5 822Q192 812 213.5 788.5Q235 765 245 726Q255 687 255 630V509Q255 480 260.5 461.5Q266 443 275 432Q284 421 296.5 417Q309 413 324 413H343V285H324Q309 285 296.5 281Q284 277 275 266Q266 255 260.5 236.5Q255 218 255 189V58Q255 1 245 -38Q235 -77 213.5 -100.5Q192 -124 156.5 -134Q121 -144 70 -144H30Z" glyph-name="braceright.alt" horiz-adv-x="390" unicode="" /><glyph d="M251 296 66 296V412H251V618H369V412H554V296H369V90H251Z" glyph-name="plus.alt" horiz-adv-x="620" unicode="" /><glyph d="M66 418 554 621V488L198 354L554 216V84L66 290Z" glyph-name="less.alt" horiz-adv-x="620" unicode="" /><glyph d="M66 522 554 522V406H66ZM66 302 554 302V186H66Z" glyph-name="equal.alt" horiz-adv-x="620" unicode="" /><glyph d="M66 216 422 354L66 488V621L554 418V290L66 84Z" glyph-name="greater.alt" horiz-adv-x="620" unicode="" /></font>
</defs>
</svg>
